{"glyphs":{"0":{"ha":694,"x_min":50,"x_max":645,"o":"m 50 454 q 98 725 50 613 q 140 806 115 767 q 197 874 165 844 q 267 921 229 903 q 350 939 305 939 q 540 831 455 939 q 645 469 645 697 q 640 365 645 414 q 624 270 635 315 q 595 183 613 224 q 549 102 576 141 q 507 56 531 78 q 456 18 483 35 q 399 -7 429 2 q 343 -16 370 -16 q 233 18 285 -16 q 141 113 181 52 q 75 263 99 176 q 50 454 50 351 m 183 437 q 192 284 183 356 q 219 157 201 212 q 270 61 239 96 q 345 26 301 26 q 383 34 363 26 q 421 59 403 42 q 455 104 439 77 q 481 170 471 131 q 504 310 496 229 q 512 498 512 391 q 479 761 512 656 q 428 861 458 828 q 349 894 397 894 q 255 837 294 894 q 201 675 216 779 q 188 555 192 614 q 183 437 183 496 z "},"1":{"ha":694,"x_min":163,"x_max":525,"o":"m 163 829 l 387 939 l 409 939 l 409 162 q 410 99 409 122 q 415 64 412 77 q 425 47 418 52 q 442 37 432 41 q 525 25 463 26 l 525 0 l 179 0 l 179 25 q 232 28 212 26 q 264 36 252 31 q 281 47 275 41 q 290 62 286 54 q 297 162 297 81 l 297 659 q 290 787 297 760 q 273 819 285 809 q 243 829 260 829 q 173 808 217 829 l 163 829 z "},"2":{"ha":694,"x_min":30,"x_max":637,"o":"m 637 177 l 572 0 l 30 0 l 30 25 q 234 223 150 135 q 367 382 318 312 q 465 635 465 520 q 450 715 465 678 q 411 779 435 752 q 353 820 386 805 q 283 835 319 835 q 218 825 249 835 q 161 795 187 815 q 115 747 135 776 q 81 679 94 718 l 56 679 q 87 790 65 742 q 144 871 110 838 q 222 922 178 905 q 319 939 266 939 q 422 919 374 939 q 506 866 471 899 q 561 789 541 833 q 581 697 581 745 q 548 557 581 627 q 385 325 498 448 q 248 177 300 232 q 174 102 195 121 l 414 102 q 491 104 460 102 q 544 114 522 106 q 581 137 566 122 q 612 177 597 151 l 637 177 z "},"3":{"ha":694,"x_min":56,"x_max":579,"o":"m 71 745 q 170 888 110 838 q 319 939 230 939 q 406 923 367 939 q 474 882 446 908 q 518 823 503 857 q 534 752 534 789 q 408 545 534 651 q 536 450 493 511 q 579 304 579 389 q 553 176 579 235 q 479 74 527 117 q 365 7 432 31 q 216 -16 298 -16 q 138 -10 169 -16 q 89 7 107 -3 q 63 31 71 18 q 56 56 56 43 q 72 91 56 76 q 111 106 88 106 q 125 106 120 106 q 139 103 131 106 q 160 94 146 100 q 197 75 173 88 q 237 56 222 62 q 263 46 252 50 q 284 43 275 43 q 307 43 294 43 q 373 57 342 43 q 428 97 404 72 q 465 155 451 122 q 479 223 479 187 q 474 269 479 245 q 460 315 469 293 q 440 355 452 337 q 416 385 429 374 q 381 411 402 398 q 336 434 360 424 q 285 450 311 444 q 233 456 258 456 l 211 456 l 211 477 q 318 515 264 484 q 397 592 373 548 q 421 690 421 637 q 409 754 421 725 q 377 803 397 783 q 328 835 356 824 q 269 846 300 846 q 93 734 163 846 l 71 745 z "},"4":{"ha":694,"x_min":22,"x_max":646,"o":"m 646 339 l 646 243 l 523 243 l 523 0 l 411 0 l 411 243 l 22 243 l 22 330 l 448 939 l 523 939 l 523 339 l 646 339 m 411 339 l 411 795 l 88 339 l 411 339 z "},"5":{"ha":694,"x_min":66,"x_max":603,"o":"m 603 920 l 550 804 l 273 804 l 213 681 q 498 547 393 654 q 588 330 588 455 q 558 196 588 259 q 484 91 529 134 q 385 21 439 47 q 224 -16 307 -16 q 152 -8 182 -16 q 103 12 122 -1 q 75 41 84 25 q 66 74 66 58 q 82 107 66 93 q 121 122 98 122 q 137 121 130 122 q 152 117 144 120 q 171 107 160 113 q 197 89 181 100 q 300 54 248 54 q 376 70 340 54 q 439 114 412 85 q 483 179 467 142 q 500 260 500 217 q 446 415 500 343 q 298 527 392 488 q 97 562 225 557 l 273 920 l 603 920 z "},"6":{"ha":694,"x_min":60,"x_max":641,"o":"m 623 939 l 623 913 q 545 901 579 908 q 480 880 511 893 q 422 846 450 867 q 364 796 395 826 q 314 739 336 768 q 273 674 292 709 q 239 600 254 640 q 212 513 224 560 q 408 581 310 581 q 497 561 455 581 q 571 504 539 541 q 622 418 604 468 q 641 309 641 368 q 619 189 641 248 q 559 85 597 131 q 467 12 520 39 q 349 -16 413 -16 q 263 -1 302 -16 q 192 42 224 15 q 135 105 159 69 q 94 184 111 142 q 68 271 77 226 q 60 361 60 316 q 109 595 60 485 q 250 793 158 706 q 408 902 328 865 q 583 939 488 939 l 623 939 m 201 464 q 189 316 189 372 q 193 255 189 288 q 208 189 198 222 q 232 126 218 156 q 267 73 247 96 q 312 36 287 50 q 368 22 338 22 q 425 36 397 22 q 473 78 452 50 q 507 145 494 105 q 520 236 520 185 q 509 344 520 292 q 475 435 497 396 q 419 498 452 475 q 343 522 386 522 q 316 519 329 522 q 288 511 303 517 q 251 493 272 505 q 201 464 231 482 z "},"7":{"ha":694,"x_min":52,"x_max":633,"o":"m 140 920 l 633 920 l 633 894 l 326 -19 l 250 -19 l 525 809 l 272 809 q 203 803 232 809 q 151 784 174 798 q 109 748 127 770 q 71 694 90 726 l 52 702 l 140 920 z "},"8":{"ha":694,"x_min":84,"x_max":614,"o":"m 267 463 q 125 607 157 553 q 94 720 94 661 q 113 803 94 764 q 164 873 131 843 q 243 921 197 903 q 347 939 290 939 q 448 922 402 939 q 526 878 493 905 q 576 814 558 850 q 594 741 594 779 q 557 635 594 689 q 405 509 521 581 q 504 427 465 463 q 563 364 543 391 q 614 218 614 296 q 595 128 614 170 q 541 53 576 85 q 456 2 505 21 q 347 -16 406 -16 q 241 2 289 -16 q 158 51 193 20 q 103 123 123 82 q 84 210 84 164 q 125 330 84 270 q 181 394 146 361 q 267 463 216 427 m 373 536 q 476 651 454 609 q 498 747 498 694 q 458 859 498 819 q 349 899 418 899 q 286 888 314 899 q 236 859 257 878 q 204 817 216 841 q 193 766 193 792 q 211 695 193 730 q 262 628 229 661 l 373 536 m 298 437 q 222 347 250 397 q 196 283 204 317 q 188 213 188 250 q 200 134 188 170 q 235 73 213 98 q 289 34 258 48 q 357 20 320 20 q 424 32 394 20 q 475 62 454 43 q 507 107 496 81 q 519 162 519 133 q 493 250 519 210 q 298 437 446 321 z "},"9":{"ha":694,"x_min":55,"x_max":635,"o":"m 73 -19 l 73 6 q 168 20 125 8 q 248 53 211 31 q 319 108 286 75 q 384 186 352 141 q 483 404 456 286 q 290 335 376 335 q 199 355 242 335 q 124 410 156 374 q 74 497 92 446 q 55 609 55 547 q 76 730 55 671 q 134 836 96 789 q 224 910 172 882 q 342 939 277 939 q 461 907 407 939 q 553 823 515 876 q 613 701 592 770 q 635 559 635 633 q 622 436 635 496 q 583 321 608 376 q 522 215 558 265 q 440 123 486 165 q 367 65 405 91 q 289 20 330 39 q 204 -9 248 1 q 112 -19 159 -19 l 73 -19 m 494 454 q 506 595 506 542 q 501 657 506 624 q 486 725 496 691 q 461 789 476 758 q 427 843 446 819 q 382 881 407 867 q 327 895 357 895 q 270 881 297 895 q 222 841 243 867 q 188 773 201 814 q 176 679 176 732 q 187 567 176 618 q 221 478 199 515 q 274 418 243 440 q 345 397 305 397 q 379 401 359 397 q 418 412 398 405 q 458 430 439 419 q 494 454 478 440 z "}," ":{"ha":347,"x_min":0,"x_max":0,"o":""},"!":{"ha":463,"x_min":155,"x_max":308,"o":"m 244 243 l 218 243 l 159 793 q 155 846 155 828 q 161 885 155 867 q 177 915 167 903 q 202 934 188 927 q 232 941 216 941 q 286 915 264 941 q 308 838 308 889 q 307 819 308 830 q 305 793 307 808 l 244 243 m 231 131 q 259 125 245 131 q 283 109 273 119 q 300 85 294 98 q 306 56 306 71 q 300 27 306 41 q 283 3 294 14 q 260 -13 273 -7 q 231 -19 246 -19 q 201 -13 215 -19 q 178 3 188 -7 q 161 27 168 14 q 155 56 155 41 q 161 85 155 72 q 178 109 168 99 q 201 125 188 119 q 231 131 215 131 z "},"\"":{"ha":567,"x_min":90,"x_max":475,"o":"m 391 545 l 339 825 q 338 842 338 833 q 338 859 338 850 q 357 921 338 901 q 407 941 376 941 q 455 921 436 941 q 475 868 475 901 q 472 808 475 839 q 462 743 469 777 l 423 545 l 391 545 m 142 545 l 105 745 q 94 815 98 787 q 90 858 90 843 q 108 921 90 901 q 157 941 126 941 q 207 921 187 941 q 226 867 226 901 q 221 824 226 854 q 208 745 217 793 l 172 545 l 142 545 z "},"#":{"ha":694,"x_min":25,"x_max":669,"o":"m 78 -19 l 141 290 l 25 290 l 25 345 l 152 345 l 199 578 l 25 578 l 25 632 l 212 632 l 273 941 l 330 941 l 268 632 l 496 632 l 562 941 l 618 941 l 554 632 l 669 632 l 669 578 l 544 578 l 496 345 l 669 345 l 669 290 l 485 290 l 422 -19 l 367 -19 l 429 290 l 199 290 l 134 -19 l 78 -19 m 209 345 l 439 345 l 488 578 l 256 578 l 209 345 z "},"$":{"ha":694,"x_min":73,"x_max":625,"o":"m 73 227 l 103 227 q 161 84 111 133 q 313 25 212 35 l 313 421 q 110 588 161 515 q 74 713 74 640 q 90 792 74 755 q 136 859 105 829 q 211 908 166 888 q 313 935 256 928 l 313 997 l 357 997 l 357 935 q 408 930 385 933 q 450 922 431 926 q 581 875 469 916 l 581 672 l 554 672 q 536 765 549 726 q 498 830 522 804 q 439 870 474 856 q 357 889 404 884 l 357 545 q 576 368 528 425 q 612 305 600 340 q 625 228 625 271 q 607 140 625 182 q 554 64 589 98 q 470 8 519 31 q 357 -19 420 -14 l 357 -106 l 313 -106 l 313 -19 q 252 -14 281 -18 q 195 -4 222 -10 q 137 11 167 1 q 73 35 106 20 l 73 227 m 313 573 l 313 888 q 213 845 245 880 q 180 758 180 810 q 186 710 180 732 q 209 665 193 687 q 250 620 224 643 q 313 573 275 597 m 357 25 q 476 85 435 39 q 517 194 517 131 q 490 279 517 239 q 357 392 463 319 l 357 25 z "},"%":{"ha":1157,"x_min":51,"x_max":1109,"o":"m 944 941 l 274 -38 l 214 -38 l 884 941 l 944 941 m 913 456 q 991 437 956 456 q 1054 384 1027 417 q 1094 305 1080 350 q 1109 209 1109 260 q 1093 102 1109 149 q 1051 25 1078 56 q 989 -22 1024 -6 q 915 -38 954 -38 q 838 -20 874 -38 q 776 32 802 -1 q 734 110 749 64 q 719 209 719 155 q 736 315 719 269 q 780 393 753 361 q 843 440 808 425 q 913 456 878 456 m 913 420 q 879 409 895 420 q 851 372 863 397 q 833 304 840 346 q 827 204 827 263 q 850 49 827 98 q 913 0 873 0 q 976 51 951 0 q 1002 208 1002 102 q 979 368 1002 315 q 913 420 956 420 m 245 941 q 323 921 288 941 q 386 868 359 901 q 426 789 412 834 q 441 693 441 744 q 425 587 441 633 q 383 509 410 541 q 321 462 356 478 q 247 446 286 446 q 170 465 206 446 q 108 516 134 483 q 66 594 81 549 q 51 693 51 640 q 68 800 51 753 q 112 877 85 846 q 175 925 140 909 q 245 941 210 941 m 245 905 q 211 893 227 905 q 183 856 195 882 q 165 789 172 830 q 159 688 159 747 q 182 533 159 583 q 245 484 205 484 q 308 535 283 484 q 334 692 334 586 q 311 852 334 799 q 245 905 288 905 z "},"&":{"ha":1080,"x_min":51,"x_max":1038,"o":"m 709 592 l 994 592 l 994 567 q 906 541 935 562 q 819 412 878 519 q 684 210 758 304 q 741 151 715 175 q 792 111 768 126 q 840 90 817 96 q 888 83 863 83 q 967 109 935 83 q 1013 184 1000 134 l 1038 165 q 958 24 1013 70 q 828 -21 902 -21 q 772 -14 800 -21 q 715 9 745 -7 q 655 50 686 25 q 590 111 624 75 q 438 7 505 37 q 294 -21 371 -21 q 193 -5 238 -21 q 117 39 149 12 q 68 103 85 66 q 51 181 51 140 q 110 345 51 263 q 332 514 168 427 q 305 578 315 550 q 288 630 294 606 q 279 674 281 653 q 277 716 277 694 q 295 808 277 767 q 346 879 313 850 q 421 925 378 909 q 513 941 464 941 q 586 928 553 941 q 644 892 620 915 q 682 840 669 870 q 696 775 696 810 q 646 649 696 703 q 579 592 622 622 q 473 530 536 563 q 561 383 516 453 q 652 250 606 313 q 772 490 772 393 q 768 516 772 503 q 756 539 764 529 q 736 557 748 550 q 709 567 724 565 l 709 592 m 450 574 q 617 779 617 654 q 609 823 617 802 q 587 859 601 844 q 554 883 573 874 q 512 891 534 891 q 460 879 482 891 q 422 849 437 867 q 400 810 408 831 q 393 770 393 789 q 395 735 393 752 q 404 696 397 718 q 421 645 410 674 q 450 574 432 616 m 555 151 q 479 256 510 212 q 431 329 448 300 q 394 392 413 357 q 355 469 376 427 q 191 243 191 374 q 203 175 191 208 q 238 117 216 142 q 292 76 260 92 q 364 61 324 61 q 406 64 386 61 q 447 77 425 68 q 494 104 469 87 q 555 151 520 122 z "},"'":{"ha":250,"x_min":55,"x_max":191,"o":"m 107 545 l 71 745 q 59 815 63 787 q 55 858 55 843 q 73 921 55 901 q 121 941 90 941 q 171 921 151 941 q 191 868 191 901 q 187 825 191 855 q 174 745 183 794 l 137 545 l 107 545 z "},"(":{"ha":463,"x_min":57,"x_max":431,"o":"m 431 -272 l 431 -297 q 260 -176 328 -245 q 110 56 163 -78 q 57 333 57 189 q 161 716 57 543 q 431 964 264 890 l 431 936 q 294 810 349 890 q 214 607 241 730 q 188 351 188 484 q 210 87 188 205 q 253 -63 228 -7 q 320 -172 278 -120 q 431 -272 362 -224 z "},")":{"ha":463,"x_min":31,"x_max":406,"o":"m 31 936 l 31 964 q 203 844 135 913 q 353 612 300 745 q 406 334 406 478 q 302 -49 406 124 q 31 -297 197 -223 l 31 -272 q 168 -145 115 -225 q 248 57 223 -64 q 268 183 261 119 q 275 314 275 247 q 252 578 275 458 q 210 728 235 672 q 142 836 184 784 q 31 936 100 888 z "},"*":{"ha":694,"x_min":98,"x_max":597,"o":"m 335 708 q 316 801 332 756 q 293 892 293 866 q 310 946 293 928 q 351 964 326 964 q 387 946 372 964 q 403 894 403 928 q 397 858 403 880 q 385 809 392 835 q 371 756 378 783 q 363 708 365 730 q 398 734 382 720 q 430 766 415 749 q 469 809 453 793 q 498 833 486 825 q 521 843 511 841 q 544 845 532 845 q 582 830 566 845 q 597 793 597 814 q 593 770 597 781 q 576 749 589 760 q 535 729 562 739 q 463 709 509 720 q 376 683 410 698 q 462 655 412 664 q 530 638 504 648 q 570 617 556 628 q 590 594 585 606 q 595 569 595 582 q 579 534 595 549 q 544 519 564 519 q 523 522 534 519 q 499 532 512 524 q 470 556 486 541 q 432 597 453 571 q 401 629 418 614 q 363 659 384 644 q 378 575 363 622 q 403 466 403 494 q 398 440 403 452 q 387 420 394 429 q 370 407 379 412 q 352 401 361 401 q 331 405 342 401 q 312 416 321 408 q 298 436 303 423 q 292 467 292 448 q 297 502 292 481 q 309 545 302 524 q 320 583 315 566 q 328 608 326 601 q 335 659 332 627 q 298 631 315 646 q 265 600 280 616 q 228 560 243 576 q 199 535 212 544 q 176 522 186 526 q 154 519 165 519 q 132 523 142 519 q 115 535 122 528 q 103 551 107 542 q 98 569 98 559 q 112 605 98 586 q 154 635 125 623 q 184 645 163 640 q 237 657 205 650 q 319 683 279 665 q 232 711 283 701 q 129 743 149 728 q 98 798 98 766 q 102 815 98 806 q 114 831 106 824 q 130 842 121 838 q 149 846 139 846 q 172 843 161 846 q 197 832 184 840 q 225 810 210 824 q 259 774 240 796 q 335 708 298 730 z "},"+":{"ha":783,"x_min":25,"x_max":756,"o":"m 363 96 l 363 434 l 25 434 l 25 490 l 363 490 l 363 827 l 417 827 l 417 490 l 756 490 l 756 434 l 417 434 l 417 96 l 363 96 z "},",":{"ha":347,"x_min":75,"x_max":277,"o":"m 75 -231 l 75 -201 q 136 -171 109 -190 q 182 -130 163 -153 q 211 -80 201 -106 q 221 -27 221 -54 q 216 -8 221 -17 q 205 1 212 1 q 197 -2 203 1 q 183 -9 191 -5 q 166 -16 176 -13 q 147 -19 157 -19 q 94 1 114 -19 q 75 55 75 20 q 81 86 75 72 q 100 112 88 101 q 128 129 112 123 q 162 136 144 136 q 204 125 184 136 q 241 97 225 115 q 267 52 257 78 q 277 -7 277 25 q 265 -75 277 -41 q 228 -137 253 -108 q 165 -190 203 -165 q 75 -231 127 -214 z "},"-":{"ha":463,"x_min":56,"x_max":407,"o":"m 56 363 l 407 363 l 407 260 l 56 260 l 56 363 z "},".":{"ha":347,"x_min":98,"x_max":249,"o":"m 174 132 q 203 126 189 132 q 227 110 216 120 q 243 86 237 100 q 249 56 249 72 q 243 27 249 41 q 227 3 237 14 q 203 -13 216 -7 q 174 -19 189 -19 q 144 -13 158 -19 q 121 3 131 -7 q 104 27 111 14 q 98 56 98 41 q 104 86 98 73 q 121 110 111 100 q 144 126 131 120 q 174 132 158 132 z "},"/":{"ha":386,"x_min":2,"x_max":389,"o":"m 389 964 l 56 -19 l 2 -19 l 335 964 l 389 964 z "},":":{"ha":386,"x_min":119,"x_max":271,"o":"m 196 640 q 225 634 212 640 q 249 618 239 628 q 265 594 259 608 q 271 565 271 581 q 265 536 271 549 q 249 512 259 522 q 225 496 239 502 q 196 490 212 490 q 167 496 180 490 q 143 512 153 502 q 127 536 133 522 q 121 565 121 549 q 127 594 121 581 q 143 618 133 608 q 167 634 153 628 q 196 640 180 640 m 195 132 q 224 126 210 132 q 248 110 238 120 q 264 85 258 99 q 271 56 271 71 q 264 27 271 41 q 248 3 258 14 q 224 -13 238 -7 q 195 -19 210 -19 q 165 -13 179 -19 q 142 3 152 -7 q 125 27 132 14 q 119 56 119 41 q 125 86 119 72 q 142 110 132 100 q 165 126 152 120 q 195 132 179 132 z "},";":{"ha":386,"x_min":96,"x_max":298,"o":"m 191 641 q 220 635 207 641 q 244 619 234 629 q 260 595 254 609 q 267 566 267 582 q 260 537 267 551 q 244 513 254 524 q 220 497 234 503 q 191 491 207 491 q 162 497 176 491 q 138 513 149 503 q 122 537 128 524 q 116 566 116 551 q 122 595 116 582 q 138 619 128 609 q 162 635 149 629 q 191 641 176 641 m 96 -231 l 96 -201 q 158 -171 131 -190 q 204 -130 185 -153 q 233 -80 223 -106 q 243 -27 243 -54 q 238 -8 243 -17 q 227 1 233 1 q 219 -2 225 1 q 205 -9 213 -5 q 188 -16 197 -13 q 169 -19 178 -19 q 116 1 136 -19 q 96 55 96 20 q 103 86 96 72 q 122 112 110 101 q 150 129 134 123 q 184 136 165 136 q 226 125 205 136 q 263 97 247 115 q 289 52 279 78 q 298 -7 298 25 q 287 -75 298 -41 q 250 -137 275 -108 q 187 -190 225 -165 q 96 -231 149 -214 z "},"<":{"ha":783,"x_min":25,"x_max":755,"o":"m 25 479 l 755 795 l 755 736 l 127 463 l 755 188 l 755 127 l 25 446 l 25 479 z "},"=":{"ha":783,"x_min":25,"x_max":757,"o":"m 25 599 l 757 599 l 757 543 l 25 543 l 25 599 m 25 378 l 757 378 l 757 322 l 25 322 l 25 378 z "},">":{"ha":783,"x_min":25,"x_max":755,"o":"m 755 443 l 25 127 l 25 185 l 654 458 l 25 733 l 25 795 l 755 476 l 755 443 z "},"?":{"ha":616,"x_min":62,"x_max":561,"o":"m 308 217 l 280 217 q 301 358 286 304 q 327 425 309 387 q 370 514 345 464 q 404 582 390 553 q 423 631 417 611 q 435 715 435 673 q 423 792 435 758 q 389 852 410 827 q 339 889 368 876 q 277 903 310 903 q 224 895 248 903 q 184 874 201 887 q 159 846 168 862 q 151 814 151 831 q 157 786 151 803 q 171 753 163 770 q 185 721 178 736 q 191 697 191 705 q 176 656 191 673 q 138 640 160 640 q 110 647 123 640 q 86 668 96 654 q 69 701 75 682 q 62 746 62 721 q 79 819 62 783 q 128 881 96 854 q 205 924 159 908 q 307 941 250 941 q 413 924 366 941 q 493 878 460 907 q 544 810 526 849 q 561 727 561 771 q 538 625 561 677 q 507 569 527 600 q 455 503 486 538 q 334 345 357 393 q 308 217 313 299 m 298 133 q 353 111 331 133 q 374 57 374 90 q 368 28 374 41 q 352 4 362 14 q 328 -12 342 -6 q 298 -18 314 -18 q 269 -12 283 -18 q 245 4 256 -6 q 229 28 235 14 q 223 57 223 41 q 229 87 223 73 q 245 111 235 101 q 269 127 256 121 q 298 133 283 133 z "},"@":{"ha":1279,"x_min":66,"x_max":1245,"o":"m 955 650 l 876 379 q 840 255 853 303 q 822 186 827 207 q 812 121 812 144 q 827 85 812 100 q 863 70 842 70 q 919 82 888 70 q 982 120 949 94 q 1045 185 1014 145 q 1101 280 1076 225 q 1151 512 1151 390 q 1095 726 1151 627 q 937 877 1038 825 q 829 916 886 903 q 711 930 773 930 q 420 846 555 930 q 208 608 286 764 q 130 283 130 452 q 198 0 130 127 q 392 -193 266 -127 q 661 -258 517 -258 q 983 -163 839 -258 q 1206 117 1128 -66 l 1245 117 q 1023 -184 1184 -70 q 657 -300 862 -300 q 357 -223 496 -300 q 142 -7 218 -146 q 66 301 66 133 q 150 635 66 481 q 385 877 235 791 q 542 942 461 920 q 707 964 622 964 q 960 906 847 964 q 1133 736 1074 848 q 1192 500 1192 625 q 1136 254 1192 375 q 996 77 1081 132 q 817 21 911 21 q 740 45 766 21 q 713 114 713 69 q 726 214 713 151 q 565 56 624 92 q 458 20 505 20 q 412 32 435 20 q 373 63 390 43 q 346 113 356 84 q 336 178 336 142 q 399 399 336 277 q 570 597 464 521 q 709 654 648 654 q 785 630 755 654 q 826 560 815 607 l 848 635 l 955 650 m 717 622 q 653 601 686 622 q 590 543 621 579 q 532 458 559 506 q 483 356 505 410 q 443 199 443 258 q 449 159 443 177 q 467 129 456 142 q 492 110 477 117 q 521 102 506 102 q 603 132 560 102 q 694 224 646 161 q 764 349 742 286 q 802 524 802 457 q 795 565 802 547 q 777 595 788 583 q 750 615 765 608 q 717 622 734 622 z "},"A":{"ha":1003,"x_min":11,"x_max":987,"o":"m 635 308 l 279 308 l 217 163 q 194 83 194 110 q 198 63 194 72 q 213 46 201 54 q 245 33 224 38 q 300 25 267 28 l 300 0 l 11 0 l 11 25 q 85 52 68 35 q 122 101 103 68 q 162 184 140 134 l 486 941 l 509 941 l 829 176 q 866 99 849 128 q 900 55 882 71 q 938 33 918 39 q 987 25 959 26 l 987 0 l 625 0 l 625 25 q 670 31 652 26 q 699 43 688 36 q 714 60 709 51 q 718 81 718 70 q 712 120 719 96 q 691 176 705 143 l 635 308 m 616 358 l 460 730 l 300 358 l 616 358 z "},"B":{"ha":926,"x_min":23,"x_max":850,"o":"m 642 469 q 738 436 698 457 q 802 387 777 415 q 839 324 827 358 q 850 252 850 290 q 839 184 850 218 q 807 121 828 151 q 756 67 786 92 q 688 28 726 43 q 457 0 612 0 l 23 0 l 23 25 l 58 25 q 140 62 115 25 q 156 163 156 85 l 156 757 q 136 865 156 842 q 58 895 110 895 l 23 895 l 23 920 l 420 920 q 599 903 532 920 q 689 869 650 891 q 754 817 728 846 q 794 750 781 787 q 808 674 808 714 q 766 550 808 605 q 642 469 724 496 m 286 506 q 414 496 338 496 q 563 517 514 496 q 607 545 588 528 q 640 583 627 562 q 659 629 652 604 q 666 680 666 653 q 649 754 666 719 q 600 817 633 790 q 519 859 568 843 q 408 874 471 874 q 286 859 339 874 l 286 506 m 286 66 q 441 48 364 48 q 550 63 503 48 q 629 104 597 78 q 677 165 661 130 q 693 240 693 200 q 676 322 693 284 q 623 389 659 361 q 533 433 587 417 q 406 450 479 450 q 334 448 363 450 q 286 444 304 447 l 286 66 z "},"C":{"ha":926,"x_min":50,"x_max":878,"o":"m 836 941 l 857 628 l 836 628 q 785 748 815 698 q 716 830 755 798 q 631 877 677 862 q 529 892 584 892 q 366 847 437 892 q 252 708 294 802 q 217 591 229 656 q 205 444 205 526 q 245 228 205 320 q 296 146 265 181 q 366 87 327 111 q 452 51 406 63 q 549 39 498 39 q 647 50 606 39 q 722 85 688 62 q 788 145 756 109 q 857 229 819 181 l 878 216 q 804 110 844 155 q 717 36 764 65 q 615 -7 670 7 q 498 -21 561 -21 q 144 149 269 -21 q 50 446 50 275 q 73 605 50 528 q 142 747 95 682 q 216 829 174 793 q 306 890 258 865 q 408 928 355 915 q 518 941 462 941 q 715 892 618 941 q 755 877 745 876 q 792 895 777 877 q 812 941 806 913 l 836 941 z "},"D":{"ha":1003,"x_min":24,"x_max":950,"o":"m 24 0 l 24 25 l 58 25 q 141 62 116 25 q 156 163 156 84 l 156 757 q 137 865 156 844 q 58 895 111 895 l 24 895 l 24 920 l 398 920 q 711 873 604 920 q 884 717 819 826 q 950 465 950 608 q 917 277 950 363 q 820 131 884 192 q 658 35 755 69 q 435 0 562 0 l 24 0 m 286 66 q 431 47 371 47 q 575 76 509 47 q 691 158 642 105 q 768 288 740 212 q 795 458 795 363 q 768 629 795 553 q 691 758 741 705 q 574 840 642 811 q 425 868 506 868 q 360 863 395 868 q 286 848 326 858 l 286 66 z "},"E":{"ha":848,"x_min":28,"x_max":817,"o":"m 290 869 l 290 506 l 492 506 q 564 514 536 506 q 607 538 591 522 q 629 580 623 555 q 637 640 635 605 l 662 640 l 662 319 l 637 319 q 627 375 632 353 q 618 406 623 396 q 602 427 612 418 q 578 443 593 436 q 542 453 563 450 q 492 456 521 456 l 290 456 l 290 153 q 296 79 290 93 q 302 67 298 73 q 314 58 307 62 q 335 52 322 54 q 366 50 347 50 l 522 50 q 589 53 562 50 q 636 61 616 55 q 671 77 656 66 q 703 104 686 87 q 746 156 724 124 q 789 231 768 188 l 817 231 l 737 0 l 28 0 l 28 25 l 61 25 q 88 28 74 25 q 115 37 102 31 q 138 52 127 43 q 152 73 148 61 q 160 162 160 94 l 160 760 q 142 867 160 846 q 61 895 118 895 l 28 895 l 28 920 l 737 920 l 737 718 l 721 718 q 706 779 713 755 q 689 818 699 802 q 667 843 680 833 q 638 859 655 852 q 543 869 610 869 l 290 869 z "},"F":{"ha":772,"x_min":22,"x_max":707,"o":"m 284 869 l 284 508 l 452 508 q 502 513 481 508 q 536 533 522 519 q 559 572 551 547 q 572 634 567 596 l 597 634 l 597 323 l 572 323 q 565 382 571 357 q 545 422 559 406 q 509 445 532 437 q 452 452 486 452 l 284 452 l 284 163 q 286 110 284 130 q 291 77 287 90 q 302 56 294 64 q 321 41 309 48 q 384 25 351 25 l 417 25 l 417 0 l 22 0 l 22 25 l 55 25 q 138 58 113 25 q 154 163 154 79 l 154 757 q 153 810 154 789 q 148 843 151 830 q 137 864 144 857 q 117 878 130 871 q 55 895 87 895 l 22 895 l 22 920 l 707 920 l 707 718 l 692 718 q 662 797 678 767 q 621 843 645 827 q 564 864 597 859 q 487 869 532 869 l 284 869 z "},"G":{"ha":1003,"x_min":49,"x_max":983,"o":"m 852 941 l 876 650 l 852 650 q 760 814 817 758 q 549 893 677 893 q 281 754 373 893 q 205 475 205 637 q 256 235 205 343 q 309 148 278 186 q 379 82 340 109 q 463 40 418 55 q 558 25 508 25 q 656 38 609 25 q 748 76 703 51 l 748 342 q 745 398 748 377 q 738 433 743 420 q 724 452 732 446 q 705 465 715 459 q 627 476 683 476 l 627 502 l 983 502 l 983 476 l 966 476 q 927 471 943 476 q 900 452 911 466 q 885 411 890 437 q 880 342 880 385 l 880 60 q 802 23 840 39 q 725 -2 764 8 q 645 -16 686 -12 q 557 -21 604 -21 q 153 150 291 -21 q 49 446 49 278 q 58 539 49 492 q 85 631 68 587 q 129 717 103 676 q 186 793 155 758 q 341 905 254 869 q 536 941 429 941 q 591 938 568 941 q 637 931 615 936 q 685 917 660 926 q 743 897 709 909 q 794 882 781 882 q 816 894 807 882 q 827 941 825 906 l 852 941 z "},"H":{"ha":1003,"x_min":24,"x_max":975,"o":"m 286 493 l 713 493 l 713 756 q 711 809 713 789 q 706 843 710 829 q 695 864 703 856 q 675 878 688 871 q 614 895 646 895 l 581 895 l 581 920 l 975 920 l 975 895 l 942 895 q 915 892 929 895 q 888 883 901 889 q 865 868 875 877 q 850 846 855 859 q 843 756 843 823 l 843 163 q 844 110 843 130 q 849 76 846 90 q 860 56 853 63 q 880 41 867 48 q 942 25 909 25 l 975 25 l 975 0 l 581 0 l 581 25 l 614 25 q 696 58 669 25 q 713 163 713 79 l 713 443 l 286 443 l 286 163 q 287 110 286 130 q 292 77 288 90 q 303 56 296 64 q 323 41 311 48 q 385 25 352 25 l 418 25 l 418 0 l 24 0 l 24 25 l 56 25 q 139 58 114 25 q 155 163 155 79 l 155 756 q 154 809 155 789 q 149 843 153 829 q 138 864 145 856 q 119 878 131 871 q 56 895 89 895 l 24 895 l 24 920 l 418 920 l 418 895 l 385 895 q 357 892 371 895 q 331 883 343 889 q 308 868 318 877 q 294 846 298 859 q 286 756 286 824 l 286 493 z "},"I":{"ha":463,"x_min":35,"x_max":429,"o":"m 429 25 l 429 0 l 35 0 l 35 25 l 67 25 q 150 58 125 25 q 166 163 166 79 l 166 757 q 165 810 166 789 q 160 843 163 830 q 149 864 156 857 q 130 878 142 871 q 67 895 100 895 l 35 895 l 35 920 l 429 920 l 429 895 l 395 895 q 313 861 338 895 q 296 757 296 840 l 296 163 q 298 110 296 130 q 303 77 299 90 q 314 56 307 64 q 334 41 321 48 q 395 25 363 25 l 429 25 z "},"J":{"ha":541,"x_min":28,"x_max":532,"o":"m 138 895 l 138 920 l 532 920 l 532 895 l 499 895 q 417 861 442 895 q 401 757 401 840 l 401 307 q 378 139 401 202 q 347 78 366 107 q 300 27 327 50 q 239 -8 273 5 q 165 -21 205 -21 q 108 -12 134 -21 q 65 11 83 -3 q 38 44 47 25 q 28 83 28 62 q 35 115 28 102 q 51 138 41 129 q 73 150 60 146 q 98 154 85 154 q 117 152 108 154 q 136 141 126 150 q 156 114 146 132 q 180 64 167 96 q 220 27 195 27 q 238 32 229 27 q 255 50 248 37 q 266 81 262 62 q 271 129 271 100 l 271 757 q 269 810 271 789 q 264 843 268 830 q 253 864 260 856 q 233 878 245 871 q 172 895 203 895 l 138 895 z "},"K":{"ha":1003,"x_min":23,"x_max":1015,"o":"m 415 510 l 754 173 q 897 59 838 90 q 1015 25 956 29 l 1015 0 l 577 0 l 577 25 q 634 38 616 25 q 651 68 651 52 q 650 82 651 76 q 645 96 650 89 q 631 115 641 104 q 602 145 621 127 l 285 459 l 285 163 q 286 110 285 130 q 291 77 288 90 q 302 56 295 64 q 322 41 310 48 q 384 25 351 25 l 415 25 l 415 0 l 23 0 l 23 25 l 56 25 q 138 58 113 25 q 155 163 155 79 l 155 757 q 154 808 155 788 q 149 842 153 829 q 137 863 144 855 q 118 878 130 871 q 56 895 88 895 l 23 895 l 23 920 l 415 920 l 415 895 l 384 895 q 357 892 371 895 q 331 883 343 889 q 308 868 318 878 q 293 846 298 859 q 285 757 285 825 l 285 475 q 345 528 311 497 q 415 594 379 559 q 485 663 450 629 q 549 727 520 698 q 596 779 577 757 q 621 808 616 800 q 640 855 640 835 q 626 883 640 871 q 577 895 612 895 l 556 895 l 556 920 l 894 920 l 894 895 q 840 886 864 893 q 812 876 827 882 q 780 857 798 869 q 740 829 762 846 q 693 789 719 812 l 415 510 z "},"L":{"ha":848,"x_min":28,"x_max":819,"o":"m 796 254 l 819 250 l 740 0 l 28 0 l 28 25 l 62 25 q 146 63 120 25 q 160 163 160 84 l 160 757 q 141 865 160 844 q 62 895 115 895 l 28 895 l 28 920 l 444 920 l 444 895 q 382 891 407 895 q 341 881 357 888 q 316 865 326 874 q 301 845 307 856 q 290 741 290 824 l 290 163 q 292 123 290 140 q 298 95 294 106 q 309 76 302 83 q 326 65 315 69 q 432 58 342 58 l 499 58 q 648 74 604 58 q 688 94 669 81 q 725 129 707 107 q 761 180 743 150 q 796 254 778 211 z "},"M":{"ha":1235,"x_min":23,"x_max":1206,"o":"m 568 0 l 213 774 l 213 159 q 231 54 213 75 q 311 25 256 25 l 343 25 l 343 0 l 23 0 l 23 25 l 56 25 q 138 60 114 25 q 153 159 153 81 l 153 760 q 140 848 153 820 q 127 867 135 859 q 105 882 119 876 q 71 891 91 888 q 23 895 52 895 l 23 920 l 283 920 l 617 200 l 945 920 l 1206 920 l 1206 895 l 1174 895 q 1090 859 1115 895 q 1076 760 1076 838 l 1076 159 q 1095 54 1076 75 q 1174 25 1120 25 l 1206 25 l 1206 0 l 815 0 l 815 25 l 848 25 q 930 60 906 25 q 945 159 945 81 l 945 774 l 591 0 l 568 0 z "},"N":{"ha":1003,"x_min":-18,"x_max":983,"o":"m -18 920 l 231 920 l 793 230 l 793 760 q 774 866 793 845 q 695 895 749 895 l 663 895 l 663 920 l 983 920 l 983 895 l 951 895 q 868 859 892 895 q 853 760 853 838 l 853 -15 l 829 -15 l 222 726 l 222 159 q 241 54 222 75 q 320 25 266 25 l 353 25 l 353 0 l 33 0 l 33 25 l 64 25 q 148 60 123 25 q 163 159 163 81 l 163 799 q 129 837 142 823 q 103 860 115 851 q 77 875 91 869 q 41 888 62 881 q -18 895 22 895 l -18 920 z "},"O":{"ha":1003,"x_min":49,"x_max":949,"o":"m 508 941 q 818 804 686 941 q 949 465 949 669 q 817 117 949 256 q 497 -21 685 -21 q 178 114 307 -21 q 49 463 49 249 q 198 821 49 682 q 508 941 328 941 m 495 891 q 371 861 425 891 q 280 776 317 831 q 223 642 243 721 q 204 466 204 564 q 223 288 204 369 q 279 150 242 208 q 370 59 316 92 q 496 27 425 27 q 614 52 559 27 q 709 127 669 76 q 771 258 749 178 q 794 447 794 337 q 775 634 794 552 q 719 774 757 717 q 626 861 682 831 q 495 891 570 891 z "},"P":{"ha":772,"x_min":23,"x_max":724,"o":"m 285 431 l 285 163 q 304 55 285 76 q 382 25 330 25 l 417 25 l 417 0 l 23 0 l 23 25 l 58 25 q 107 35 86 25 q 141 63 129 44 q 155 163 155 85 l 155 757 q 136 865 155 843 q 58 895 110 895 l 23 895 l 23 920 l 360 920 q 555 894 483 920 q 621 859 590 881 q 674 808 651 838 q 710 743 697 779 q 724 665 724 707 q 705 563 724 609 q 649 483 686 516 q 560 430 613 449 q 439 412 507 412 q 285 431 372 412 m 285 469 q 349 459 321 463 q 396 456 376 456 q 463 470 431 456 q 518 511 494 485 q 555 573 541 537 q 569 652 569 609 q 554 742 569 702 q 513 809 539 781 q 451 850 486 836 q 374 865 415 865 q 334 862 356 865 q 285 852 312 859 l 285 469 z "},"Q":{"ha":1003,"x_min":49,"x_max":950,"o":"m 612 -10 q 761 -186 682 -131 q 944 -250 842 -242 l 944 -272 q 744 -234 852 -269 q 542 -139 639 -201 q 378 -10 448 -79 q 223 73 280 29 q 94 235 139 139 q 49 462 49 330 q 182 804 49 667 q 506 941 315 941 q 818 804 687 941 q 917 649 884 734 q 950 459 950 564 q 856 163 950 290 q 612 -10 762 35 m 498 888 q 373 860 428 888 q 281 777 319 831 q 224 643 243 722 q 204 462 204 564 q 223 286 204 366 q 279 148 242 205 q 371 57 316 90 q 498 25 426 25 q 623 53 568 25 q 716 135 677 81 q 774 266 754 189 q 795 442 795 344 q 773 635 795 552 q 713 775 752 719 q 619 860 673 831 q 498 888 564 888 z "},"R":{"ha":926,"x_min":24,"x_max":939,"o":"m 939 0 l 693 0 l 382 430 q 350 429 364 429 q 326 429 336 429 q 307 429 317 429 q 286 430 296 429 l 286 163 q 304 55 286 76 q 382 25 330 25 l 418 25 l 418 0 l 24 0 l 24 25 l 58 25 q 142 63 116 25 q 156 163 156 84 l 156 757 q 137 865 156 844 q 58 895 111 895 l 24 895 l 24 920 l 359 920 q 574 898 504 920 q 639 867 609 888 q 692 819 669 847 q 728 757 715 791 q 741 683 741 722 q 728 603 741 640 q 686 536 714 566 q 615 483 658 505 q 515 448 572 460 l 705 184 q 817 63 770 92 q 939 25 864 33 l 939 0 m 286 473 q 308 472 298 473 q 323 472 317 472 q 439 487 389 472 q 522 530 489 503 q 572 594 555 557 q 589 674 589 631 q 574 752 589 717 q 534 814 560 788 q 472 854 508 840 q 392 868 435 868 q 346 865 372 868 q 286 855 319 862 l 286 473 z "},"S":{"ha":772,"x_min":87,"x_max":698,"o":"m 637 941 l 637 623 l 612 623 q 568 768 600 714 q 529 817 552 795 q 478 854 505 839 q 419 878 450 869 q 357 886 389 886 q 293 874 323 886 q 241 843 263 863 q 207 798 219 823 q 195 745 195 772 q 212 679 195 707 q 261 627 230 651 q 333 581 292 604 q 424 533 375 559 q 528 476 479 504 q 615 415 578 448 q 675 338 653 381 q 698 235 698 295 q 676 137 698 183 q 617 55 655 90 q 525 0 578 20 q 408 -21 472 -21 q 368 -20 385 -21 q 335 -17 351 -20 q 303 -10 319 -15 q 263 4 286 -5 q 230 15 247 10 q 199 24 213 20 q 175 29 184 27 q 162 31 165 31 q 135 21 145 31 q 121 -21 125 11 l 96 -21 l 96 294 l 121 294 q 141 208 130 245 q 168 146 153 171 q 207 100 183 121 q 260 64 231 79 q 324 40 290 49 q 394 32 358 32 q 471 44 437 32 q 528 77 505 56 q 565 125 552 98 q 577 182 577 153 q 559 257 577 227 q 510 311 541 287 q 438 356 479 334 q 351 405 397 378 q 252 463 300 435 q 168 523 204 490 q 109 598 131 556 q 87 699 87 640 q 107 791 87 747 q 163 869 127 836 q 249 921 199 902 q 356 941 298 941 q 511 905 428 941 q 565 888 548 888 q 594 898 583 888 q 612 941 605 909 l 637 941 z "},"T":{"ha":848,"x_min":42,"x_max":804,"o":"m 804 920 l 804 704 l 788 704 q 770 778 783 747 q 737 826 758 808 q 688 853 717 845 q 620 862 659 862 l 490 862 l 490 159 q 509 54 490 75 q 588 25 534 25 l 620 25 l 620 0 l 230 0 l 230 25 l 262 25 q 345 60 321 25 q 360 159 360 81 l 360 862 l 250 862 q 176 856 208 862 q 123 833 145 850 q 88 785 102 816 q 68 704 75 753 l 42 704 l 42 920 l 804 920 z "},"U":{"ha":1003,"x_min":7,"x_max":988,"o":"m 663 895 l 663 920 l 988 920 l 988 895 l 954 895 q 870 849 899 895 q 856 751 856 827 l 856 378 q 828 163 856 241 q 778 79 810 114 q 703 22 745 44 q 609 -11 660 -1 q 502 -22 557 -22 q 273 31 352 -22 q 197 99 224 63 q 158 179 170 136 q 143 276 145 223 q 141 397 141 330 l 141 757 q 135 827 141 800 q 117 869 130 854 q 86 889 105 884 q 42 895 68 895 l 7 895 l 7 920 l 405 920 l 405 895 l 370 895 q 317 885 337 895 q 288 859 298 876 q 274 815 277 841 q 271 757 271 789 l 271 356 q 273 289 271 322 q 281 225 275 256 q 298 166 288 194 q 326 116 309 139 q 396 58 352 79 q 510 37 441 37 q 596 47 555 37 q 671 76 637 58 q 730 120 705 95 q 768 176 755 146 q 795 385 795 238 l 795 757 q 776 865 795 844 q 697 895 749 895 l 663 895 z "},"V":{"ha":1003,"x_min":12,"x_max":986,"o":"m 986 920 l 986 895 q 936 879 957 889 q 900 852 916 869 q 872 813 884 836 q 848 762 861 791 l 528 -21 l 503 -21 l 158 772 q 121 846 131 834 q 79 879 104 867 q 12 895 55 891 l 12 920 l 388 920 l 388 895 q 335 886 355 891 q 304 872 315 880 q 290 855 294 865 q 286 833 286 845 q 317 727 286 798 l 551 188 l 768 720 q 800 829 800 800 q 778 869 800 850 q 703 895 756 888 l 703 920 l 986 920 z "},"W":{"ha":1311,"x_min":18,"x_max":1300,"o":"m 1300 920 l 1300 895 q 1267 891 1282 895 q 1241 881 1253 888 q 1219 863 1230 874 q 1199 833 1209 851 q 1156 720 1186 810 l 900 -21 l 873 -21 l 663 567 l 455 -21 l 431 -21 l 157 743 q 119 844 126 829 q 82 882 105 869 q 18 895 59 895 l 18 920 l 359 920 l 359 895 l 342 895 q 287 878 306 895 q 269 839 269 862 q 276 800 269 827 q 298 730 283 772 l 479 214 l 632 652 l 583 791 q 561 836 572 817 q 535 868 550 854 q 502 888 521 881 q 455 895 482 895 l 455 920 l 813 920 l 813 895 l 789 895 q 733 879 750 895 q 715 834 715 863 q 746 713 715 800 l 922 214 l 1097 720 q 1127 837 1127 806 q 1099 882 1127 869 q 1025 895 1070 895 l 1025 920 l 1300 920 z "},"X":{"ha":1003,"x_min":10,"x_max":987,"o":"m 567 509 l 764 215 q 836 115 806 153 q 886 60 866 77 q 987 25 925 28 l 987 0 l 592 0 l 592 25 q 661 39 639 26 q 683 77 683 52 q 683 91 683 86 q 680 104 684 96 q 667 127 676 113 q 640 168 658 141 l 484 404 l 291 157 q 266 125 275 137 q 254 104 258 113 q 249 91 250 96 q 248 77 248 85 q 252 57 248 66 q 267 41 256 48 q 294 30 277 35 q 336 25 311 26 l 336 0 l 10 0 l 10 25 q 86 45 53 28 q 150 87 119 62 q 237 178 189 117 l 454 452 l 273 718 q 147 859 198 825 q 28 895 95 892 l 28 920 l 454 920 l 454 895 q 408 888 427 893 q 379 877 390 884 q 364 861 368 869 q 359 842 359 852 q 392 769 359 817 l 533 558 l 696 765 q 720 795 711 784 q 732 815 728 807 q 737 829 736 823 q 738 843 738 836 q 728 871 738 859 q 704 888 718 883 q 680 892 696 890 q 640 895 664 894 l 640 920 l 966 920 l 966 895 q 924 889 943 893 q 891 878 906 884 q 862 861 876 871 q 836 840 848 852 q 749 743 806 814 l 567 509 z "},"Y":{"ha":1003,"x_min":13,"x_max":983,"o":"m 662 920 l 983 920 l 983 895 l 965 895 q 943 890 957 895 q 913 879 929 886 q 882 860 898 871 q 852 834 865 848 q 821 795 838 819 q 783 739 804 772 l 562 390 l 562 159 q 581 54 562 75 q 662 25 606 25 l 692 25 l 692 0 l 301 0 l 301 25 l 334 25 q 416 60 392 25 q 431 159 431 81 l 431 377 l 179 762 q 141 818 157 797 q 118 847 126 838 q 104 859 114 851 q 81 875 95 867 q 49 889 66 883 q 13 895 32 895 l 13 920 l 406 920 l 406 895 l 386 895 q 356 891 371 895 q 328 880 340 888 q 308 862 316 873 q 300 835 300 850 q 342 747 300 810 l 534 450 l 714 734 q 755 829 755 798 q 749 855 753 843 q 734 876 744 867 q 706 890 724 885 q 662 895 688 895 l 662 920 z "},"Z":{"ha":848,"x_min":18,"x_max":810,"o":"m 799 920 l 195 56 l 572 56 q 705 94 659 56 q 787 248 751 132 l 810 243 l 766 0 l 18 0 l 18 25 l 608 865 l 313 865 q 251 861 277 865 q 208 849 226 857 q 177 829 189 841 q 157 802 165 818 q 125 690 140 774 l 100 690 l 119 920 l 799 920 z "},"[":{"ha":463,"x_min":114,"x_max":412,"o":"m 412 -275 l 114 -275 l 114 941 l 412 941 l 412 887 l 216 887 l 216 -222 l 412 -222 l 412 -275 z "},"\\":{"ha":386,"x_min":2,"x_max":389,"o":"m 56 964 l 389 -19 l 334 -19 l 2 964 l 56 964 z "},"]":{"ha":463,"x_min":51,"x_max":349,"o":"m 51 941 l 349 941 l 349 -276 l 51 -276 l 51 -222 l 248 -222 l 248 887 l 51 887 l 51 941 z "},"^":{"ha":652,"x_min":25,"x_max":626,"o":"m 338 939 l 626 452 l 564 452 l 326 850 l 89 452 l 25 452 l 317 939 l 338 939 z "},"_":{"ha":694,"x_min":-12,"x_max":707,"o":"m 707 -300 l -12 -300 l -12 -243 l 707 -243 l 707 -300 z "},"`":{"ha":463,"x_min":80,"x_max":303,"o":"m 80 943 l 231 943 l 303 709 l 279 709 l 80 943 z "},"a":{"ha":616,"x_min":50,"x_max":614,"o":"m 395 90 q 275 4 300 15 q 197 -13 239 -13 q 138 -1 165 -13 q 92 31 111 10 q 61 82 72 52 q 50 147 50 111 q 57 196 50 174 q 78 238 64 218 q 114 277 92 258 q 166 313 136 295 q 395 412 236 354 l 395 436 q 388 514 395 483 q 365 564 380 545 q 329 590 351 583 q 280 598 307 598 q 241 592 258 598 q 212 575 224 585 q 193 550 199 564 q 186 522 186 536 l 188 483 q 172 435 188 452 q 130 418 156 418 q 89 435 105 418 q 73 484 73 453 q 89 540 73 512 q 133 590 104 568 q 204 626 161 612 q 300 640 246 640 q 422 618 372 640 q 495 546 473 597 q 507 427 507 516 l 507 216 q 508 144 507 171 q 511 106 509 117 q 522 80 514 87 q 540 73 530 73 q 553 75 547 73 q 567 83 559 77 q 586 100 575 90 q 614 127 597 111 l 614 90 q 469 -12 537 -12 q 416 11 436 -12 q 395 90 395 34 m 395 134 l 395 370 q 311 336 344 350 q 263 313 278 321 q 186 250 210 282 q 163 179 163 218 q 171 134 163 155 q 192 98 179 113 q 223 74 205 83 q 260 66 241 66 q 395 134 311 66 z "},"b":{"ha":694,"x_min":-3,"x_max":646,"o":"m 214 514 q 408 640 304 640 q 498 618 455 640 q 574 558 541 597 q 627 462 607 518 q 646 334 646 406 q 536 68 646 168 q 326 -19 441 -19 q 102 60 219 -19 l 102 703 q 96 833 102 808 q 81 867 92 858 q 54 876 70 876 q 6 865 34 876 l -3 888 l 183 964 l 214 964 l 214 514 m 214 471 l 214 99 q 361 31 283 31 q 421 48 391 31 q 475 99 451 65 q 514 182 499 132 q 529 296 529 231 q 514 401 529 355 q 475 478 500 447 q 419 527 451 510 q 355 543 388 543 q 323 541 338 543 q 291 530 307 538 q 256 508 275 522 q 214 471 237 494 z "},"c":{"ha":616,"x_min":47,"x_max":571,"o":"m 571 236 q 532 127 558 174 q 472 47 507 79 q 396 -2 437 14 q 311 -19 355 -19 q 211 4 258 -19 q 127 70 163 27 q 69 173 91 113 q 47 310 47 234 q 71 444 47 383 q 135 548 95 505 q 230 615 176 591 q 344 640 283 640 q 428 626 389 640 q 494 591 466 612 q 537 543 522 569 q 553 490 553 516 q 537 449 553 465 q 490 433 521 433 q 461 436 475 433 q 438 448 448 439 q 422 473 429 457 q 414 513 416 488 q 388 573 411 553 q 321 594 364 594 q 251 576 281 594 q 199 527 220 558 q 168 455 178 496 q 157 368 157 414 q 171 263 157 314 q 211 174 185 213 q 275 111 237 134 q 359 87 312 87 q 414 94 388 87 q 463 119 439 101 q 509 167 487 136 q 551 245 531 198 l 571 236 z "},"d":{"ha":694,"x_min":46,"x_max":698,"o":"m 482 70 q 394 2 437 22 q 300 -19 351 -19 q 203 4 249 -19 q 122 67 157 26 q 67 163 87 107 q 46 285 46 218 q 130 529 46 418 q 347 640 215 640 q 482 588 428 640 l 482 791 q 483 818 482 804 q 481 846 484 833 q 467 867 477 859 q 434 876 457 876 q 387 865 416 876 l 378 888 l 564 964 l 594 964 l 594 246 q 599 113 594 136 q 615 79 604 89 q 642 70 627 70 q 690 81 659 70 l 698 58 l 513 -19 l 482 -19 l 482 70 m 482 117 l 482 437 q 465 506 479 476 q 431 556 451 536 q 387 588 411 577 q 338 598 363 598 q 272 579 302 598 q 219 527 241 561 q 183 445 196 492 q 170 338 170 397 q 187 217 170 270 q 231 128 203 164 q 292 74 258 92 q 363 56 327 56 q 482 117 425 56 z "},"e":{"ha":616,"x_min":52,"x_max":577,"o":"m 148 387 q 166 263 148 318 q 216 170 184 208 q 288 112 247 132 q 374 92 329 92 q 480 125 435 92 q 556 240 526 159 l 577 227 q 549 137 570 181 q 495 58 528 93 q 418 2 462 24 q 323 -19 374 -19 q 218 4 267 -19 q 132 68 169 26 q 73 169 95 110 q 52 302 52 229 q 74 446 52 383 q 134 552 96 509 q 225 618 173 595 q 338 640 278 640 q 434 622 390 640 q 509 571 477 604 q 559 491 541 538 q 577 387 577 445 l 148 387 m 148 427 l 435 427 q 421 511 433 486 q 371 570 404 549 q 300 592 337 592 q 247 581 273 592 q 200 548 221 570 q 165 496 179 527 q 148 427 151 466 z "},"f":{"ha":463,"x_min":54,"x_max":604,"o":"m 286 572 l 286 164 q 305 54 286 77 q 372 24 331 24 l 429 24 l 429 0 l 58 0 l 58 24 l 85 24 q 135 38 113 24 q 165 75 157 51 q 174 164 174 97 l 174 572 l 54 572 l 54 621 l 174 621 l 174 662 q 204 819 174 754 q 242 878 219 851 q 296 923 266 904 q 360 952 326 942 q 433 963 395 963 q 490 954 460 963 q 545 930 519 945 q 587 894 570 915 q 604 848 604 873 q 599 828 604 838 q 586 810 594 819 q 568 797 578 802 q 548 792 558 792 q 532 794 540 792 q 515 803 524 796 q 496 821 507 809 q 473 851 486 832 q 449 882 460 870 q 426 902 437 895 q 404 911 415 909 q 380 914 393 914 q 327 898 349 914 q 296 846 305 881 q 286 666 286 810 l 286 621 l 446 621 l 446 572 l 286 572 z "},"g":{"ha":694,"x_min":41,"x_max":669,"o":"m 210 227 q 122 304 152 255 q 92 414 92 353 q 110 502 92 460 q 161 573 128 543 q 240 622 195 604 q 339 640 285 640 q 493 596 429 640 l 625 596 q 647 596 640 596 q 659 594 655 595 q 663 592 663 593 q 665 589 664 591 q 669 567 669 583 q 669 550 669 557 q 665 541 669 544 q 652 536 661 537 q 625 535 643 535 l 544 535 q 582 410 582 486 q 565 329 582 368 q 515 262 547 291 q 438 217 484 234 q 337 200 393 200 q 243 214 292 200 q 202 169 212 188 q 192 136 192 149 q 196 118 192 125 q 215 105 200 111 q 260 97 231 100 q 342 93 290 94 q 457 89 412 91 q 523 83 502 87 q 580 67 554 79 q 624 37 606 55 q 651 -5 642 18 q 661 -57 661 -29 q 589 -201 661 -134 q 313 -300 483 -300 q 218 -290 267 -300 q 131 -262 170 -279 q 66 -221 92 -245 q 41 -170 41 -197 q 44 -150 41 -160 q 54 -127 47 -139 q 71 -101 60 -115 q 96 -68 81 -87 q 165 5 101 -62 q 116 43 130 26 q 101 81 101 60 q 104 106 101 93 q 119 136 108 119 q 152 175 131 153 q 210 227 174 197 m 328 607 q 281 597 303 607 q 244 567 260 587 q 219 516 228 547 q 210 444 210 486 q 219 359 210 398 q 245 293 228 321 q 288 249 263 264 q 345 233 313 233 q 393 243 371 233 q 430 272 414 252 q 454 322 446 292 q 463 393 463 352 q 454 478 463 439 q 428 546 445 517 q 385 591 410 574 q 328 607 360 607 m 203 0 q 138 -119 138 -70 q 157 -160 138 -142 q 208 -191 176 -178 q 282 -211 239 -204 q 374 -218 326 -218 q 480 -206 435 -218 q 554 -175 525 -194 q 597 -131 583 -155 q 612 -83 612 -107 q 604 -54 612 -66 q 577 -34 597 -41 q 524 -21 558 -26 q 437 -16 490 -17 q 302 -9 361 -14 q 203 0 244 -5 z "},"h":{"ha":694,"x_min":9,"x_max":686,"o":"m 226 964 l 226 510 q 269 554 248 531 q 315 596 290 577 q 368 627 339 615 q 433 640 397 640 q 514 618 483 640 q 563 561 545 597 q 587 480 581 526 q 593 387 593 435 l 593 140 q 594 88 593 109 q 604 53 595 66 q 631 33 612 40 q 686 24 650 26 l 686 0 l 380 0 l 380 24 l 395 24 q 442 30 425 24 q 468 48 459 35 q 479 84 477 62 q 481 140 481 106 l 481 387 q 480 446 481 416 q 470 501 479 476 q 440 542 461 526 q 381 557 420 557 q 347 554 364 557 q 312 540 330 550 q 272 513 293 530 q 226 469 251 496 l 226 140 q 227 89 226 107 q 232 60 229 70 q 242 45 236 50 q 259 35 249 40 q 286 27 269 29 q 326 24 302 24 l 326 0 l 18 0 l 18 24 q 62 27 44 24 q 92 42 80 31 q 108 77 103 54 q 113 140 113 100 l 113 703 q 108 833 113 808 q 93 867 103 858 q 64 876 82 876 q 18 865 49 876 l 9 888 l 195 964 l 226 964 z "},"i":{"ha":386,"x_min":41,"x_max":352,"o":"m 201 964 q 228 959 216 964 q 250 944 241 954 q 264 923 259 935 q 270 896 270 910 q 264 869 270 882 q 250 847 259 857 q 228 832 241 838 q 201 827 216 827 q 175 832 187 827 q 153 847 162 838 q 138 869 143 857 q 132 896 132 882 q 138 923 132 910 q 152 944 143 935 q 174 959 161 954 q 201 964 187 964 m 258 640 l 258 140 q 260 92 258 111 q 266 62 262 73 q 276 44 270 50 q 291 34 283 39 q 352 24 309 24 l 352 0 l 50 0 l 50 24 q 88 26 73 24 q 112 33 102 28 q 126 45 121 38 q 136 62 131 52 q 145 140 145 83 l 145 380 q 143 473 145 439 q 136 524 141 507 q 121 545 131 541 q 96 549 111 549 q 50 539 77 549 l 41 564 l 228 640 l 258 640 z "},"j":{"ha":386,"x_min":-106,"x_max":271,"o":"m 201 965 q 228 960 215 965 q 250 945 241 954 q 265 922 260 935 q 271 895 271 909 q 265 868 271 881 q 250 846 260 856 q 228 831 241 837 q 201 826 215 826 q 174 831 186 826 q 152 846 161 837 q 137 868 142 856 q 132 895 132 881 q 137 922 132 909 q 152 945 142 935 q 174 960 161 954 q 201 965 186 965 m 259 640 l 259 14 q 241 -125 259 -66 q 191 -223 223 -184 q 113 -281 158 -262 q 15 -300 68 -300 q -40 -293 -17 -300 q -77 -277 -62 -287 q -99 -255 -92 -267 q -106 -231 -106 -243 q -102 -209 -106 -219 q -90 -190 -98 -198 q -72 -178 -82 -182 q -51 -174 -62 -174 q -36 -174 -43 -174 q -22 -178 -30 -174 q -2 -191 -14 -182 q 29 -216 10 -199 q 85 -246 62 -246 q 116 -234 100 -246 q 140 -191 132 -222 q 145 -145 143 -176 q 147 -64 147 -113 l 147 378 q 145 473 147 439 q 138 524 143 507 q 123 545 132 541 q 98 549 113 549 q 52 539 79 549 l 43 564 l 230 640 l 259 640 z "},"k":{"ha":694,"x_min":12,"x_max":703,"o":"m 227 964 l 227 348 l 385 490 q 420 522 407 510 q 439 542 433 534 q 447 555 446 550 q 449 565 449 559 q 438 588 449 578 q 401 600 427 598 l 401 621 l 671 621 l 671 600 q 620 595 642 599 q 578 583 598 591 q 539 561 558 575 q 497 527 519 547 l 338 380 l 497 178 q 587 73 563 95 q 613 48 602 58 q 636 34 624 39 q 663 26 648 28 q 703 24 678 24 l 703 0 l 401 0 l 401 24 q 436 32 427 25 q 445 52 445 39 q 418 102 445 68 l 227 344 l 227 140 q 229 90 227 109 q 235 59 231 71 q 245 43 239 48 q 260 33 252 37 q 328 24 274 26 l 328 0 l 12 0 l 12 24 q 63 28 43 24 q 95 44 83 33 q 111 78 106 56 q 115 136 115 100 l 115 702 q 114 789 115 756 q 110 833 113 822 q 94 867 104 858 q 66 876 83 876 q 23 865 52 876 l 12 888 l 196 964 l 227 964 z "},"l":{"ha":386,"x_min":41,"x_max":357,"o":"m 257 964 l 257 140 q 259 92 257 111 q 265 62 261 73 q 276 45 269 51 q 292 34 282 39 q 357 24 308 24 l 357 0 l 53 0 l 53 24 q 101 29 83 24 q 129 47 119 34 q 142 82 139 60 q 144 140 144 104 l 144 705 q 143 790 144 758 q 140 833 142 822 q 124 867 134 858 q 98 876 114 876 q 53 865 79 876 l 41 888 l 227 964 l 257 964 z "},"m":{"ha":1080,"x_min":12,"x_max":1074,"o":"m 228 507 q 308 585 296 575 q 374 625 338 611 q 444 640 409 640 q 544 606 503 640 q 600 507 586 572 q 718 614 670 588 q 817 640 766 640 q 881 628 851 640 q 933 590 911 616 q 968 518 955 563 q 981 408 981 473 l 981 140 q 982 88 981 110 q 993 52 984 66 q 1021 31 1002 37 q 1074 24 1040 24 l 1074 0 l 768 0 l 768 24 l 781 24 q 836 35 814 24 q 865 75 857 46 q 868 140 868 85 l 868 408 q 861 481 868 452 q 841 527 854 510 q 809 551 828 545 q 765 558 790 558 q 729 554 747 558 q 693 540 712 550 q 652 513 674 530 q 604 471 630 496 l 605 140 q 606 89 605 107 q 611 60 608 70 q 622 45 615 50 q 639 35 629 41 q 665 27 648 29 q 706 24 682 24 l 706 0 l 392 0 l 392 24 q 449 30 429 24 q 479 48 470 35 q 491 83 489 61 q 493 140 493 106 l 493 408 q 485 480 493 451 q 463 527 477 509 q 430 552 449 545 q 387 560 410 560 q 341 552 365 560 q 296 531 317 543 q 257 503 275 518 q 228 473 239 488 l 228 140 q 230 90 228 109 q 236 60 232 71 q 247 43 240 49 q 261 33 253 38 q 329 24 278 24 l 329 0 l 22 0 l 22 24 q 72 29 53 24 q 100 46 90 34 q 113 82 110 59 q 116 140 116 104 l 116 378 q 114 472 116 438 q 106 524 112 507 q 92 545 101 541 q 67 549 82 549 q 22 539 48 549 l 12 564 l 199 640 l 228 640 l 228 507 z "},"n":{"ha":694,"x_min":8,"x_max":688,"o":"m 224 508 q 433 640 334 640 q 496 628 467 640 q 547 589 526 616 q 581 517 569 562 q 593 406 593 473 l 593 140 q 598 77 593 100 q 613 42 602 54 q 642 27 624 31 q 688 24 661 24 l 688 0 l 381 0 l 381 24 l 394 24 q 442 30 425 24 q 468 48 459 35 q 479 84 477 62 q 481 140 481 106 l 481 395 q 459 518 481 479 q 385 556 437 556 q 224 468 304 556 l 224 140 q 232 62 224 79 q 242 45 237 52 q 258 33 248 37 q 284 26 268 28 q 326 24 300 24 l 326 0 l 18 0 l 18 24 l 32 24 q 72 30 56 24 q 97 49 87 35 q 109 84 106 62 q 113 140 113 106 l 113 371 q 107 507 113 481 q 92 541 102 532 q 64 549 81 549 q 18 539 45 549 l 8 564 l 195 640 l 224 640 l 224 508 z "},"o":{"ha":694,"x_min":47,"x_max":646,"o":"m 347 640 q 468 614 413 640 q 563 545 523 588 q 624 444 602 501 q 646 322 646 386 q 624 194 646 255 q 560 85 601 132 q 463 9 519 37 q 340 -19 407 -19 q 220 8 274 -19 q 127 80 166 35 q 68 184 89 125 q 47 304 47 242 q 68 428 47 368 q 130 535 90 488 q 225 611 170 583 q 347 640 280 640 m 326 595 q 269 583 296 595 q 220 542 241 570 q 186 470 199 514 q 173 361 173 425 q 187 235 173 296 q 226 129 201 175 q 288 56 252 83 q 369 29 324 29 q 429 42 401 29 q 477 82 456 54 q 509 157 497 111 q 520 270 520 203 q 507 396 520 337 q 470 499 494 455 q 409 570 445 544 q 326 595 372 595 z "},"p":{"ha":694,"x_min":-5,"x_max":647,"o":"m -1 559 l 190 637 l 216 637 l 216 492 q 264 561 240 532 q 313 607 288 589 q 362 632 337 624 q 414 640 388 640 q 510 615 467 640 q 584 549 553 591 q 630 452 614 507 q 647 333 647 396 q 627 198 647 262 q 570 86 607 134 q 481 9 533 38 q 363 -19 429 -19 q 322 -17 341 -19 q 286 -9 303 -15 q 252 8 269 -3 q 216 36 235 18 l 216 -153 q 217 -206 216 -186 q 223 -236 219 -225 q 234 -252 227 -246 q 250 -262 241 -257 q 321 -272 269 -272 l 321 -297 l -5 -297 l -5 -272 l 12 -272 q 62 -264 39 -272 q 96 -233 85 -257 q 103 -149 103 -216 l 103 438 q 101 495 103 474 q 92 528 98 517 q 75 544 86 540 q 48 547 64 547 q 7 538 33 547 l -1 559 m 216 452 l 216 220 q 222 121 216 144 q 238 83 227 101 q 269 52 250 65 q 310 30 287 38 q 361 22 334 22 q 432 40 401 22 q 484 92 463 59 q 515 170 505 125 q 526 269 526 216 q 514 377 526 328 q 481 464 503 427 q 429 520 459 500 q 361 541 398 541 q 328 536 344 541 q 296 519 313 530 q 259 491 279 508 q 216 452 240 474 z "},"q":{"ha":694,"x_min":46,"x_max":694,"o":"m 593 640 l 593 -159 q 595 -208 593 -190 q 602 -237 597 -227 q 612 -253 606 -248 q 627 -262 618 -258 q 694 -272 644 -272 l 694 -297 l 381 -297 l 381 -272 l 394 -272 q 434 -269 417 -272 q 461 -255 450 -266 q 477 -221 472 -243 q 481 -159 481 -198 l 481 108 q 374 7 420 35 q 278 -19 328 -19 q 192 2 233 -19 q 118 63 150 24 q 66 158 85 102 q 46 283 46 214 q 72 427 46 361 q 140 540 97 493 q 242 613 184 587 q 366 640 300 640 q 495 596 444 640 q 534 616 515 606 q 570 640 553 627 l 593 640 m 481 151 l 481 442 q 474 502 481 475 q 449 550 466 530 q 407 581 433 570 q 345 592 380 592 q 274 576 307 592 q 215 528 240 560 q 175 447 190 496 q 160 332 160 398 q 175 221 160 269 q 216 141 190 173 q 276 93 241 109 q 349 77 310 77 q 420 94 389 77 q 481 151 451 111 z "},"r":{"ha":463,"x_min":9,"x_max":471,"o":"m 225 640 l 225 500 q 385 640 304 640 q 419 633 404 640 q 447 617 435 627 q 465 593 458 606 q 471 564 471 579 q 454 519 471 538 q 412 501 436 501 q 386 509 400 501 q 358 525 372 516 q 332 541 344 533 q 315 548 321 548 q 295 540 306 548 q 273 518 284 532 q 249 485 261 505 q 225 443 237 466 l 225 145 q 229 95 225 117 q 243 57 232 73 q 276 33 254 41 q 334 24 298 24 l 334 0 l 16 0 l 16 24 q 64 28 45 24 q 94 45 83 33 q 109 80 105 57 q 113 140 113 102 l 113 380 q 109 509 113 490 q 63 549 100 549 q 16 539 42 549 l 9 564 l 197 640 l 225 640 z "},"s":{"ha":541,"x_min":68,"x_max":492,"o":"m 445 640 l 445 428 l 422 428 q 393 511 410 478 q 356 564 377 544 q 310 591 336 583 q 254 600 285 600 q 211 592 230 600 q 177 574 191 585 q 156 548 163 563 q 148 519 148 534 q 153 484 148 500 q 176 450 159 467 q 225 413 193 433 q 312 367 258 393 q 396 319 362 342 q 452 271 431 295 q 483 222 473 248 q 492 170 492 197 q 474 92 492 127 q 427 33 456 57 q 360 -5 397 8 q 284 -19 323 -19 q 223 -14 256 -19 q 154 1 191 -9 q 134 6 142 5 q 117 8 125 8 q 93 -9 102 8 l 71 -9 l 71 212 l 93 212 q 121 129 102 165 q 166 69 140 93 q 222 33 191 45 q 286 21 253 21 q 328 28 309 21 q 361 48 347 36 q 384 78 376 61 q 391 115 391 95 q 385 156 391 138 q 359 193 378 175 q 309 230 341 210 q 227 274 277 249 q 146 319 177 298 q 98 362 115 340 q 74 407 80 383 q 68 460 68 430 q 82 531 68 498 q 121 588 96 564 q 180 626 146 612 q 256 640 215 640 q 290 635 269 640 q 331 627 310 631 q 368 618 351 622 q 391 614 385 614 q 408 618 402 614 q 422 640 414 623 l 445 640 z "},"t":{"ha":386,"x_min":14,"x_max":388,"o":"m 224 825 l 224 621 l 369 621 l 369 574 l 224 574 l 224 171 q 229 120 224 140 q 241 89 233 100 q 261 73 250 77 q 286 68 272 68 q 329 82 308 68 q 361 123 350 96 l 388 123 q 358 65 376 90 q 321 23 341 40 q 277 -2 300 7 q 231 -10 254 -10 q 200 -6 216 -10 q 170 7 184 -1 q 144 28 156 16 q 126 56 133 40 q 112 156 112 89 l 112 574 l 14 574 l 14 596 q 90 647 51 611 q 159 731 129 682 q 178 767 167 744 q 203 825 189 791 l 224 825 z "},"u":{"ha":694,"x_min":1,"x_max":692,"o":"m 588 621 l 588 245 q 593 113 588 136 q 609 79 598 89 q 635 70 621 70 q 683 81 656 70 l 692 58 l 507 -19 l 476 -19 l 476 113 q 354 3 395 26 q 265 -19 312 -19 q 175 11 213 -19 q 121 89 137 40 q 106 223 106 136 l 106 500 q 101 550 106 531 q 85 579 96 569 q 55 593 73 589 q 9 596 36 596 l 1 596 l 1 621 l 219 621 l 219 205 q 228 133 219 161 q 250 90 236 105 q 283 70 264 75 q 322 64 302 64 q 353 68 336 64 q 388 83 370 73 q 429 110 407 93 q 476 153 450 127 l 476 505 q 472 548 476 531 q 457 576 468 566 q 426 591 446 587 q 376 596 407 595 l 376 621 l 588 621 z "},"v":{"ha":694,"x_min":12,"x_max":682,"o":"m 12 621 l 304 621 l 304 596 l 285 596 q 244 583 258 596 q 231 549 231 570 q 245 492 231 525 l 389 149 l 534 505 q 550 563 550 544 q 533 589 550 583 q 479 596 517 596 l 479 621 l 682 621 l 682 596 q 646 589 660 594 q 623 573 632 583 q 606 548 613 563 q 590 514 598 534 l 370 -19 l 342 -19 l 120 505 q 101 546 110 530 q 80 572 92 562 q 52 587 68 582 q 12 596 36 593 l 12 621 z "},"w":{"ha":1003,"x_min":9,"x_max":990,"o":"m 9 621 l 269 621 l 269 596 q 222 583 233 593 q 211 554 211 573 q 222 503 211 534 l 355 146 l 489 437 l 454 528 q 440 558 447 545 q 422 578 433 570 q 395 591 411 587 q 355 596 379 595 l 355 621 l 651 621 l 651 596 q 589 583 610 594 q 568 544 568 572 q 574 516 568 529 l 715 159 l 846 503 q 859 562 859 540 q 846 585 859 574 q 794 596 833 595 l 794 621 l 990 621 l 990 596 q 903 516 930 587 l 696 -19 l 668 -19 l 513 378 l 332 -19 l 307 -19 l 107 503 q 89 544 98 528 q 68 570 79 560 q 43 586 58 580 q 9 596 29 591 l 9 621 z "},"x":{"ha":694,"x_min":18,"x_max":677,"o":"m 18 621 l 311 621 l 311 596 q 271 587 282 596 q 260 562 260 577 q 263 548 260 555 q 272 531 266 541 q 286 509 277 522 q 307 477 295 496 l 351 407 l 401 477 q 450 562 450 545 q 439 586 450 576 q 401 596 427 596 l 401 621 l 612 621 l 612 596 q 576 589 592 595 q 544 570 560 583 q 508 534 527 557 q 463 477 489 512 l 378 364 l 533 142 q 581 76 562 100 q 614 42 600 53 q 643 28 629 31 q 677 24 657 25 l 677 0 l 385 0 l 385 24 q 428 35 410 24 q 445 63 445 45 q 401 142 445 78 l 311 275 l 211 142 q 165 68 165 81 q 180 39 165 52 q 226 24 195 26 l 226 0 l 23 0 l 23 24 q 49 31 37 26 q 75 48 61 36 q 107 83 89 61 q 153 142 125 105 l 283 315 l 165 486 q 121 545 139 523 q 87 578 102 567 q 55 593 71 589 q 18 596 39 596 l 18 621 z "},"y":{"ha":694,"x_min":8,"x_max":686,"o":"m 8 621 l 298 621 l 298 596 l 283 596 q 238 583 253 596 q 222 550 222 570 q 245 477 222 524 l 396 163 l 535 507 q 547 562 547 535 q 545 576 547 570 q 536 587 543 582 q 517 594 530 591 q 484 596 505 596 l 484 621 l 686 621 l 686 596 q 657 591 669 594 q 636 579 646 588 q 617 552 626 570 q 595 503 608 534 l 342 -117 q 298 -196 323 -162 q 245 -253 273 -231 q 188 -288 218 -276 q 132 -300 159 -300 q 95 -293 111 -300 q 66 -276 78 -287 q 47 -252 54 -266 q 40 -224 40 -239 q 59 -178 40 -195 q 110 -161 77 -161 q 132 -165 117 -161 q 162 -173 146 -169 q 189 -182 177 -178 q 205 -186 201 -186 q 226 -181 215 -186 q 249 -165 237 -176 q 273 -133 261 -153 q 298 -83 286 -113 l 342 24 l 119 493 q 107 513 115 500 q 91 538 100 526 q 73 562 82 551 q 58 577 64 573 q 8 596 44 588 l 8 621 z "},"z":{"ha":616,"x_min":28,"x_max":594,"o":"m 583 191 l 583 0 l 28 0 l 28 24 l 440 574 l 237 574 q 183 572 203 574 q 151 565 163 570 q 131 553 138 561 q 117 533 124 545 q 96 449 100 500 l 69 449 l 69 621 l 594 621 l 594 596 l 178 45 l 404 45 q 464 48 441 45 q 502 57 487 51 q 525 74 517 64 q 542 99 534 84 q 560 191 553 120 l 583 191 z "},"{":{"ha":667,"x_min":192,"x_max":570,"o":"m 570 -276 l 570 -300 q 467 -268 514 -292 q 387 -208 420 -243 q 334 -129 353 -172 q 315 -39 315 -85 q 320 14 315 -16 q 331 75 325 45 q 342 133 337 106 q 347 176 347 160 q 336 223 347 199 q 305 267 325 247 q 256 300 285 286 q 192 319 228 314 l 192 347 q 257 365 228 351 q 306 398 286 378 q 336 441 326 418 q 347 490 347 465 q 342 533 347 506 q 331 590 337 559 q 320 650 325 620 q 315 704 315 681 q 334 794 315 750 q 387 873 353 838 q 467 932 420 908 q 570 964 514 957 l 570 941 q 502 915 530 931 q 454 879 473 899 q 426 834 435 858 q 417 784 417 810 q 422 738 417 766 q 432 679 427 709 q 443 618 438 648 q 448 567 448 588 q 435 499 448 533 q 397 434 422 465 q 335 378 372 404 q 248 334 297 352 q 334 290 296 317 q 396 232 371 263 q 435 166 422 200 q 448 98 448 132 q 443 47 448 77 q 432 -13 438 18 q 422 -73 427 -44 q 417 -119 417 -101 q 426 -169 417 -144 q 454 -213 435 -193 q 502 -250 473 -234 q 570 -276 530 -266 z "},"|":{"ha":278,"x_min":109,"x_max":165,"o":"m 165 964 l 165 -300 l 109 -300 l 109 964 l 165 964 z "},"}":{"ha":667,"x_min":120,"x_max":498,"o":"m 120 941 l 120 964 q 223 932 176 957 q 304 872 270 908 q 356 793 338 837 q 375 703 375 749 q 370 651 375 681 q 359 590 366 621 q 349 533 353 559 q 344 490 344 506 q 354 441 344 465 q 385 398 365 418 q 434 365 405 378 q 498 347 463 351 l 498 319 q 434 300 463 314 q 386 267 406 287 q 355 224 366 248 q 344 176 344 200 q 349 133 344 160 q 359 75 353 106 q 370 14 366 45 q 375 -39 375 -16 q 356 -128 375 -84 q 304 -207 338 -172 q 223 -268 270 -243 q 120 -300 176 -292 l 120 -276 q 236 -214 199 -256 q 273 -119 273 -171 q 269 -73 273 -101 q 258 -14 264 -45 q 247 47 252 17 q 242 98 242 77 q 255 166 242 132 q 293 231 267 201 q 355 288 318 262 q 443 331 393 313 q 357 375 394 349 q 294 433 319 401 q 255 499 269 465 q 242 567 242 533 q 247 618 242 588 q 258 679 252 648 q 269 738 264 709 q 273 784 273 766 q 264 834 273 810 q 236 879 255 858 q 189 915 218 899 q 120 941 159 931 z "},"~":{"ha":751,"x_min":14,"x_max":737,"o":"m 707 458 l 737 458 q 722 378 736 413 q 686 319 709 343 q 634 282 664 295 q 571 270 605 270 q 538 272 555 270 q 504 280 522 275 q 440 303 486 286 q 318 352 393 321 q 170 395 212 395 q 90 366 122 395 q 43 271 57 337 l 14 271 q 29 353 16 317 q 64 412 43 388 q 114 448 86 435 q 172 460 142 460 q 233 450 201 460 q 315 423 269 440 q 418 380 361 406 q 516 343 476 355 q 581 332 557 332 q 666 364 631 332 q 707 458 701 396 z "},"":{"ha":694,"x_min":-16,"x_max":670,"o":"m 574 500 l 185 500 q 183 444 183 471 l 557 444 l 542 391 l 184 391 q 204 249 187 313 q 250 139 221 185 q 317 66 278 92 q 404 41 357 41 q 556 87 495 41 q 649 193 593 115 l 670 180 q 614 100 641 133 q 564 48 588 68 q 377 -16 486 -16 q 250 12 307 -16 q 152 92 193 39 q 85 219 111 144 q 53 391 60 295 l -16 391 l 0 444 l 50 444 l 50 454 q 51 476 50 465 q 52 500 51 487 l -16 500 l 0 553 l 57 553 q 167 818 80 713 q 422 939 267 939 q 652 879 538 939 l 652 676 l 626 676 q 422 894 608 894 q 335 870 374 894 q 266 803 296 847 q 217 696 237 759 q 189 553 198 633 l 590 553 l 574 500 z "},"":{"ha":463,"x_min":138,"x_max":340,"o":"m 138 -231 l 138 -201 q 199 -171 172 -190 q 245 -130 227 -153 q 274 -80 264 -106 q 284 -27 284 -54 q 279 -8 284 -17 q 269 1 275 1 q 260 -2 267 1 q 247 -9 254 -5 q 229 -16 239 -13 q 210 -19 220 -19 q 157 1 177 -19 q 138 55 138 20 q 144 86 138 72 q 163 112 151 101 q 191 129 175 123 q 225 136 207 136 q 268 125 247 136 q 304 97 288 115 q 330 52 320 78 q 340 -7 340 25 q 328 -75 340 -41 q 291 -137 316 -108 q 229 -190 267 -165 q 138 -231 191 -214 z "},"":{"ha":694,"x_min":1,"x_max":677,"o":"m 466 593 l 587 593 l 575 549 l 457 549 q 410 338 439 457 q 340 68 381 218 q 201 -236 277 -162 q 84 -292 144 -292 q 23 -272 45 -292 q 1 -221 1 -252 q 17 -178 1 -195 q 54 -161 33 -161 q 84 -173 71 -161 q 98 -199 98 -185 q 95 -211 98 -205 q 89 -222 92 -217 q 84 -231 86 -227 q 81 -237 81 -235 q 86 -247 81 -243 q 98 -252 91 -252 q 126 -245 113 -252 q 153 -219 140 -238 q 179 -167 166 -200 q 204 -81 191 -134 q 221 -4 206 -74 q 262 200 235 66 q 286 298 265 212 q 346 549 307 385 l 226 549 l 236 593 q 291 598 271 596 q 322 604 311 600 q 338 612 333 607 q 349 625 343 617 q 390 716 367 649 q 485 901 440 861 q 585 941 530 941 q 623 935 606 941 q 652 918 640 928 q 671 894 665 908 q 677 865 677 880 q 664 827 677 841 q 631 812 650 812 q 601 824 614 812 q 589 850 589 836 q 591 862 589 855 q 596 874 593 868 q 601 885 599 880 q 604 892 604 890 q 597 904 604 899 q 580 909 591 909 q 555 903 566 909 q 534 887 543 897 q 518 864 525 877 q 509 836 512 850 q 489 734 500 795 q 466 593 478 674 z "},"":{"ha":616,"x_min":50,"x_max":570,"o":"m 50 -231 l 50 -201 q 112 -171 85 -190 q 158 -130 139 -153 q 187 -80 177 -106 q 197 -27 197 -54 q 192 -8 197 -17 q 181 1 187 1 q 173 -2 179 1 q 159 -9 167 -5 q 142 -16 151 -13 q 123 -19 132 -19 q 70 1 90 -19 q 50 55 50 20 q 57 86 50 72 q 76 112 64 101 q 103 129 87 123 q 138 136 119 136 q 180 125 159 136 q 217 97 201 115 q 242 52 233 78 q 252 -7 252 25 q 240 -75 252 -41 q 204 -137 229 -108 q 141 -190 179 -165 q 50 -231 103 -214 m 368 -231 l 368 -201 q 430 -171 403 -190 q 476 -130 457 -153 q 505 -80 495 -106 q 515 -27 515 -54 q 510 -8 515 -17 q 499 1 505 1 q 491 -2 497 1 q 477 -9 485 -5 q 460 -16 469 -13 q 441 -19 450 -19 q 388 1 408 -19 q 368 55 368 20 q 375 86 368 72 q 394 112 382 101 q 421 129 406 123 q 456 136 437 136 q 498 125 477 136 q 535 97 519 115 q 561 52 551 78 q 570 -7 570 25 q 558 -75 570 -41 q 522 -137 547 -108 q 459 -190 497 -165 q 368 -231 421 -214 z "},"":{"ha":1389,"x_min":156,"x_max":1233,"o":"m 231 132 q 260 126 247 132 q 284 110 274 120 q 300 86 294 100 q 307 56 307 72 q 300 27 307 41 q 284 3 294 14 q 260 -13 274 -7 q 231 -19 247 -19 q 202 -13 216 -19 q 178 3 189 -7 q 162 27 168 14 q 156 56 156 41 q 162 86 156 73 q 178 110 168 100 q 202 126 189 120 q 231 132 216 132 m 694 132 q 724 125 710 132 q 747 109 737 119 q 764 85 758 99 q 770 56 770 72 q 764 27 770 41 q 747 3 758 14 q 724 -13 737 -7 q 694 -19 710 -19 q 665 -13 679 -19 q 642 3 652 -7 q 625 27 631 14 q 619 56 619 41 q 625 86 619 73 q 642 110 631 100 q 665 126 652 120 q 694 132 679 132 m 1158 132 q 1187 125 1173 132 q 1211 109 1200 119 q 1227 85 1221 99 q 1233 56 1233 72 q 1227 27 1233 41 q 1211 3 1221 14 q 1187 -13 1200 -7 q 1158 -19 1173 -19 q 1128 -13 1142 -19 q 1105 3 1115 -7 q 1088 27 1095 14 q 1082 56 1082 41 q 1104 110 1082 89 q 1158 132 1125 132 z "},"":{"ha":694,"x_min":68,"x_max":626,"o":"m 355 -286 l 330 -286 q 323 -18 329 -136 q 309 191 318 100 q 262 447 294 326 q 292 477 279 462 q 312 510 304 492 q 324 552 319 528 q 330 608 328 575 q 286 599 309 605 q 241 584 264 593 q 137 554 169 554 q 87 572 106 554 q 68 618 68 590 q 74 645 68 633 q 89 666 79 657 q 111 681 98 675 q 138 686 123 686 q 170 682 155 686 q 191 673 173 680 q 241 652 208 665 q 330 631 281 634 q 328 660 330 648 q 324 681 327 671 q 316 703 321 691 q 305 732 312 714 q 277 808 287 775 q 269 863 268 841 q 275 899 269 883 q 291 927 281 916 q 315 945 301 939 q 345 951 329 951 q 372 944 359 951 q 395 925 385 937 q 412 898 406 913 q 418 863 418 882 q 417 840 418 851 q 411 815 415 829 q 400 783 407 802 q 382 737 393 764 q 355 631 358 679 q 445 652 403 635 q 498 672 479 665 q 523 681 517 680 q 553 685 538 685 q 606 666 586 685 q 626 618 626 647 q 606 572 626 591 q 556 553 587 553 q 509 562 536 553 q 444 585 482 570 q 416 596 427 592 q 398 602 406 600 q 380 605 389 604 q 355 608 370 606 q 361 551 357 575 q 374 509 366 527 q 394 476 382 490 q 423 447 406 461 q 396 323 407 385 q 378 200 385 262 q 355 -286 365 78 z "},"":{"ha":694,"x_min":94,"x_max":600,"o":"m 359 662 q 366 623 362 639 q 376 595 370 608 q 394 572 383 583 q 423 547 406 561 q 374 449 389 496 q 359 328 359 402 q 374 214 359 260 q 393 166 381 191 q 423 115 406 141 q 396 90 407 101 q 378 66 385 79 q 367 39 371 54 q 359 0 362 23 q 383 3 374 2 q 399 7 391 5 q 417 14 407 9 q 446 26 427 18 q 537 50 505 50 q 583 33 566 50 q 600 -10 600 16 q 583 -55 600 -37 q 538 -73 565 -73 q 452 -47 509 -73 q 427 -37 437 -41 q 407 -31 416 -33 q 387 -27 397 -28 q 359 -25 376 -26 q 364 -59 362 -47 q 368 -80 366 -71 q 373 -96 370 -88 q 382 -117 376 -104 q 416 -229 416 -193 q 397 -279 416 -259 q 348 -300 377 -300 q 321 -294 334 -300 q 299 -278 309 -288 q 285 -255 290 -269 q 280 -227 280 -242 q 280 -211 280 -217 q 284 -193 281 -204 q 293 -165 287 -182 q 311 -115 299 -147 q 325 -71 319 -94 q 332 -25 330 -48 q 305 -26 316 -26 q 284 -30 294 -27 q 263 -37 275 -33 q 234 -50 252 -41 q 157 -73 183 -73 q 112 -56 129 -73 q 96 -13 96 -39 q 114 33 96 16 q 161 50 132 50 q 187 44 170 50 q 223 32 204 39 q 259 19 241 25 q 289 9 277 12 q 307 7 296 8 q 332 5 317 5 q 325 41 329 26 q 314 68 321 56 q 295 91 307 80 q 267 115 284 102 q 312 197 298 157 q 333 336 333 258 q 319 453 333 402 q 267 547 305 505 q 295 570 284 559 q 313 594 306 581 q 325 622 320 606 q 332 662 329 638 q 309 660 317 661 q 293 658 301 660 q 272 651 285 656 q 234 635 260 646 q 190 621 210 625 q 154 616 170 616 q 111 633 128 616 q 94 676 94 650 q 111 718 94 701 q 153 734 127 734 q 242 711 185 734 q 269 701 258 705 q 288 694 279 696 q 306 690 296 691 q 332 688 316 688 q 330 719 332 706 q 323 746 328 732 q 313 776 319 760 q 296 818 307 792 q 283 850 288 840 q 278 866 279 861 q 278 875 277 871 q 278 889 278 879 q 298 944 278 924 q 347 964 317 964 q 394 945 376 964 q 412 886 412 925 q 412 867 412 874 q 409 851 412 860 q 401 829 407 843 q 384 790 395 815 q 367 741 373 766 q 359 688 361 715 q 385 689 376 688 q 402 692 394 690 q 421 699 410 694 q 454 712 433 703 q 539 734 505 734 q 583 718 566 734 q 600 675 600 701 q 583 632 600 649 q 536 615 565 615 q 499 621 521 615 q 451 637 477 626 q 421 650 432 646 q 403 657 411 654 q 385 660 395 659 q 359 662 376 661 z "},"":{"ha":1389,"x_min":44,"x_max":1343,"o":"m 827 941 l 168 -37 l 108 -37 l 767 941 l 827 941 m 239 941 q 318 922 282 941 q 381 869 355 903 q 421 790 407 836 q 436 692 436 745 q 420 590 436 635 q 378 512 405 544 q 316 464 351 481 q 242 447 281 447 q 164 465 200 447 q 101 516 128 484 q 59 594 75 549 q 44 693 44 639 q 61 799 44 753 q 105 877 77 845 q 167 924 132 908 q 239 941 202 941 m 237 905 q 197 890 213 905 q 172 847 181 875 q 158 779 162 819 q 153 690 153 739 q 176 532 153 583 q 241 481 199 481 q 304 536 281 481 q 328 699 328 591 q 303 853 328 802 q 237 905 279 905 m 697 456 q 776 437 740 456 q 839 385 812 418 q 879 306 865 351 q 894 208 894 261 q 878 105 894 151 q 836 28 863 60 q 774 -20 809 -3 q 700 -37 739 -37 q 622 -19 658 -37 q 559 32 586 -1 q 517 110 532 64 q 502 209 502 155 q 518 315 502 269 q 563 392 535 361 q 625 440 590 424 q 697 456 660 456 m 694 420 q 655 406 671 420 q 629 363 639 391 q 615 295 620 335 q 611 205 611 255 q 634 48 611 99 q 699 -3 656 -3 q 762 52 739 -3 q 785 214 785 106 q 761 369 785 318 q 694 420 737 420 m 1146 456 q 1225 437 1189 456 q 1288 385 1261 418 q 1328 306 1314 351 q 1343 208 1343 261 q 1327 105 1343 151 q 1285 28 1312 60 q 1223 -20 1258 -3 q 1149 -37 1187 -37 q 1071 -19 1107 -37 q 1008 32 1035 -1 q 966 110 981 64 q 951 209 951 155 q 967 315 951 269 q 1011 392 984 361 q 1074 440 1039 424 q 1146 456 1109 456 m 1143 420 q 1104 406 1120 420 q 1078 363 1088 391 q 1064 295 1069 335 q 1060 205 1060 255 q 1083 48 1060 99 q 1147 -3 1105 -3 q 1211 52 1188 -3 q 1234 214 1234 106 q 1210 369 1234 318 q 1143 420 1186 420 z "},"":{"ha":772,"x_min":87,"x_max":698,"o":"m 637 941 l 637 623 l 612 623 q 568 768 600 714 q 529 817 552 795 q 478 854 505 839 q 419 878 450 869 q 357 886 389 886 q 293 874 323 886 q 241 843 263 863 q 207 798 219 823 q 195 745 195 772 q 212 679 195 707 q 261 627 230 651 q 333 581 292 604 q 424 533 375 559 q 528 476 479 504 q 615 415 578 448 q 675 338 653 381 q 698 235 698 295 q 676 137 698 183 q 617 55 655 90 q 525 0 578 20 q 408 -21 472 -21 q 368 -20 385 -21 q 335 -17 351 -20 q 303 -10 319 -15 q 263 4 286 -5 q 230 15 247 10 q 199 24 213 20 q 175 29 184 27 q 162 31 165 31 q 135 21 145 31 q 121 -21 125 11 l 96 -21 l 96 294 l 121 294 q 141 208 130 245 q 168 146 153 171 q 207 100 183 121 q 260 64 231 79 q 324 40 290 49 q 394 32 358 32 q 471 44 437 32 q 528 77 505 56 q 565 125 552 98 q 577 182 577 153 q 559 257 577 227 q 510 311 541 287 q 438 356 479 334 q 351 405 397 378 q 252 463 300 435 q 168 523 204 490 q 109 598 131 556 q 87 699 87 640 q 107 791 87 747 q 163 869 127 836 q 249 921 199 902 q 356 941 298 941 q 511 905 428 941 q 565 888 548 888 q 594 898 583 888 q 612 941 605 909 l 637 941 m 446 991 l 321 991 l 192 1170 l 213 1170 l 398 1072 l 553 1170 l 574 1170 l 446 991 z "},"":{"ha":463,"x_min":81,"x_max":382,"o":"m 382 -5 l 343 -5 l 81 315 l 343 633 l 382 633 l 216 315 l 382 -5 z "},"":{"ha":1235,"x_min":51,"x_max":1196,"o":"m 749 869 l 749 507 l 873 507 q 939 514 912 507 q 983 538 966 522 q 1008 580 1000 555 q 1015 640 1015 605 l 1042 640 l 1042 319 l 1015 319 q 1004 388 1012 361 q 980 430 996 415 q 938 451 964 446 q 873 456 912 456 l 749 456 l 749 153 q 750 108 749 125 q 755 82 752 92 q 764 67 759 72 q 778 57 770 62 q 830 52 789 52 l 901 52 q 970 53 943 52 q 1016 59 997 54 q 1049 74 1034 64 q 1081 100 1063 84 q 1168 231 1132 146 l 1196 231 l 1122 0 l 793 0 q 729 -1 763 0 q 660 -3 694 -1 q 594 -5 626 -4 q 535 -8 562 -7 q 490 -10 509 -9 q 466 -11 472 -11 q 256 47 351 -11 q 172 118 209 76 q 106 216 135 161 q 51 458 51 328 q 146 767 51 633 q 481 928 261 928 q 497 927 482 928 q 538 926 513 926 q 594 924 563 925 q 661 922 626 922 q 729 920 695 921 q 793 920 764 920 l 1114 920 l 1114 718 l 1101 718 q 1072 819 1084 798 q 1019 861 1055 846 q 922 869 998 869 l 749 869 m 618 707 q 615 780 618 752 q 606 824 612 808 q 590 849 600 841 q 570 865 581 858 q 484 884 536 884 q 370 857 421 884 q 283 775 319 829 q 227 641 247 722 q 207 453 207 559 q 224 288 207 364 q 277 156 242 212 q 362 69 311 100 q 481 37 414 37 q 564 54 533 37 q 606 103 595 71 q 618 231 618 134 l 618 707 z "},"":{"ha":848,"x_min":18,"x_max":810,"o":"m 799 920 l 195 56 l 572 56 q 705 94 659 56 q 787 248 751 132 l 810 243 l 766 0 l 18 0 l 18 25 l 608 865 l 313 865 q 207 848 240 865 q 157 802 174 833 q 125 690 140 774 l 100 690 l 119 920 l 799 920 m 498 991 l 373 991 l 244 1170 l 265 1170 l 450 1072 l 606 1170 l 626 1170 l 498 991 z "},"":{"ha":463,"x_min":125,"x_max":332,"o":"m 301 941 l 301 911 q 249 877 271 893 q 214 843 227 860 q 195 809 201 827 q 189 771 189 791 q 196 740 189 750 q 214 729 204 729 q 225 731 218 729 q 238 734 231 732 q 252 738 245 736 q 263 740 259 740 q 289 734 277 740 q 311 719 302 729 q 327 696 321 709 q 332 669 332 684 q 324 633 332 648 q 303 609 316 618 q 275 594 291 599 q 243 589 259 589 q 199 600 220 589 q 161 628 178 610 q 135 671 145 646 q 125 724 125 695 q 135 788 125 756 q 166 848 145 819 q 221 900 188 876 q 301 941 254 924 z "},"":{"ha":463,"x_min":131,"x_max":338,"o":"m 161 589 l 161 621 q 213 655 192 640 q 248 688 235 671 q 268 722 262 704 q 274 760 274 739 q 266 792 274 782 q 249 802 258 802 q 238 800 245 802 q 225 796 232 798 q 211 792 218 794 q 200 791 204 791 q 174 796 186 791 q 152 811 161 802 q 137 833 142 821 q 131 862 131 846 q 139 896 131 882 q 159 921 146 911 q 188 936 172 930 q 220 941 203 941 q 263 930 242 941 q 301 902 285 920 q 328 859 317 884 q 338 807 338 835 q 328 743 338 774 q 296 683 317 711 q 241 630 275 654 q 161 589 208 606 z "},"":{"ha":616,"x_min":45,"x_max":577,"o":"m 221 941 l 221 913 q 136 848 161 882 q 110 774 110 814 q 116 741 110 751 q 132 732 123 732 q 155 737 140 732 q 182 742 170 742 q 209 736 197 742 q 231 721 222 731 q 246 699 241 711 q 252 671 252 686 q 245 640 252 654 q 227 615 238 625 q 199 598 215 604 q 164 591 182 591 q 120 602 142 591 q 82 631 99 612 q 56 674 66 649 q 45 728 45 699 q 57 794 45 762 q 92 855 69 827 q 146 905 114 883 q 221 941 179 927 m 545 939 l 545 913 q 488 876 510 892 q 454 842 466 859 q 437 808 441 825 q 433 769 433 790 q 440 740 433 749 q 456 731 448 731 q 478 736 463 731 q 508 742 493 742 q 534 736 522 742 q 556 722 547 731 q 571 700 566 713 q 577 673 577 687 q 570 642 577 656 q 551 615 563 627 q 522 597 538 604 q 487 591 506 591 q 444 601 465 591 q 406 629 422 611 q 380 672 390 648 q 370 726 370 697 q 382 794 370 761 q 416 856 394 828 q 471 905 439 884 q 545 939 503 926 z "},"":{"ha":616,"x_min":43,"x_max":577,"o":"m 73 589 l 73 621 q 125 655 104 640 q 160 688 146 671 q 180 722 174 704 q 186 760 186 739 q 178 792 186 782 q 161 802 170 802 q 150 800 157 802 q 137 796 144 798 q 123 792 130 794 q 112 791 116 791 q 86 796 98 791 q 64 811 73 802 q 48 833 54 821 q 43 862 43 846 q 51 896 43 882 q 71 921 58 911 q 99 936 83 930 q 132 941 115 941 q 175 930 154 941 q 213 902 197 920 q 239 859 229 884 q 250 807 250 835 q 239 743 250 774 q 208 683 229 711 q 153 630 186 654 q 73 589 120 606 m 401 589 l 401 621 q 453 655 431 640 q 488 688 474 671 q 507 722 501 704 q 513 760 513 739 q 506 792 513 782 q 488 802 498 802 q 478 800 484 802 q 464 796 471 798 q 450 792 457 794 q 439 791 444 791 q 413 796 426 791 q 391 811 401 802 q 376 833 382 821 q 370 862 370 846 q 378 896 370 882 q 398 921 386 911 q 427 936 411 930 q 459 941 443 941 q 503 930 481 941 q 541 902 524 920 q 567 859 557 884 q 577 807 577 835 q 567 743 577 774 q 535 683 557 711 q 481 630 514 654 q 401 589 448 606 z "},"":{"ha":486,"x_min":76,"x_max":416,"o":"m 246 629 q 312 616 281 629 q 366 579 342 602 q 403 525 389 555 q 416 459 416 494 q 403 393 416 424 q 366 339 389 362 q 312 302 343 316 q 246 289 281 289 q 180 302 211 289 q 125 338 149 315 q 89 393 102 361 q 76 459 76 424 q 90 525 76 494 q 126 579 103 556 q 180 616 149 602 q 246 629 211 629 z "},"":{"ha":694,"x_min":-12,"x_max":706,"o":"m 706 307 l -12 307 l -12 357 l 706 357 l 706 307 z "},"":{"ha":1389,"x_min":-13,"x_max":1401,"o":"m 1401 307 l -13 307 l -13 357 l 1401 357 l 1401 307 z "},"":{"ha":1361,"x_min":20,"x_max":1338,"o":"m 35 920 l 528 920 l 543 783 l 520 783 q 508 826 517 808 q 485 856 500 844 q 446 873 469 867 q 389 879 422 879 l 338 879 l 338 486 q 340 440 338 457 q 351 413 343 422 q 373 401 359 404 q 410 397 387 397 l 410 372 l 156 372 l 156 397 q 192 402 178 399 q 213 416 205 406 q 222 441 220 425 q 224 486 224 458 l 224 879 l 172 879 q 118 874 140 879 q 81 858 96 869 q 57 828 66 846 q 43 783 48 810 l 20 783 l 35 920 m 784 920 l 969 532 l 1149 920 l 1338 920 l 1338 895 q 1296 890 1311 894 q 1274 878 1281 887 q 1264 850 1266 868 q 1263 803 1263 832 l 1263 486 q 1265 439 1263 456 q 1275 413 1267 422 q 1298 401 1283 404 q 1338 397 1313 398 l 1338 372 l 1068 372 l 1068 397 q 1115 402 1099 397 q 1139 416 1131 406 q 1147 443 1146 427 q 1149 485 1149 460 l 1149 819 l 941 372 l 919 372 l 710 812 l 710 486 q 712 440 710 458 q 721 414 714 423 q 740 400 728 404 q 773 397 753 397 l 798 397 l 798 372 l 590 372 l 590 397 q 633 400 618 397 q 656 414 649 404 q 665 440 664 423 q 667 486 667 458 l 667 802 q 665 849 667 831 q 656 878 664 867 q 634 891 649 888 q 590 895 618 895 l 590 920 l 784 920 z "},"":{"ha":541,"x_min":68,"x_max":492,"o":"m 445 640 l 445 428 l 422 428 q 393 511 410 478 q 356 564 377 544 q 310 591 336 583 q 254 600 285 600 q 211 592 230 600 q 177 574 191 585 q 156 548 163 563 q 148 519 148 534 q 153 484 148 500 q 176 450 159 467 q 225 413 193 433 q 312 367 258 393 q 396 319 362 342 q 452 271 431 295 q 483 222 473 248 q 492 170 492 197 q 474 92 492 127 q 427 33 456 57 q 360 -5 397 8 q 284 -19 323 -19 q 223 -14 256 -19 q 154 1 191 -9 q 134 6 142 5 q 117 8 125 8 q 93 -9 102 8 l 71 -9 l 71 212 l 93 212 q 121 129 102 165 q 166 69 140 93 q 222 33 191 45 q 286 21 253 21 q 328 28 309 21 q 361 48 347 36 q 384 78 376 61 q 391 115 391 95 q 385 156 391 138 q 359 193 378 175 q 309 230 341 210 q 227 274 277 249 q 146 319 177 298 q 98 362 115 340 q 74 407 80 383 q 68 460 68 430 q 82 531 68 498 q 121 588 96 564 q 180 626 146 612 q 256 640 215 640 q 290 635 269 640 q 331 627 310 631 q 368 618 351 622 q 391 614 385 614 q 408 618 402 614 q 422 640 414 623 l 445 640 m 333 715 l 208 715 l 79 912 l 100 912 l 286 795 l 441 912 l 461 912 l 333 715 z "},"":{"ha":463,"x_min":78,"x_max":385,"o":"m 78 633 l 117 633 l 385 313 l 117 -5 l 78 -5 l 243 313 l 78 633 z "},"":{"ha":1003,"x_min":45,"x_max":957,"o":"m 585 389 q 584 374 585 380 q 584 363 584 368 q 599 250 584 300 q 640 165 614 200 q 700 112 665 130 q 772 93 734 93 q 868 127 827 93 q 935 241 910 162 l 957 229 q 923 117 945 164 q 872 40 901 70 q 806 -5 842 9 q 726 -19 769 -19 q 665 -11 694 -19 q 614 13 637 -2 q 573 47 591 27 q 544 90 555 67 q 328 -19 459 -19 q 217 4 269 -19 q 127 68 165 26 q 67 169 90 110 q 45 300 45 228 q 68 441 45 378 q 130 548 91 505 q 222 616 170 592 q 332 640 274 640 q 458 610 406 640 q 544 532 511 580 q 584 582 564 562 q 627 615 604 602 q 677 634 650 628 q 736 640 703 640 q 825 624 784 640 q 895 576 865 607 q 941 500 924 545 q 957 399 957 456 l 957 389 l 585 389 m 307 602 q 260 591 283 602 q 216 553 236 580 q 184 480 197 526 q 172 366 172 435 q 184 238 172 299 q 217 131 195 177 q 272 57 239 84 q 345 29 304 29 q 400 40 374 29 q 444 78 425 52 q 474 148 463 104 q 485 256 485 192 q 473 398 485 334 q 439 507 462 462 q 383 577 416 553 q 307 602 350 602 m 585 433 l 823 433 q 816 494 823 465 q 794 546 808 524 q 757 582 779 568 q 705 595 734 595 q 662 585 682 595 q 625 554 641 574 q 598 504 608 534 q 585 433 587 473 z "},"":{"ha":616,"x_min":28,"x_max":594,"o":"m 583 191 l 583 0 l 28 0 l 28 24 l 440 574 l 237 574 q 183 572 203 574 q 151 565 163 570 q 131 553 138 561 q 117 533 124 545 q 96 449 100 500 l 69 449 l 69 621 l 594 621 l 594 596 l 178 45 l 404 45 q 464 48 441 45 q 502 57 487 51 q 525 74 517 64 q 542 99 534 84 q 560 191 553 120 l 583 191 m 382 715 l 257 715 l 128 939 l 149 939 l 334 795 l 490 939 l 510 939 l 382 715 z "},"":{"ha":1003,"x_min":13,"x_max":983,"o":"m 662 920 l 983 920 l 983 895 l 965 895 q 943 890 957 895 q 913 879 929 886 q 882 860 898 871 q 852 834 865 848 q 821 795 838 819 q 783 739 804 772 l 562 390 l 562 159 q 581 54 562 75 q 662 25 606 25 l 692 25 l 692 0 l 301 0 l 301 25 l 334 25 q 416 60 392 25 q 431 159 431 81 l 431 377 l 179 762 q 141 818 157 797 q 118 847 126 838 q 104 859 114 851 q 81 875 95 867 q 49 889 66 883 q 13 895 32 895 l 13 920 l 406 920 l 406 895 l 386 895 q 356 891 371 895 q 328 880 340 888 q 308 862 316 873 q 300 835 300 850 q 342 747 300 810 l 534 450 l 714 734 q 755 829 755 798 q 749 855 753 843 q 734 876 744 867 q 706 890 724 885 q 662 895 688 895 l 662 920 m 637 1158 q 666 1152 652 1158 q 689 1136 680 1146 q 705 1112 699 1126 q 711 1084 711 1099 q 705 1055 711 1068 q 689 1032 699 1042 q 666 1016 680 1022 q 637 1010 652 1010 q 609 1016 622 1010 q 585 1032 595 1022 q 569 1055 575 1042 q 564 1084 564 1068 q 569 1112 564 1099 q 585 1136 575 1126 q 609 1152 595 1146 q 637 1158 622 1158 m 398 1158 q 427 1152 414 1158 q 451 1136 441 1146 q 466 1112 460 1126 q 472 1084 472 1099 q 466 1055 472 1068 q 450 1032 460 1042 q 427 1016 440 1022 q 399 1010 414 1010 q 370 1016 383 1010 q 347 1032 357 1022 q 331 1055 336 1042 q 325 1084 325 1068 q 331 1112 325 1099 q 346 1136 336 1126 q 369 1152 356 1146 q 398 1158 382 1158 z "},"":{"ha":347,"x_min":0,"x_max":0,"o":""},"":{"ha":463,"x_min":155,"x_max":308,"o":"m 232 661 q 261 655 248 661 q 285 639 275 649 q 301 615 295 629 q 307 585 307 601 q 301 556 307 570 q 285 532 295 543 q 261 516 275 522 q 232 511 248 511 q 203 516 216 511 q 179 532 189 522 q 163 556 169 543 q 157 585 157 570 q 163 614 157 601 q 179 638 169 628 q 203 654 189 648 q 232 661 216 661 m 218 398 l 244 398 l 304 -151 q 305 -161 304 -153 q 307 -179 306 -170 q 308 -196 307 -189 q 308 -205 308 -204 q 302 -244 308 -227 q 285 -274 296 -261 q 261 -293 275 -286 q 231 -300 247 -300 q 177 -274 199 -300 q 155 -197 155 -248 q 156 -177 155 -189 q 158 -151 157 -166 l 218 398 z "},"":{"ha":694,"x_min":87,"x_max":610,"o":"m 610 237 q 573 135 597 181 q 517 55 550 88 q 443 2 484 21 q 350 -16 401 -16 q 240 7 296 -16 l 144 -257 l 96 -257 l 201 33 q 122 137 146 85 q 87 307 87 211 q 110 443 87 380 q 172 549 132 505 q 264 617 211 593 q 379 642 317 642 q 396 642 386 642 q 420 640 407 641 l 515 899 l 564 899 l 466 627 q 528 593 504 610 q 567 559 553 576 q 587 525 581 543 q 592 490 592 508 q 576 448 592 463 q 528 432 559 432 q 500 435 513 432 q 478 448 488 439 q 462 473 469 457 q 452 513 455 489 q 448 535 451 524 q 441 557 446 546 l 286 130 q 317 110 303 118 q 343 97 330 102 q 368 90 355 92 q 397 88 381 88 q 437 93 417 88 q 476 105 458 98 q 509 124 494 113 q 534 146 524 134 q 590 245 554 170 l 610 237 m 251 170 l 402 587 q 361 595 382 595 q 289 576 320 595 q 238 526 258 557 q 207 452 217 494 q 196 363 196 410 q 199 314 196 336 q 208 269 201 292 q 224 223 214 247 q 251 170 235 199 z "},"":{"ha":694,"x_min":41,"x_max":663,"o":"m 490 447 l 315 447 q 316 420 316 431 q 316 401 316 408 q 307 283 316 338 q 274 158 297 227 q 426 111 408 115 q 495 103 461 103 q 587 129 552 103 q 638 212 622 155 l 663 205 q 636 109 655 151 q 592 40 618 68 q 533 -2 566 12 q 468 -16 501 -16 q 385 0 421 -16 q 332 31 366 8 q 247 92 298 54 q 121 -16 193 -16 q 64 7 86 -16 q 41 71 41 31 q 50 114 41 94 q 73 147 58 133 q 109 169 88 161 q 153 177 129 177 q 178 176 164 177 q 210 172 193 174 q 212 202 212 189 q 212 224 212 215 q 198 447 212 283 l 66 447 l 66 511 l 198 511 q 191 596 193 562 q 189 646 189 629 q 210 768 189 714 q 264 860 230 822 q 345 918 299 898 q 440 939 390 939 q 516 925 484 939 q 569 891 548 911 q 601 846 591 871 q 612 800 612 822 q 607 780 612 790 q 595 762 603 770 q 578 749 588 754 q 559 745 569 745 q 540 747 549 745 q 524 759 531 750 q 513 782 517 767 q 506 823 508 798 q 482 883 503 864 q 424 901 462 901 q 375 892 397 901 q 336 860 353 882 q 310 802 319 838 q 300 711 300 766 q 302 666 300 694 q 307 608 304 637 q 312 551 309 578 q 315 511 314 525 l 490 511 l 490 447 m 202 117 q 144 136 173 136 q 97 119 114 136 q 80 76 80 102 q 93 37 80 52 q 124 23 106 23 q 168 44 146 23 q 202 117 189 65 z "},"":{"ha":694,"x_min":18,"x_max":675,"o":"m 538 691 l 635 787 l 675 749 l 577 653 q 647 463 647 564 q 577 270 647 358 l 675 172 l 635 134 l 538 231 q 355 161 448 161 q 296 167 326 161 q 240 182 267 172 q 191 204 213 192 q 155 231 169 217 l 56 134 l 18 172 l 116 270 q 47 461 47 349 q 116 653 47 568 l 18 749 l 56 787 l 155 691 q 196 719 172 706 q 245 740 219 731 q 298 755 271 749 q 349 760 324 760 q 397 756 372 760 q 447 743 422 751 q 495 721 472 734 q 538 691 519 708 m 347 705 q 252 686 296 705 q 174 633 208 667 q 121 555 140 600 q 102 459 102 510 q 121 365 102 410 q 174 288 140 321 q 252 235 208 254 q 347 216 296 216 q 441 235 396 216 q 519 289 486 255 q 573 367 553 322 q 593 460 593 411 q 574 552 593 507 q 522 630 555 596 q 444 685 489 664 q 347 705 399 705 z "},"":{"ha":694,"x_min":1,"x_max":694,"o":"m 405 288 l 694 288 l 694 239 l 405 239 l 405 165 q 406 110 405 131 q 410 76 407 89 q 419 56 413 63 q 435 43 425 49 q 493 28 460 28 l 521 28 l 521 0 l 172 0 l 172 28 l 193 28 q 257 41 235 28 q 286 84 279 54 q 289 165 289 96 l 289 239 l 1 239 l 1 288 l 289 288 l 289 386 l 279 410 l 1 410 l 1 460 l 257 460 l 113 796 q 88 845 100 826 q 64 874 77 863 q 36 889 51 885 q 1 894 20 893 l 1 920 l 301 920 l 301 894 q 261 888 277 892 q 236 878 245 884 q 223 866 227 873 q 219 852 219 859 q 231 812 219 841 l 376 460 l 521 802 q 535 852 535 835 q 533 865 535 859 q 526 876 532 871 q 509 886 520 882 q 477 892 497 890 q 459 894 471 892 l 459 920 l 694 920 l 694 894 q 653 888 670 894 q 624 869 637 882 q 600 837 611 857 q 576 789 589 817 l 431 460 l 694 460 l 694 410 l 410 410 l 405 399 l 405 288 z "},"":{"ha":278,"x_min":109,"x_max":165,"o":"m 165 964 l 165 461 l 109 461 l 109 964 l 165 964 m 165 203 l 165 -300 l 109 -300 l 109 203 l 165 203 z "},"":{"ha":694,"x_min":106,"x_max":589,"o":"m 256 572 q 191 663 210 622 q 172 747 172 705 q 186 822 172 787 q 228 882 201 857 q 289 923 254 908 q 364 939 324 939 q 433 926 401 939 q 487 892 465 913 q 523 845 510 871 q 536 789 536 818 q 532 768 536 779 q 523 748 529 757 q 506 734 516 739 q 482 728 496 728 q 444 744 459 728 q 429 781 429 760 q 431 791 429 784 q 434 808 432 799 q 437 827 435 817 q 438 846 438 838 q 418 892 438 874 q 364 910 399 910 q 318 901 340 910 q 280 876 296 892 q 255 838 264 860 q 246 791 246 817 q 254 743 246 765 q 277 700 262 720 q 315 660 292 680 q 367 620 337 641 q 482 527 435 570 q 553 444 528 483 q 589 327 589 388 q 580 265 589 296 q 553 203 571 233 q 506 146 534 174 q 439 95 477 118 q 479 46 463 68 q 505 4 495 24 q 518 -35 514 -16 q 522 -77 522 -55 q 507 -154 522 -118 q 466 -215 492 -189 q 405 -256 440 -241 q 330 -271 370 -271 q 262 -259 294 -271 q 209 -225 231 -246 q 173 -176 186 -204 q 159 -119 159 -149 q 175 -76 159 -94 q 212 -59 191 -59 q 248 -75 233 -59 q 263 -118 263 -91 q 261 -137 263 -127 q 258 -158 260 -148 q 254 -178 256 -169 q 252 -192 252 -187 q 260 -215 252 -205 q 279 -231 267 -224 q 305 -241 290 -238 q 334 -245 319 -245 q 378 -235 356 -245 q 416 -209 399 -225 q 443 -173 433 -193 q 453 -133 453 -153 q 445 -85 453 -108 q 420 -39 437 -62 q 376 7 403 -17 q 314 58 350 31 q 140 225 186 153 q 106 342 106 280 q 142 465 106 405 q 256 572 178 525 m 277 551 q 175 400 175 489 q 200 313 175 352 q 251 253 218 285 q 334 183 284 220 q 378 148 357 165 q 416 115 399 131 q 520 264 520 178 q 490 355 520 307 q 368 476 460 404 q 317 516 339 498 q 277 551 295 535 z "},"":{"ha":463,"x_min":39,"x_max":425,"o":"m 351 907 q 380 901 366 907 q 403 885 393 895 q 419 861 413 875 q 425 833 425 848 q 419 804 425 817 q 403 781 413 791 q 380 765 393 771 q 351 760 366 760 q 322 765 336 760 q 299 781 309 771 q 283 804 289 791 q 277 833 277 817 q 283 861 277 848 q 299 885 289 875 q 322 901 309 895 q 351 907 336 907 m 112 907 q 141 901 127 907 q 164 885 155 895 q 180 861 174 875 q 186 833 186 848 q 180 804 186 817 q 164 781 174 791 q 141 765 154 771 q 113 760 127 760 q 84 765 97 760 q 60 781 71 771 q 44 804 50 791 q 39 833 39 817 q 44 861 39 848 q 60 885 50 875 q 83 901 70 895 q 112 907 96 907 z "},"":{"ha":463,"x_min":41,"x_max":422,"o":"m 169 939 l 294 939 l 422 715 l 401 715 l 216 859 l 61 715 l 41 715 l 169 939 z "},"":{"ha":463,"x_min":15,"x_max":448,"o":"m 37 744 l 15 744 q 27 824 16 791 q 54 879 37 857 q 94 910 71 900 q 142 920 116 920 q 172 917 159 920 q 201 908 186 915 q 235 890 216 901 q 279 862 254 879 q 328 834 307 843 q 363 825 349 825 q 383 829 373 825 q 401 843 393 833 q 416 872 409 854 q 427 920 422 890 l 448 920 q 438 842 448 876 q 410 786 428 808 q 369 752 393 764 q 319 741 346 741 q 186 795 267 741 q 151 819 164 810 q 129 831 138 827 q 114 836 120 836 q 100 837 107 837 q 56 812 72 837 q 47 790 52 807 q 37 744 42 772 z "},"":{"ha":1055,"x_min":47,"x_max":1009,"o":"m 528 941 q 764 878 649 941 q 944 701 880 816 q 993 583 977 643 q 1009 460 1009 523 q 945 220 1009 335 q 767 42 882 106 q 650 -6 709 9 q 528 -21 591 -21 q 288 42 403 -21 q 111 220 175 104 q 47 460 47 335 q 111 701 47 585 q 292 878 176 816 q 528 941 407 941 m 528 899 q 312 842 416 899 q 148 680 207 785 q 89 460 89 574 q 146 241 89 346 q 309 79 204 136 q 528 20 414 20 q 746 79 641 20 q 909 241 850 136 q 967 460 967 347 q 908 680 967 574 q 744 842 849 785 q 528 899 639 899 m 766 769 l 779 579 l 753 579 q 675 700 728 661 q 547 739 623 739 q 457 722 498 739 q 389 670 417 704 q 345 587 360 636 q 330 475 330 538 q 346 350 330 403 q 392 263 362 297 q 463 212 421 229 q 554 195 504 195 q 766 305 686 195 l 791 292 q 531 155 696 155 q 406 178 463 155 q 307 243 349 202 q 241 338 264 283 q 217 456 217 393 q 242 577 217 520 q 313 677 268 635 q 419 745 357 720 q 555 770 481 770 q 584 769 572 770 q 608 766 595 768 q 636 758 620 763 q 680 744 653 753 q 705 739 696 739 q 724 744 716 739 q 739 769 731 750 l 766 769 z "},"":{"ha":383,"x_min":-4,"x_max":381,"o":"m 231 800 q 226 862 231 838 q 212 898 221 885 q 189 915 203 911 q 159 920 176 920 q 95 859 95 920 q 84 815 95 829 q 56 801 73 801 q 29 812 40 801 q 18 842 18 824 q 27 878 18 860 q 56 909 37 895 q 105 930 75 922 q 176 939 135 939 q 231 932 208 939 q 272 917 255 926 q 299 897 289 908 q 315 874 310 885 q 324 800 324 851 l 324 652 q 325 621 324 631 q 326 607 325 611 q 328 601 326 602 q 333 597 330 600 q 342 593 338 593 q 381 614 351 593 l 381 581 q 340 553 355 563 q 315 538 325 543 q 297 532 304 533 q 280 531 290 531 q 250 545 263 531 q 231 595 237 559 q 85 534 144 534 q 51 541 67 534 q 23 559 35 548 q 3 586 11 571 q -4 618 -4 602 q 17 679 -4 652 q 83 733 38 705 q 231 800 120 755 m 231 774 q 162 745 189 760 q 119 714 135 730 q 97 682 103 699 q 90 650 90 666 q 95 628 90 638 q 107 609 99 617 q 126 596 115 601 q 151 591 138 591 q 231 621 180 591 l 231 774 z "},"":{"ha":694,"x_min":43,"x_max":651,"o":"m 345 -5 l 306 -5 l 43 315 l 306 633 l 345 633 l 179 315 l 345 -5 m 651 -5 l 612 -5 l 345 315 l 612 633 l 651 633 l 486 315 l 651 -5 z "},"":{"ha":783,"x_min":24,"x_max":757,"o":"m 24 595 l 757 595 l 757 320 l 703 320 l 703 541 l 24 541 l 24 595 z "},"":{"ha":1055,"x_min":47,"x_max":1009,"o":"m 528 941 q 764 878 649 941 q 944 701 880 816 q 993 583 977 643 q 1009 460 1009 523 q 945 220 1009 335 q 767 42 882 106 q 650 -6 709 9 q 528 -21 591 -21 q 288 42 403 -21 q 111 220 175 104 q 47 460 47 335 q 111 701 47 585 q 292 878 176 816 q 528 941 407 941 m 528 899 q 312 842 416 899 q 148 680 207 785 q 89 460 89 574 q 146 241 89 346 q 309 79 204 136 q 528 20 414 20 q 746 79 641 20 q 909 241 850 136 q 967 460 967 347 q 908 680 967 574 q 744 842 849 785 q 528 899 639 899 m 262 755 l 524 755 q 610 744 572 755 q 673 711 648 732 q 712 663 699 690 q 725 604 725 635 q 690 513 725 552 q 574 453 655 474 l 716 251 q 736 224 727 235 q 754 207 745 214 q 773 196 763 200 q 798 191 784 193 l 798 169 l 673 169 l 474 444 l 422 444 l 422 234 q 429 215 425 222 q 441 201 433 207 q 464 194 450 196 q 503 191 479 191 l 503 169 l 254 169 l 254 191 q 300 199 286 191 q 319 222 313 207 q 324 285 324 232 l 324 640 q 322 699 324 689 q 305 723 317 714 q 262 731 292 731 l 262 755 m 422 473 q 512 481 475 473 q 572 506 549 490 q 605 545 595 522 q 616 596 616 568 q 606 646 616 623 q 577 688 595 670 q 534 715 559 705 q 479 726 509 726 q 422 715 453 726 l 422 473 z "},"":{"ha":694,"x_min":-12,"x_max":707,"o":"m 707 991 l -12 991 l -12 1048 l 707 1048 l 707 991 z "},"":{"ha":555,"x_min":66,"x_max":484,"o":"m 275 940 q 356 923 318 940 q 422 878 394 907 q 467 812 451 850 q 484 731 484 774 q 467 650 484 688 q 422 584 450 612 q 355 539 393 555 q 275 523 317 523 q 194 539 232 523 q 128 584 156 556 q 83 650 100 612 q 66 731 66 688 q 83 812 66 774 q 127 879 99 850 q 194 924 156 907 q 275 940 232 940 m 275 883 q 216 871 243 883 q 168 839 189 859 q 135 790 147 818 q 123 732 123 763 q 135 674 123 701 q 168 626 147 646 q 215 593 188 605 q 275 581 243 581 q 333 593 306 581 q 381 626 361 605 q 414 674 402 646 q 426 732 426 701 q 414 790 426 763 q 381 839 402 818 q 333 871 361 859 q 275 883 306 883 z "},"":{"ha":762,"x_min":5,"x_max":737,"o":"m 5 96 l 5 151 l 343 151 l 343 434 l 5 434 l 5 490 l 343 490 l 343 827 l 397 827 l 397 490 l 736 490 l 736 434 l 397 434 l 397 151 l 737 151 l 737 96 l 5 96 z "},"":{"ha":416,"x_min":14,"x_max":390,"o":"m 390 553 l 349 450 l 14 450 l 14 470 q 236 682 181 600 q 270 779 270 732 q 262 818 270 800 q 242 849 255 836 q 210 869 229 862 q 171 877 192 877 q 103 857 132 877 q 59 797 74 838 l 28 797 q 81 901 38 864 q 193 939 123 939 q 258 927 229 939 q 310 898 288 916 q 343 858 331 880 q 355 811 355 835 q 322 715 355 766 q 122 515 271 636 l 248 515 q 297 517 279 515 q 327 523 315 519 q 346 535 339 528 q 359 553 353 543 l 390 553 z "},"":{"ha":416,"x_min":30,"x_max":355,"o":"m 37 833 q 104 915 66 892 q 193 939 143 939 q 250 930 224 939 q 292 907 275 921 q 318 875 309 893 q 328 839 328 857 q 256 734 328 793 q 330 684 305 716 q 355 610 355 651 q 340 545 355 576 q 296 491 325 514 q 226 454 268 467 q 130 440 184 440 q 56 452 82 440 q 30 483 30 463 q 41 504 30 494 q 70 513 52 513 q 93 508 78 513 q 125 497 108 503 q 158 486 142 491 q 186 481 175 481 q 222 488 205 481 q 252 508 239 496 q 272 536 264 520 q 279 570 279 553 q 266 621 279 600 q 232 656 252 642 q 188 676 212 669 q 142 683 163 683 l 121 683 l 121 702 q 169 711 146 702 q 209 734 192 720 q 235 768 225 749 q 245 807 245 787 q 222 861 245 840 q 163 882 200 882 q 63 823 104 882 l 37 833 z "},"":{"ha":463,"x_min":160,"x_max":383,"o":"m 383 943 l 183 709 l 160 709 l 231 943 l 383 943 z "},"":{"ha":800,"x_min":91,"x_max":742,"o":"m 133 621 l 244 621 l 244 260 q 256 125 244 161 q 289 81 265 98 q 340 64 312 64 q 500 155 420 64 l 500 621 l 612 621 l 612 178 q 613 121 612 143 q 618 89 614 100 q 634 63 622 73 q 659 54 646 54 q 693 76 680 54 q 713 138 707 98 l 742 138 q 699 19 736 56 q 608 -19 663 -19 q 566 -12 585 -19 q 534 11 548 -5 q 512 50 521 26 q 500 110 503 75 q 391 11 441 41 q 288 -19 340 -19 q 258 -17 271 -19 q 232 -9 244 -15 q 208 9 220 -3 q 182 39 195 20 q 182 20 182 28 q 182 7 182 13 q 205 -155 182 -47 q 214 -225 214 -195 q 209 -255 214 -241 q 195 -279 203 -269 q 174 -294 186 -289 q 150 -300 163 -300 q 108 -280 125 -300 q 91 -226 91 -260 q 111 -114 91 -196 q 125 -48 120 -75 q 132 0 130 -21 q 134 39 134 21 q 134 78 134 57 q 134 92 134 79 q 133 129 134 105 l 133 621 z "},"":{"ha":629,"x_min":-9,"x_max":631,"o":"m 541 882 l 541 -300 l 492 -300 l 492 882 l 366 882 l 366 -300 l 316 -300 l 316 408 q 122 441 187 412 q 65 479 90 456 q 24 531 41 502 q -1 594 7 560 q -9 665 -9 629 q 20 787 -9 740 q 65 845 39 820 q 124 886 91 869 q 200 911 158 903 q 296 920 243 920 l 631 920 l 631 882 l 541 882 z "},"":{"ha":463,"x_min":160,"x_max":302,"o":"m 231 548 q 282 528 262 548 q 302 477 302 507 q 297 449 302 463 q 281 427 291 436 q 259 411 272 417 q 231 406 245 406 q 204 411 217 406 q 181 427 191 417 q 166 449 172 436 q 160 477 160 463 q 180 528 160 507 q 231 548 201 548 z "},"":{"ha":463,"x_min":127,"x_max":336,"o":"m 245 11 l 286 11 l 252 -43 q 315 -79 294 -54 q 336 -142 336 -105 q 326 -189 336 -166 q 295 -228 315 -211 q 249 -254 275 -244 q 191 -264 222 -264 q 162 -263 178 -264 q 127 -260 146 -262 l 127 -231 q 144 -233 136 -232 q 159 -233 153 -233 q 191 -227 176 -233 q 217 -211 206 -221 q 235 -187 229 -201 q 241 -159 241 -174 q 226 -123 241 -138 q 187 -109 210 -109 q 179 -109 184 -109 q 170 -110 175 -109 l 245 11 z "},"":{"ha":416,"x_min":92,"x_max":323,"o":"m 92 880 l 231 939 l 255 939 l 255 537 q 256 508 255 519 q 258 491 256 497 q 262 482 259 485 q 270 477 265 479 q 323 472 282 472 l 323 450 l 103 450 l 103 472 q 135 473 123 472 q 154 475 147 473 q 164 480 161 477 q 169 488 167 484 q 172 537 172 496 l 172 791 q 171 835 172 819 q 168 860 170 852 q 160 871 165 869 q 149 874 155 874 q 103 861 136 874 l 92 880 z "},"":{"ha":431,"x_min":20,"x_max":414,"o":"m 220 939 q 297 923 261 939 q 359 881 333 907 q 399 818 385 854 q 414 740 414 781 q 398 661 414 698 q 354 595 382 623 q 289 550 326 567 q 211 534 252 534 q 136 549 171 534 q 75 590 101 564 q 35 651 50 616 q 20 729 20 687 q 35 814 20 776 q 76 880 50 852 q 139 923 102 908 q 220 939 176 939 m 201 909 q 168 902 183 909 q 140 879 152 895 q 122 839 129 863 q 115 782 115 815 q 123 704 115 742 q 145 635 130 665 q 181 587 159 606 q 231 568 203 568 q 295 598 270 568 q 321 694 321 629 q 312 773 321 734 q 288 842 304 812 q 251 891 273 873 q 201 909 229 909 z "},"":{"ha":694,"x_min":43,"x_max":651,"o":"m 350 633 l 389 633 l 651 313 l 389 -5 l 350 -5 l 515 313 l 350 633 m 43 633 l 83 633 l 350 313 l 83 -5 l 43 -5 l 208 313 l 43 633 z "},"":{"ha":1042,"x_min":91,"x_max":1018,"o":"m 91 880 l 230 939 l 254 939 l 254 537 q 254 508 254 519 q 256 491 255 497 q 261 482 258 485 q 269 477 264 479 q 322 472 281 472 l 322 450 l 102 450 l 102 472 q 134 473 121 472 q 153 475 146 473 q 162 480 159 477 q 168 488 165 484 q 171 537 171 496 l 171 791 q 170 835 171 819 q 166 860 169 852 q 159 871 163 869 q 147 874 154 874 q 102 861 134 874 l 91 880 m 876 939 l 243 -37 l 182 -37 l 816 939 l 876 939 m 1018 152 l 1018 97 l 945 97 l 945 -27 l 865 -27 l 865 97 l 633 97 l 633 146 l 888 462 l 945 462 l 945 152 l 1018 152 m 865 152 l 865 366 l 689 152 l 865 152 z "},"":{"ha":1042,"x_min":91,"x_max":1013,"o":"m 91 880 l 230 939 l 254 939 l 254 537 q 254 508 254 519 q 256 491 255 497 q 261 482 258 485 q 269 477 264 479 q 322 472 281 472 l 322 450 l 102 450 l 102 472 q 134 473 121 472 q 153 475 146 473 q 162 480 159 477 q 168 488 165 484 q 171 537 171 496 l 171 791 q 170 835 171 819 q 166 860 169 852 q 159 871 163 869 q 147 874 154 874 q 102 861 134 874 l 91 880 m 860 939 l 226 -37 l 165 -37 l 800 939 l 860 939 m 1013 77 l 972 -27 l 637 -27 l 637 -7 q 859 205 804 123 q 893 302 893 256 q 886 341 893 323 q 865 372 878 359 q 833 393 852 385 q 794 400 815 400 q 726 380 755 400 q 682 320 697 361 l 652 320 q 704 424 661 386 q 816 462 747 462 q 882 451 852 462 q 933 421 911 439 q 966 380 954 403 q 978 334 978 357 q 945 238 978 289 q 745 39 895 161 l 872 39 q 921 40 902 39 q 951 46 939 42 q 969 58 962 50 q 983 77 976 65 l 1013 77 z "},"":{"ha":1042,"x_min":28,"x_max":1018,"o":"m 866 939 l 235 -37 l 174 -37 l 808 939 l 866 939 m 36 833 q 103 915 64 892 q 192 939 142 939 q 248 930 223 939 q 291 907 273 921 q 317 875 308 893 q 326 839 326 857 q 255 734 326 793 q 329 684 304 716 q 353 610 353 651 q 338 545 353 576 q 295 491 323 514 q 224 454 267 467 q 128 440 182 440 q 55 452 81 440 q 28 483 28 463 q 40 504 28 494 q 68 513 51 513 q 92 508 77 513 q 123 497 106 503 q 157 486 140 491 q 185 481 174 481 q 221 488 204 481 q 251 508 238 496 q 270 536 263 520 q 277 570 277 553 q 268 615 277 595 q 240 651 259 635 q 191 674 220 666 q 120 683 161 683 l 120 702 q 168 711 145 702 q 207 734 191 720 q 234 768 224 749 q 243 807 243 787 q 221 861 243 840 q 161 882 199 882 q 62 823 103 882 l 36 833 m 1018 152 l 1018 97 l 945 97 l 945 -27 l 866 -27 l 866 97 l 633 97 l 633 146 l 888 462 l 945 462 l 945 152 l 1018 152 m 866 152 l 866 366 l 690 152 l 866 152 z "},"":{"ha":616,"x_min":60,"x_max":559,"o":"m 307 661 q 336 655 322 661 q 359 639 349 649 q 376 615 370 629 q 382 586 382 602 q 376 557 382 570 q 359 533 370 543 q 336 517 349 523 q 307 511 322 511 q 277 517 291 511 q 254 533 264 523 q 237 557 243 543 q 231 586 231 570 q 237 615 231 602 q 254 639 243 629 q 277 655 264 649 q 307 661 291 661 m 299 425 l 326 425 q 320 349 324 382 q 309 291 315 316 q 239 124 295 242 q 184 -72 184 7 q 196 -152 184 -117 q 229 -210 208 -186 q 280 -247 250 -234 q 344 -259 309 -259 q 397 -251 373 -259 q 437 -231 420 -243 q 462 -202 453 -218 q 471 -170 471 -186 q 464 -146 471 -161 q 450 -113 458 -130 q 435 -80 441 -96 q 429 -55 429 -64 q 445 -16 429 -32 q 484 0 461 0 q 511 -7 498 0 q 535 -28 524 -15 q 552 -61 546 -42 q 559 -103 559 -80 q 542 -177 559 -142 q 492 -240 524 -212 q 415 -283 460 -267 q 312 -300 369 -300 q 209 -283 255 -300 q 129 -236 162 -266 q 78 -168 96 -207 q 60 -85 60 -129 q 80 18 60 -29 q 120 89 94 52 q 182 168 145 126 q 275 298 255 254 q 299 425 295 344 z "},"":{"ha":1003,"x_min":11,"x_max":987,"o":"m 635 308 l 279 308 l 217 163 q 194 83 194 110 q 198 63 194 72 q 213 46 201 54 q 245 33 224 38 q 300 25 267 28 l 300 0 l 11 0 l 11 25 q 85 52 68 35 q 122 101 103 68 q 162 184 140 134 l 486 941 l 509 941 l 829 176 q 866 99 849 128 q 900 55 882 71 q 938 33 918 39 q 987 25 959 26 l 987 0 l 625 0 l 625 25 q 670 31 652 26 q 699 43 688 36 q 714 60 709 51 q 718 81 718 70 q 712 120 719 96 q 691 176 705 143 l 635 308 m 616 358 l 460 730 l 300 358 l 616 358 m 349 1170 l 500 1170 l 572 983 l 549 983 l 349 1170 z "},"":{"ha":1003,"x_min":11,"x_max":987,"o":"m 635 308 l 279 308 l 217 163 q 194 83 194 110 q 198 63 194 72 q 213 46 201 54 q 245 33 224 38 q 300 25 267 28 l 300 0 l 11 0 l 11 25 q 85 52 68 35 q 122 101 103 68 q 162 184 140 134 l 486 941 l 509 941 l 829 176 q 866 99 849 128 q 900 55 882 71 q 938 33 918 39 q 987 25 959 26 l 987 0 l 625 0 l 625 25 q 670 31 652 26 q 699 43 688 36 q 714 60 709 51 q 718 81 718 70 q 712 120 719 96 q 691 176 705 143 l 635 308 m 616 358 l 460 730 l 300 358 l 616 358 m 646 1170 l 447 983 l 423 983 l 495 1170 l 646 1170 z "},"":{"ha":1003,"x_min":11,"x_max":987,"o":"m 635 308 l 279 308 l 217 163 q 194 83 194 110 q 198 63 194 72 q 213 46 201 54 q 245 33 224 38 q 300 25 267 28 l 300 0 l 11 0 l 11 25 q 85 52 68 35 q 122 101 103 68 q 162 184 140 134 l 486 941 l 509 941 l 829 176 q 866 99 849 128 q 900 55 882 71 q 938 33 918 39 q 987 25 959 26 l 987 0 l 625 0 l 625 25 q 670 31 652 26 q 699 43 688 36 q 714 60 709 51 q 718 81 718 70 q 712 120 719 96 q 691 176 705 143 l 635 308 m 616 358 l 460 730 l 300 358 l 616 358 m 439 1170 l 564 1170 l 679 972 l 658 972 l 490 1090 l 345 972 l 324 972 l 439 1170 z "},"":{"ha":1003,"x_min":11,"x_max":987,"o":"m 635 308 l 279 308 l 217 163 q 194 83 194 110 q 198 63 194 72 q 213 46 201 54 q 245 33 224 38 q 300 25 267 28 l 300 0 l 11 0 l 11 25 q 85 52 68 35 q 122 101 103 68 q 162 184 140 134 l 486 941 l 509 941 l 829 176 q 866 99 849 128 q 900 55 882 71 q 938 33 918 39 q 987 25 959 26 l 987 0 l 625 0 l 625 25 q 670 31 652 26 q 699 43 688 36 q 714 60 709 51 q 718 81 718 70 q 712 120 719 96 q 691 176 705 143 l 635 308 m 616 358 l 460 730 l 300 358 l 616 358 m 307 995 l 285 995 q 297 1075 286 1042 q 324 1129 307 1108 q 363 1161 341 1151 q 412 1171 386 1171 q 442 1168 429 1171 q 471 1159 456 1166 q 505 1141 486 1152 q 549 1113 524 1130 q 598 1085 577 1094 q 633 1076 619 1076 q 653 1080 643 1076 q 671 1094 663 1084 q 686 1123 679 1105 q 697 1171 692 1141 l 718 1171 q 708 1093 718 1126 q 680 1037 698 1059 q 639 1003 663 1015 q 589 992 616 992 q 456 1046 536 992 q 421 1070 434 1061 q 399 1082 408 1078 q 384 1087 390 1086 q 370 1088 377 1088 q 326 1063 342 1088 q 317 1041 322 1058 q 307 995 312 1023 z "},"":{"ha":1003,"x_min":11,"x_max":987,"o":"m 635 308 l 279 308 l 217 163 q 194 83 194 110 q 198 63 194 72 q 213 46 201 54 q 245 33 224 38 q 300 25 267 28 l 300 0 l 11 0 l 11 25 q 85 52 68 35 q 122 101 103 68 q 162 184 140 134 l 486 941 l 509 941 l 829 176 q 866 99 849 128 q 900 55 882 71 q 938 33 918 39 q 987 25 959 26 l 987 0 l 625 0 l 625 25 q 670 31 652 26 q 699 43 688 36 q 714 60 709 51 q 718 81 718 70 q 712 120 719 96 q 691 176 705 143 l 635 308 m 616 358 l 460 730 l 300 358 l 616 358 m 621 1158 q 650 1152 636 1158 q 673 1136 663 1146 q 689 1112 683 1126 q 694 1084 694 1099 q 689 1055 694 1068 q 673 1032 683 1042 q 650 1016 663 1022 q 621 1010 636 1010 q 592 1016 606 1010 q 569 1032 579 1022 q 553 1055 559 1042 q 547 1084 547 1068 q 553 1112 547 1099 q 569 1136 559 1126 q 592 1152 579 1146 q 621 1158 606 1158 m 382 1158 q 411 1152 397 1158 q 434 1136 425 1146 q 450 1112 444 1126 q 456 1084 456 1099 q 450 1055 456 1068 q 434 1032 444 1042 q 411 1016 424 1022 q 382 1010 397 1010 q 354 1016 367 1010 q 330 1032 340 1022 q 314 1055 320 1042 q 309 1084 309 1068 q 314 1112 309 1099 q 330 1136 320 1126 q 353 1152 340 1146 q 382 1158 366 1158 z "},"":{"ha":1003,"x_min":11,"x_max":987,"o":"m 635 308 l 279 308 l 217 163 q 194 83 194 110 q 198 63 194 72 q 213 46 201 54 q 245 33 224 38 q 300 25 267 28 l 300 0 l 11 0 l 11 25 q 85 52 68 35 q 122 101 103 68 q 162 184 140 134 l 486 941 l 509 941 l 829 176 q 866 99 849 128 q 900 55 882 71 q 938 33 918 39 q 987 25 959 26 l 987 0 l 625 0 l 625 25 q 670 31 652 26 q 699 43 688 36 q 714 60 709 51 q 718 81 718 70 q 712 120 719 96 q 691 176 705 143 l 635 308 m 616 358 l 460 730 l 300 358 l 616 358 m 497 1202 q 547 1192 524 1202 q 589 1164 571 1182 q 617 1123 607 1147 q 627 1073 627 1099 q 617 1022 627 1046 q 589 981 607 998 q 548 953 572 963 q 497 943 524 943 q 447 953 471 943 q 406 981 423 963 q 378 1023 388 999 q 368 1073 368 1046 q 378 1123 368 1100 q 406 1164 388 1147 q 447 1192 423 1182 q 497 1202 470 1202 m 497 1156 q 465 1149 480 1156 q 438 1132 450 1143 q 421 1105 427 1120 q 414 1073 414 1090 q 421 1041 414 1056 q 438 1014 427 1025 q 465 997 450 1003 q 497 990 480 990 q 529 997 514 990 q 556 1015 545 1004 q 573 1041 567 1026 q 580 1073 580 1056 q 573 1105 580 1090 q 556 1132 567 1120 q 529 1149 545 1143 q 497 1156 514 1156 z "},"":{"ha":1235,"x_min":-16,"x_max":1196,"o":"m 696 869 l 696 506 l 871 506 q 937 513 910 506 q 981 535 964 519 q 1007 576 998 551 q 1018 640 1015 602 l 1042 640 l 1042 320 l 1018 320 q 1009 376 1014 355 q 996 412 1004 398 q 977 433 988 425 q 949 449 966 441 q 871 456 933 456 l 696 456 l 696 152 q 701 78 696 90 q 708 67 703 72 q 721 58 713 62 q 742 52 729 54 q 774 50 755 50 l 898 50 q 963 53 935 50 q 1012 62 990 55 q 1052 80 1034 68 q 1089 110 1069 92 q 1171 231 1139 157 l 1196 231 l 1123 0 l 433 0 l 433 25 l 467 25 q 550 58 524 25 q 566 162 566 79 l 566 356 l 298 356 l 214 198 q 166 81 166 109 q 170 62 166 71 q 186 46 174 53 q 219 33 198 39 q 273 25 239 28 l 273 0 l -16 0 l -16 25 q 23 32 5 26 q 59 56 41 39 q 98 104 77 73 q 145 186 118 136 l 425 709 q 477 840 477 806 q 471 861 477 852 q 452 877 466 870 q 416 888 439 884 q 359 895 394 892 l 359 920 l 1113 920 l 1113 718 l 1100 718 q 1073 813 1092 778 q 1013 863 1054 848 q 921 869 995 869 l 696 869 m 566 869 l 324 406 l 566 406 l 566 869 z "},"":{"ha":926,"x_min":50,"x_max":878,"o":"m 836 941 l 857 628 l 836 628 q 785 748 815 698 q 716 830 755 798 q 631 877 677 862 q 529 892 584 892 q 366 847 437 892 q 252 708 294 802 q 217 591 229 656 q 205 444 205 526 q 245 228 205 320 q 296 146 265 181 q 366 87 327 111 q 452 51 406 63 q 549 39 498 39 q 647 50 606 39 q 722 85 688 62 q 788 145 756 109 q 857 229 819 181 l 878 216 q 804 110 844 155 q 717 36 764 65 q 615 -7 670 7 q 498 -21 561 -21 q 144 149 269 -21 q 50 446 50 275 q 73 605 50 528 q 142 747 95 682 q 216 829 174 793 q 306 890 258 865 q 408 928 355 915 q 518 941 462 941 q 715 892 618 941 q 755 877 745 876 q 792 895 777 877 q 812 941 806 913 l 836 941 m 476 11 l 517 11 l 483 -43 q 547 -79 526 -54 q 568 -142 568 -105 q 557 -189 568 -166 q 526 -228 546 -211 q 480 -254 507 -244 q 422 -264 453 -264 q 393 -263 409 -264 q 358 -260 378 -262 l 358 -231 q 376 -233 368 -232 q 391 -233 384 -233 q 422 -227 408 -233 q 449 -211 437 -221 q 466 -187 460 -201 q 473 -159 473 -174 q 457 -123 473 -138 q 418 -109 441 -109 q 411 -109 415 -109 q 401 -110 406 -109 l 476 11 z "},"":{"ha":848,"x_min":28,"x_max":817,"o":"m 290 869 l 290 506 l 492 506 q 564 514 536 506 q 607 538 591 522 q 629 580 623 555 q 637 640 635 605 l 662 640 l 662 319 l 637 319 q 627 375 632 353 q 618 406 623 396 q 602 427 612 418 q 578 443 593 436 q 542 453 563 450 q 492 456 521 456 l 290 456 l 290 153 q 296 79 290 93 q 302 67 298 73 q 314 58 307 62 q 335 52 322 54 q 366 50 347 50 l 522 50 q 589 53 562 50 q 636 61 616 55 q 671 77 656 66 q 703 104 686 87 q 746 156 724 124 q 789 231 768 188 l 817 231 l 737 0 l 28 0 l 28 25 l 61 25 q 88 28 74 25 q 115 37 102 31 q 138 52 127 43 q 152 73 148 61 q 160 162 160 94 l 160 760 q 142 867 160 846 q 61 895 118 895 l 28 895 l 28 920 l 737 920 l 737 718 l 721 718 q 706 779 713 755 q 689 818 699 802 q 667 843 680 833 q 638 859 655 852 q 543 869 610 869 l 290 869 m 329 1170 l 480 1170 l 552 983 l 528 983 l 329 1170 z "},"":{"ha":848,"x_min":28,"x_max":817,"o":"m 290 869 l 290 506 l 492 506 q 564 514 536 506 q 607 538 591 522 q 629 580 623 555 q 637 640 635 605 l 662 640 l 662 319 l 637 319 q 627 375 632 353 q 618 406 623 396 q 602 427 612 418 q 578 443 593 436 q 542 453 563 450 q 492 456 521 456 l 290 456 l 290 153 q 296 79 290 93 q 302 67 298 73 q 314 58 307 62 q 335 52 322 54 q 366 50 347 50 l 522 50 q 589 53 562 50 q 636 61 616 55 q 671 77 656 66 q 703 104 686 87 q 746 156 724 124 q 789 231 768 188 l 817 231 l 737 0 l 28 0 l 28 25 l 61 25 q 88 28 74 25 q 115 37 102 31 q 138 52 127 43 q 152 73 148 61 q 160 162 160 94 l 160 760 q 142 867 160 846 q 61 895 118 895 l 28 895 l 28 920 l 737 920 l 737 718 l 721 718 q 706 779 713 755 q 689 818 699 802 q 667 843 680 833 q 638 859 655 852 q 543 869 610 869 l 290 869 m 524 1170 l 325 983 l 301 983 l 373 1170 l 524 1170 z "},"":{"ha":848,"x_min":28,"x_max":817,"o":"m 290 869 l 290 506 l 492 506 q 564 514 536 506 q 607 538 591 522 q 629 580 623 555 q 637 640 635 605 l 662 640 l 662 319 l 637 319 q 627 375 632 353 q 618 406 623 396 q 602 427 612 418 q 578 443 593 436 q 542 453 563 450 q 492 456 521 456 l 290 456 l 290 153 q 296 79 290 93 q 302 67 298 73 q 314 58 307 62 q 335 52 322 54 q 366 50 347 50 l 522 50 q 589 53 562 50 q 636 61 616 55 q 671 77 656 66 q 703 104 686 87 q 746 156 724 124 q 789 231 768 188 l 817 231 l 737 0 l 28 0 l 28 25 l 61 25 q 88 28 74 25 q 115 37 102 31 q 138 52 127 43 q 152 73 148 61 q 160 162 160 94 l 160 760 q 142 867 160 846 q 61 895 118 895 l 28 895 l 28 920 l 737 920 l 737 718 l 721 718 q 706 779 713 755 q 689 818 699 802 q 667 843 680 833 q 638 859 655 852 q 543 869 610 869 l 290 869 m 357 1170 l 482 1170 l 597 972 l 576 972 l 408 1090 l 263 972 l 243 972 l 357 1170 z "},"":{"ha":848,"x_min":28,"x_max":817,"o":"m 290 869 l 290 506 l 492 506 q 564 514 536 506 q 607 538 591 522 q 629 580 623 555 q 637 640 635 605 l 662 640 l 662 319 l 637 319 q 627 375 632 353 q 618 406 623 396 q 602 427 612 418 q 578 443 593 436 q 542 453 563 450 q 492 456 521 456 l 290 456 l 290 153 q 296 79 290 93 q 302 67 298 73 q 314 58 307 62 q 335 52 322 54 q 366 50 347 50 l 522 50 q 589 53 562 50 q 636 61 616 55 q 671 77 656 66 q 703 104 686 87 q 746 156 724 124 q 789 231 768 188 l 817 231 l 737 0 l 28 0 l 28 25 l 61 25 q 88 28 74 25 q 115 37 102 31 q 138 52 127 43 q 152 73 148 61 q 160 162 160 94 l 160 760 q 142 867 160 846 q 61 895 118 895 l 28 895 l 28 920 l 737 920 l 737 718 l 721 718 q 706 779 713 755 q 689 818 699 802 q 667 843 680 833 q 638 859 655 852 q 543 869 610 869 l 290 869 m 544 1158 q 572 1152 559 1158 q 596 1136 586 1146 q 611 1112 606 1126 q 617 1084 617 1099 q 611 1055 617 1068 q 596 1032 606 1042 q 572 1016 586 1022 q 544 1010 559 1010 q 515 1016 528 1010 q 492 1032 502 1022 q 476 1055 481 1042 q 470 1084 470 1068 q 476 1112 470 1099 q 492 1136 481 1126 q 515 1152 502 1146 q 544 1158 528 1158 m 304 1158 q 334 1152 320 1158 q 357 1136 347 1146 q 373 1112 367 1126 q 378 1084 378 1099 q 373 1055 378 1068 q 357 1032 367 1042 q 333 1016 347 1022 q 305 1010 320 1010 q 276 1016 290 1010 q 253 1032 263 1022 q 237 1055 243 1042 q 231 1084 231 1068 q 237 1112 231 1099 q 253 1136 243 1126 q 276 1152 262 1146 q 304 1158 289 1158 z "},"":{"ha":463,"x_min":35,"x_max":429,"o":"m 429 25 l 429 0 l 35 0 l 35 25 l 67 25 q 150 58 125 25 q 166 163 166 79 l 166 757 q 165 810 166 789 q 160 843 163 830 q 149 864 156 857 q 130 878 142 871 q 67 895 100 895 l 35 895 l 35 920 l 429 920 l 429 895 l 395 895 q 313 861 338 895 q 296 757 296 840 l 296 163 q 298 110 296 130 q 303 77 299 90 q 314 56 307 64 q 334 41 321 48 q 395 25 363 25 l 429 25 m 128 1170 l 279 1170 l 351 983 l 328 983 l 128 1170 z "},"":{"ha":463,"x_min":35,"x_max":429,"o":"m 429 25 l 429 0 l 35 0 l 35 25 l 67 25 q 150 58 125 25 q 166 163 166 79 l 166 757 q 165 810 166 789 q 160 843 163 830 q 149 864 156 857 q 130 878 142 871 q 67 895 100 895 l 35 895 l 35 920 l 429 920 l 429 895 l 395 895 q 313 861 338 895 q 296 757 296 840 l 296 163 q 298 110 296 130 q 303 77 299 90 q 314 56 307 64 q 334 41 321 48 q 395 25 363 25 l 429 25 m 370 1170 l 170 983 l 146 983 l 218 1170 l 370 1170 z "},"":{"ha":463,"x_min":35,"x_max":429,"o":"m 429 25 l 429 0 l 35 0 l 35 25 l 67 25 q 150 58 125 25 q 166 163 166 79 l 166 757 q 165 810 166 789 q 160 843 163 830 q 149 864 156 857 q 130 878 142 871 q 67 895 100 895 l 35 895 l 35 920 l 429 920 l 429 895 l 395 895 q 313 861 338 895 q 296 757 296 840 l 296 163 q 298 110 296 130 q 303 77 299 90 q 314 56 307 64 q 334 41 321 48 q 395 25 363 25 l 429 25 m 168 1170 l 293 1170 l 408 972 l 387 972 l 219 1090 l 74 972 l 54 972 l 168 1170 z "},"":{"ha":463,"x_min":35,"x_max":429,"o":"m 429 25 l 429 0 l 35 0 l 35 25 l 67 25 q 150 58 125 25 q 166 163 166 79 l 166 757 q 165 810 166 789 q 160 843 163 830 q 149 864 156 857 q 130 878 142 871 q 67 895 100 895 l 35 895 l 35 920 l 429 920 l 429 895 l 395 895 q 313 861 338 895 q 296 757 296 840 l 296 163 q 298 110 296 130 q 303 77 299 90 q 314 56 307 64 q 334 41 321 48 q 395 25 363 25 l 429 25 m 351 1158 q 380 1152 366 1158 q 403 1136 393 1146 q 419 1112 413 1126 q 425 1084 425 1099 q 419 1055 425 1068 q 403 1032 413 1042 q 380 1016 393 1022 q 351 1010 366 1010 q 322 1016 336 1010 q 299 1032 309 1022 q 283 1055 289 1042 q 277 1084 277 1068 q 283 1112 277 1099 q 299 1136 289 1126 q 322 1152 309 1146 q 351 1158 336 1158 m 112 1158 q 141 1152 127 1158 q 164 1136 155 1146 q 180 1112 174 1126 q 186 1084 186 1099 q 180 1055 186 1068 q 164 1032 174 1042 q 141 1016 154 1022 q 113 1010 127 1010 q 84 1016 97 1010 q 60 1032 71 1022 q 44 1055 50 1042 q 39 1084 39 1068 q 44 1112 39 1099 q 60 1136 50 1126 q 83 1152 70 1146 q 112 1158 96 1158 z "},"":{"ha":1003,"x_min":24,"x_max":949,"o":"m 24 0 l 24 25 l 58 25 q 142 63 116 25 q 156 163 156 84 l 156 460 l 24 460 l 24 510 l 156 510 l 156 757 q 137 865 156 844 q 58 895 111 895 l 24 895 l 24 920 l 398 920 q 714 871 611 920 q 883 715 817 822 q 949 466 949 608 q 825 136 949 271 q 434 0 701 0 l 24 0 m 287 68 q 431 49 372 49 q 576 78 509 49 q 691 160 642 106 q 768 289 740 213 q 795 459 795 365 q 768 630 795 554 q 691 759 741 706 q 574 841 642 812 q 426 869 506 869 q 361 864 395 869 q 287 850 326 859 l 287 510 l 553 510 l 553 460 l 287 460 l 287 68 z "},"":{"ha":1003,"x_min":-18,"x_max":983,"o":"m -18 920 l 231 920 l 793 230 l 793 760 q 774 866 793 845 q 695 895 749 895 l 663 895 l 663 920 l 983 920 l 983 895 l 951 895 q 868 859 892 895 q 853 760 853 838 l 853 -15 l 829 -15 l 222 726 l 222 159 q 241 54 222 75 q 320 25 266 25 l 353 25 l 353 0 l 33 0 l 33 25 l 64 25 q 148 60 123 25 q 163 159 163 81 l 163 799 q 129 837 142 823 q 103 860 115 851 q 77 875 91 869 q 41 888 62 881 q -18 895 22 895 l -18 920 m 307 995 l 285 995 q 297 1075 286 1042 q 324 1129 307 1108 q 363 1161 341 1151 q 412 1171 386 1171 q 442 1168 429 1171 q 471 1159 456 1166 q 505 1141 486 1152 q 549 1113 524 1130 q 598 1085 577 1094 q 633 1076 619 1076 q 653 1080 643 1076 q 671 1094 663 1084 q 686 1123 679 1105 q 697 1171 692 1141 l 718 1171 q 708 1093 718 1126 q 680 1037 698 1059 q 639 1003 663 1015 q 589 992 616 992 q 456 1046 536 992 q 421 1070 434 1061 q 399 1082 408 1078 q 384 1087 390 1086 q 370 1088 377 1088 q 326 1063 342 1088 q 317 1041 322 1058 q 307 995 312 1023 z "},"":{"ha":1003,"x_min":49,"x_max":949,"o":"m 508 941 q 818 804 686 941 q 949 465 949 669 q 817 117 949 256 q 497 -21 685 -21 q 178 114 307 -21 q 49 463 49 249 q 198 821 49 682 q 508 941 328 941 m 495 891 q 371 861 425 891 q 280 776 317 831 q 223 642 243 721 q 204 466 204 564 q 223 288 204 369 q 279 150 242 208 q 370 59 316 92 q 496 27 425 27 q 614 52 559 27 q 709 127 669 76 q 771 258 749 178 q 794 447 794 337 q 775 634 794 552 q 719 774 757 717 q 626 861 682 831 q 495 891 570 891 m 376 1170 l 528 1170 l 600 983 l 576 983 l 376 1170 z "},"":{"ha":1003,"x_min":49,"x_max":949,"o":"m 508 941 q 818 804 686 941 q 949 465 949 669 q 817 117 949 256 q 497 -21 685 -21 q 178 114 307 -21 q 49 463 49 249 q 198 821 49 682 q 508 941 328 941 m 495 891 q 371 861 425 891 q 280 776 317 831 q 223 642 243 721 q 204 466 204 564 q 223 288 204 369 q 279 150 242 208 q 370 59 316 92 q 496 27 425 27 q 614 52 559 27 q 709 127 669 76 q 771 258 749 178 q 794 447 794 337 q 775 634 794 552 q 719 774 757 717 q 626 861 682 831 q 495 891 570 891 m 646 1170 l 447 983 l 423 983 l 495 1170 l 646 1170 z "},"":{"ha":1003,"x_min":49,"x_max":949,"o":"m 508 941 q 818 804 686 941 q 949 465 949 669 q 817 117 949 256 q 497 -21 685 -21 q 178 114 307 -21 q 49 463 49 249 q 198 821 49 682 q 508 941 328 941 m 495 891 q 371 861 425 891 q 280 776 317 831 q 223 642 243 721 q 204 466 204 564 q 223 288 204 369 q 279 150 242 208 q 370 59 316 92 q 496 27 425 27 q 614 52 559 27 q 709 127 669 76 q 771 258 749 178 q 794 447 794 337 q 775 634 794 552 q 719 774 757 717 q 626 861 682 831 q 495 891 570 891 m 439 1170 l 564 1170 l 679 972 l 658 972 l 490 1090 l 345 972 l 324 972 l 439 1170 z "},"":{"ha":1003,"x_min":49,"x_max":949,"o":"m 508 941 q 818 804 686 941 q 949 465 949 669 q 817 117 949 256 q 497 -21 685 -21 q 178 114 307 -21 q 49 463 49 249 q 198 821 49 682 q 508 941 328 941 m 495 891 q 371 861 425 891 q 280 776 317 831 q 223 642 243 721 q 204 466 204 564 q 223 288 204 369 q 279 150 242 208 q 370 59 316 92 q 496 27 425 27 q 614 52 559 27 q 709 127 669 76 q 771 258 749 178 q 794 447 794 337 q 775 634 794 552 q 719 774 757 717 q 626 861 682 831 q 495 891 570 891 m 307 995 l 285 995 q 297 1075 286 1042 q 324 1129 307 1108 q 363 1161 341 1151 q 412 1171 386 1171 q 442 1168 429 1171 q 471 1159 456 1166 q 505 1141 486 1152 q 549 1113 524 1130 q 598 1085 577 1094 q 633 1076 619 1076 q 653 1080 643 1076 q 671 1094 663 1084 q 686 1123 679 1105 q 697 1171 692 1141 l 718 1171 q 708 1093 718 1126 q 680 1037 698 1059 q 639 1003 663 1015 q 589 992 616 992 q 456 1046 536 992 q 421 1070 434 1061 q 399 1082 408 1078 q 384 1087 390 1086 q 370 1088 377 1088 q 326 1063 342 1088 q 317 1041 322 1058 q 307 995 312 1023 z "},"":{"ha":1003,"x_min":49,"x_max":949,"o":"m 508 941 q 818 804 686 941 q 949 465 949 669 q 817 117 949 256 q 497 -21 685 -21 q 178 114 307 -21 q 49 463 49 249 q 198 821 49 682 q 508 941 328 941 m 495 891 q 371 861 425 891 q 280 776 317 831 q 223 642 243 721 q 204 466 204 564 q 223 288 204 369 q 279 150 242 208 q 370 59 316 92 q 496 27 425 27 q 614 52 559 27 q 709 127 669 76 q 771 258 749 178 q 794 447 794 337 q 775 634 794 552 q 719 774 757 717 q 626 861 682 831 q 495 891 570 891 m 621 1158 q 650 1152 636 1158 q 673 1136 663 1146 q 689 1112 683 1126 q 694 1084 694 1099 q 689 1055 694 1068 q 673 1032 683 1042 q 650 1016 663 1022 q 621 1010 636 1010 q 592 1016 606 1010 q 569 1032 579 1022 q 553 1055 559 1042 q 547 1084 547 1068 q 553 1112 547 1099 q 569 1136 559 1126 q 592 1152 579 1146 q 621 1158 606 1158 m 382 1158 q 411 1152 397 1158 q 434 1136 425 1146 q 450 1112 444 1126 q 456 1084 456 1099 q 450 1055 456 1068 q 434 1032 444 1042 q 411 1016 424 1022 q 382 1010 397 1010 q 354 1016 367 1010 q 330 1032 340 1022 q 314 1055 320 1042 q 309 1084 309 1068 q 314 1112 309 1099 q 330 1136 320 1126 q 353 1152 340 1146 q 382 1158 366 1158 z "},"":{"ha":783,"x_min":112,"x_max":669,"o":"m 112 222 l 351 462 l 113 701 l 152 740 l 391 501 l 629 740 l 667 701 l 429 463 l 669 222 l 630 183 l 390 423 l 151 184 l 112 222 z "},"":{"ha":1003,"x_min":50,"x_max":950,"o":"m 778 840 l 867 949 l 906 920 l 816 806 q 877 728 851 766 q 918 650 902 690 q 942 565 935 610 q 950 466 950 520 q 935 342 950 403 q 891 228 920 282 q 824 129 863 174 q 734 50 784 83 q 627 -2 685 16 q 505 -21 569 -21 q 432 -15 470 -21 q 356 4 393 -8 q 284 35 319 17 q 224 76 250 53 l 136 -32 l 96 0 l 186 111 q 50 469 50 252 q 65 593 50 533 q 110 705 81 652 q 180 801 139 758 q 271 875 221 844 q 380 923 321 906 q 503 941 439 941 q 778 840 656 941 m 721 770 q 499 892 643 892 q 397 875 441 892 q 321 828 353 858 q 266 757 288 798 q 230 670 243 716 q 211 573 216 623 q 205 473 205 522 q 254 196 205 315 l 721 770 m 747 721 l 282 147 q 378 55 325 81 q 495 28 432 28 q 596 45 552 28 q 674 92 641 62 q 730 161 707 121 q 767 248 753 201 q 787 345 781 294 q 793 445 793 395 q 791 519 793 485 q 784 585 789 553 q 769 650 779 617 q 747 721 760 683 z "},"":{"ha":1003,"x_min":7,"x_max":988,"o":"m 663 895 l 663 920 l 988 920 l 988 895 l 954 895 q 870 849 899 895 q 856 751 856 827 l 856 378 q 828 163 856 241 q 778 79 810 114 q 703 22 745 44 q 609 -11 660 -1 q 502 -22 557 -22 q 273 31 352 -22 q 197 99 224 63 q 158 179 170 136 q 143 276 145 223 q 141 397 141 330 l 141 757 q 135 827 141 800 q 117 869 130 854 q 86 889 105 884 q 42 895 68 895 l 7 895 l 7 920 l 405 920 l 405 895 l 370 895 q 317 885 337 895 q 288 859 298 876 q 274 815 277 841 q 271 757 271 789 l 271 356 q 273 289 271 322 q 281 225 275 256 q 298 166 288 194 q 326 116 309 139 q 396 58 352 79 q 510 37 441 37 q 596 47 555 37 q 671 76 637 58 q 730 120 705 95 q 768 176 755 146 q 795 385 795 238 l 795 757 q 776 865 795 844 q 697 895 749 895 l 663 895 m 376 1170 l 528 1170 l 600 983 l 576 983 l 376 1170 z "},"":{"ha":1003,"x_min":7,"x_max":988,"o":"m 663 895 l 663 920 l 988 920 l 988 895 l 954 895 q 870 849 899 895 q 856 751 856 827 l 856 378 q 828 163 856 241 q 778 79 810 114 q 703 22 745 44 q 609 -11 660 -1 q 502 -22 557 -22 q 273 31 352 -22 q 197 99 224 63 q 158 179 170 136 q 143 276 145 223 q 141 397 141 330 l 141 757 q 135 827 141 800 q 117 869 130 854 q 86 889 105 884 q 42 895 68 895 l 7 895 l 7 920 l 405 920 l 405 895 l 370 895 q 317 885 337 895 q 288 859 298 876 q 274 815 277 841 q 271 757 271 789 l 271 356 q 273 289 271 322 q 281 225 275 256 q 298 166 288 194 q 326 116 309 139 q 396 58 352 79 q 510 37 441 37 q 596 47 555 37 q 671 76 637 58 q 730 120 705 95 q 768 176 755 146 q 795 385 795 238 l 795 757 q 776 865 795 844 q 697 895 749 895 l 663 895 m 626 1170 l 427 983 l 403 983 l 475 1170 l 626 1170 z "},"":{"ha":1003,"x_min":7,"x_max":988,"o":"m 663 895 l 663 920 l 988 920 l 988 895 l 954 895 q 870 849 899 895 q 856 751 856 827 l 856 378 q 828 163 856 241 q 778 79 810 114 q 703 22 745 44 q 609 -11 660 -1 q 502 -22 557 -22 q 273 31 352 -22 q 197 99 224 63 q 158 179 170 136 q 143 276 145 223 q 141 397 141 330 l 141 757 q 135 827 141 800 q 117 869 130 854 q 86 889 105 884 q 42 895 68 895 l 7 895 l 7 920 l 405 920 l 405 895 l 370 895 q 317 885 337 895 q 288 859 298 876 q 274 815 277 841 q 271 757 271 789 l 271 356 q 273 289 271 322 q 281 225 275 256 q 298 166 288 194 q 326 116 309 139 q 396 58 352 79 q 510 37 441 37 q 596 47 555 37 q 671 76 637 58 q 730 120 705 95 q 768 176 755 146 q 795 385 795 238 l 795 757 q 776 865 795 844 q 697 895 749 895 l 663 895 m 439 1170 l 564 1170 l 679 972 l 658 972 l 490 1090 l 345 972 l 324 972 l 439 1170 z "},"":{"ha":1003,"x_min":7,"x_max":988,"o":"m 663 895 l 663 920 l 988 920 l 988 895 l 954 895 q 870 849 899 895 q 856 751 856 827 l 856 378 q 828 163 856 241 q 778 79 810 114 q 703 22 745 44 q 609 -11 660 -1 q 502 -22 557 -22 q 273 31 352 -22 q 197 99 224 63 q 158 179 170 136 q 143 276 145 223 q 141 397 141 330 l 141 757 q 135 827 141 800 q 117 869 130 854 q 86 889 105 884 q 42 895 68 895 l 7 895 l 7 920 l 405 920 l 405 895 l 370 895 q 317 885 337 895 q 288 859 298 876 q 274 815 277 841 q 271 757 271 789 l 271 356 q 273 289 271 322 q 281 225 275 256 q 298 166 288 194 q 326 116 309 139 q 396 58 352 79 q 510 37 441 37 q 596 47 555 37 q 671 76 637 58 q 730 120 705 95 q 768 176 755 146 q 795 385 795 238 l 795 757 q 776 865 795 844 q 697 895 749 895 l 663 895 m 621 1158 q 650 1152 636 1158 q 673 1136 663 1146 q 689 1112 683 1126 q 694 1084 694 1099 q 689 1055 694 1068 q 673 1032 683 1042 q 650 1016 663 1022 q 621 1010 636 1010 q 592 1016 606 1010 q 569 1032 579 1022 q 553 1055 559 1042 q 547 1084 547 1068 q 553 1112 547 1099 q 569 1136 559 1126 q 592 1152 579 1146 q 621 1158 606 1158 m 382 1158 q 411 1152 397 1158 q 434 1136 425 1146 q 450 1112 444 1126 q 456 1084 456 1099 q 450 1055 456 1068 q 434 1032 444 1042 q 411 1016 424 1022 q 382 1010 397 1010 q 354 1016 367 1010 q 330 1032 340 1022 q 314 1055 320 1042 q 309 1084 309 1068 q 314 1112 309 1099 q 330 1136 320 1126 q 353 1152 340 1146 q 382 1158 366 1158 z "},"":{"ha":1003,"x_min":13,"x_max":983,"o":"m 662 920 l 983 920 l 983 895 l 965 895 q 943 890 957 895 q 913 879 929 886 q 882 860 898 871 q 852 834 865 848 q 821 795 838 819 q 783 739 804 772 l 562 390 l 562 159 q 581 54 562 75 q 662 25 606 25 l 692 25 l 692 0 l 301 0 l 301 25 l 334 25 q 416 60 392 25 q 431 159 431 81 l 431 377 l 179 762 q 141 818 157 797 q 118 847 126 838 q 104 859 114 851 q 81 875 95 867 q 49 889 66 883 q 13 895 32 895 l 13 920 l 406 920 l 406 895 l 386 895 q 356 891 371 895 q 328 880 340 888 q 308 862 316 873 q 300 835 300 850 q 342 747 300 810 l 534 450 l 714 734 q 755 829 755 798 q 749 855 753 843 q 734 876 744 867 q 706 890 724 885 q 662 895 688 895 l 662 920 m 646 1170 l 447 983 l 423 983 l 495 1170 l 646 1170 z "},"":{"ha":772,"x_min":24,"x_max":719,"o":"m 285 711 l 335 711 q 487 703 437 711 q 580 673 538 694 q 653 623 623 653 q 702 551 684 592 q 719 461 719 511 q 703 369 719 411 q 654 294 686 326 q 573 239 621 261 q 462 210 525 218 q 417 207 450 208 q 332 206 385 206 l 285 206 l 285 165 q 290 93 285 120 q 308 51 296 66 q 340 30 320 35 q 389 25 360 25 l 416 25 l 416 0 l 24 0 l 24 25 l 50 25 q 140 63 113 25 q 154 163 154 83 l 154 751 q 146 846 154 828 q 114 880 139 865 q 52 895 88 895 l 24 895 l 24 920 l 416 920 l 416 895 l 389 895 q 365 892 378 895 q 337 885 351 890 q 313 869 324 879 q 295 846 301 860 q 285 755 285 822 l 285 711 m 285 254 l 315 254 q 429 270 382 254 q 506 312 476 285 q 549 378 536 340 q 563 460 563 416 q 544 552 563 515 q 493 613 524 590 q 420 647 461 637 q 336 658 379 658 l 285 658 l 285 254 z "},"":{"ha":694,"x_min":24,"x_max":650,"o":"m 24 0 l 24 24 q 73 33 55 26 q 100 54 91 39 q 111 92 109 68 q 113 153 113 115 l 113 655 q 130 800 113 741 q 177 895 146 859 q 253 948 208 932 q 355 964 298 964 q 454 948 410 964 q 529 902 498 931 q 577 832 560 873 q 594 744 594 791 q 588 685 594 712 q 567 635 582 659 q 527 592 552 612 q 465 557 502 573 q 603 463 557 530 q 650 286 650 396 q 634 175 650 229 q 588 81 618 122 q 517 16 559 40 q 422 -9 475 -9 q 369 0 393 -9 q 328 24 345 9 q 301 59 311 39 q 292 101 292 79 q 307 145 292 130 q 346 160 321 160 q 387 145 372 160 q 401 106 401 131 q 398 79 401 93 q 395 60 395 66 q 405 39 395 48 q 433 29 415 29 q 508 77 481 29 q 534 212 534 125 q 522 339 534 282 q 485 435 509 395 q 422 498 460 475 q 334 525 385 522 l 334 564 q 443 606 406 564 q 480 747 480 648 q 471 825 480 793 q 445 879 462 858 q 403 910 427 900 q 350 920 379 920 q 301 910 323 920 q 261 877 278 901 q 235 811 245 853 q 226 703 226 769 l 226 0 l 24 0 z "},"":{"ha":616,"x_min":50,"x_max":614,"o":"m 395 90 q 275 4 300 15 q 197 -13 239 -13 q 138 -1 165 -13 q 92 31 111 10 q 61 82 72 52 q 50 147 50 111 q 57 196 50 174 q 78 238 64 218 q 114 277 92 258 q 166 313 136 295 q 395 412 236 354 l 395 436 q 388 514 395 483 q 365 564 380 545 q 329 590 351 583 q 280 598 307 598 q 241 592 258 598 q 212 575 224 585 q 193 550 199 564 q 186 522 186 536 l 188 483 q 172 435 188 452 q 130 418 156 418 q 89 435 105 418 q 73 484 73 453 q 89 540 73 512 q 133 590 104 568 q 204 626 161 612 q 300 640 246 640 q 422 618 372 640 q 495 546 473 597 q 507 427 507 516 l 507 216 q 508 144 507 171 q 511 106 509 117 q 522 80 514 87 q 540 73 530 73 q 553 75 547 73 q 567 83 559 77 q 586 100 575 90 q 614 127 597 111 l 614 90 q 469 -12 537 -12 q 416 11 436 -12 q 395 90 395 34 m 395 134 l 395 370 q 311 336 344 350 q 263 313 278 321 q 186 250 210 282 q 163 179 163 218 q 171 134 163 155 q 192 98 179 113 q 223 74 205 83 q 260 66 241 66 q 395 134 311 66 m 197 943 l 348 943 l 420 709 l 396 709 l 197 943 z "},"":{"ha":616,"x_min":50,"x_max":614,"o":"m 395 90 q 275 4 300 15 q 197 -13 239 -13 q 138 -1 165 -13 q 92 31 111 10 q 61 82 72 52 q 50 147 50 111 q 57 196 50 174 q 78 238 64 218 q 114 277 92 258 q 166 313 136 295 q 395 412 236 354 l 395 436 q 388 514 395 483 q 365 564 380 545 q 329 590 351 583 q 280 598 307 598 q 241 592 258 598 q 212 575 224 585 q 193 550 199 564 q 186 522 186 536 l 188 483 q 172 435 188 452 q 130 418 156 418 q 89 435 105 418 q 73 484 73 453 q 89 540 73 512 q 133 590 104 568 q 204 626 161 612 q 300 640 246 640 q 422 618 372 640 q 495 546 473 597 q 507 427 507 516 l 507 216 q 508 144 507 171 q 511 106 509 117 q 522 80 514 87 q 540 73 530 73 q 553 75 547 73 q 567 83 559 77 q 586 100 575 90 q 614 127 597 111 l 614 90 q 469 -12 537 -12 q 416 11 436 -12 q 395 90 395 34 m 395 134 l 395 370 q 311 336 344 350 q 263 313 278 321 q 186 250 210 282 q 163 179 163 218 q 171 134 163 155 q 192 98 179 113 q 223 74 205 83 q 260 66 241 66 q 395 134 311 66 m 420 943 l 220 709 l 197 709 l 268 943 l 420 943 z "},"":{"ha":616,"x_min":50,"x_max":614,"o":"m 395 90 q 275 4 300 15 q 197 -13 239 -13 q 138 -1 165 -13 q 92 31 111 10 q 61 82 72 52 q 50 147 50 111 q 57 196 50 174 q 78 238 64 218 q 114 277 92 258 q 166 313 136 295 q 395 412 236 354 l 395 436 q 388 514 395 483 q 365 564 380 545 q 329 590 351 583 q 280 598 307 598 q 241 592 258 598 q 212 575 224 585 q 193 550 199 564 q 186 522 186 536 l 188 483 q 172 435 188 452 q 130 418 156 418 q 89 435 105 418 q 73 484 73 453 q 89 540 73 512 q 133 590 104 568 q 204 626 161 612 q 300 640 246 640 q 422 618 372 640 q 495 546 473 597 q 507 427 507 516 l 507 216 q 508 144 507 171 q 511 106 509 117 q 522 80 514 87 q 540 73 530 73 q 553 75 547 73 q 567 83 559 77 q 586 100 575 90 q 614 127 597 111 l 614 90 q 469 -12 537 -12 q 416 11 436 -12 q 395 90 395 34 m 395 134 l 395 370 q 311 336 344 350 q 263 313 278 321 q 186 250 210 282 q 163 179 163 218 q 171 134 163 155 q 192 98 179 113 q 223 74 205 83 q 260 66 241 66 q 395 134 311 66 m 245 939 l 370 939 l 499 715 l 478 715 l 293 859 l 138 715 l 117 715 l 245 939 z "},"":{"ha":616,"x_min":50,"x_max":614,"o":"m 395 90 q 275 4 300 15 q 197 -13 239 -13 q 138 -1 165 -13 q 92 31 111 10 q 61 82 72 52 q 50 147 50 111 q 57 196 50 174 q 78 238 64 218 q 114 277 92 258 q 166 313 136 295 q 395 412 236 354 l 395 436 q 388 514 395 483 q 365 564 380 545 q 329 590 351 583 q 280 598 307 598 q 241 592 258 598 q 212 575 224 585 q 193 550 199 564 q 186 522 186 536 l 188 483 q 172 435 188 452 q 130 418 156 418 q 89 435 105 418 q 73 484 73 453 q 89 540 73 512 q 133 590 104 568 q 204 626 161 612 q 300 640 246 640 q 422 618 372 640 q 495 546 473 597 q 507 427 507 516 l 507 216 q 508 144 507 171 q 511 106 509 117 q 522 80 514 87 q 540 73 530 73 q 553 75 547 73 q 567 83 559 77 q 586 100 575 90 q 614 127 597 111 l 614 90 q 469 -12 537 -12 q 416 11 436 -12 q 395 90 395 34 m 395 134 l 395 370 q 311 336 344 350 q 263 313 278 321 q 186 250 210 282 q 163 179 163 218 q 171 134 163 155 q 192 98 179 113 q 223 74 205 83 q 260 66 241 66 q 395 134 311 66 m 113 744 l 92 744 q 103 824 93 791 q 131 879 114 857 q 170 910 148 900 q 219 920 193 920 q 249 917 235 920 q 278 908 262 915 q 312 890 293 901 q 356 862 330 879 q 405 834 384 843 q 439 825 426 825 q 459 829 450 825 q 477 843 469 833 q 492 872 486 854 q 504 920 499 890 l 525 920 q 515 842 525 876 q 487 786 505 808 q 446 752 469 764 q 396 741 422 741 q 263 795 343 741 q 228 819 241 810 q 205 831 214 827 q 190 836 197 836 q 176 837 184 837 q 132 812 149 837 q 124 790 129 807 q 113 744 119 772 z "},"":{"ha":616,"x_min":50,"x_max":614,"o":"m 395 90 q 275 4 300 15 q 197 -13 239 -13 q 138 -1 165 -13 q 92 31 111 10 q 61 82 72 52 q 50 147 50 111 q 57 196 50 174 q 78 238 64 218 q 114 277 92 258 q 166 313 136 295 q 395 412 236 354 l 395 436 q 388 514 395 483 q 365 564 380 545 q 329 590 351 583 q 280 598 307 598 q 241 592 258 598 q 212 575 224 585 q 193 550 199 564 q 186 522 186 536 l 188 483 q 172 435 188 452 q 130 418 156 418 q 89 435 105 418 q 73 484 73 453 q 89 540 73 512 q 133 590 104 568 q 204 626 161 612 q 300 640 246 640 q 422 618 372 640 q 495 546 473 597 q 507 427 507 516 l 507 216 q 508 144 507 171 q 511 106 509 117 q 522 80 514 87 q 540 73 530 73 q 553 75 547 73 q 567 83 559 77 q 586 100 575 90 q 614 127 597 111 l 614 90 q 469 -12 537 -12 q 416 11 436 -12 q 395 90 395 34 m 395 134 l 395 370 q 311 336 344 350 q 263 313 278 321 q 186 250 210 282 q 163 179 163 218 q 171 134 163 155 q 192 98 179 113 q 223 74 205 83 q 260 66 241 66 q 395 134 311 66 m 428 907 q 456 901 443 907 q 480 885 470 895 q 495 861 490 875 q 501 833 501 848 q 495 804 501 817 q 480 781 490 791 q 456 765 470 771 q 428 760 443 760 q 399 765 412 760 q 376 781 386 771 q 360 804 366 791 q 354 833 354 817 q 360 861 354 848 q 376 885 366 875 q 399 901 386 895 q 428 907 412 907 m 189 907 q 218 901 204 907 q 241 885 231 895 q 257 861 251 875 q 262 833 262 848 q 257 804 262 817 q 241 781 251 791 q 217 765 231 771 q 189 760 204 760 q 160 765 174 760 q 137 781 147 771 q 121 804 127 791 q 115 833 115 817 q 121 861 115 848 q 137 885 127 875 q 160 901 146 895 q 189 907 173 907 z "},"":{"ha":616,"x_min":50,"x_max":614,"o":"m 395 90 q 275 4 300 15 q 197 -13 239 -13 q 138 -1 165 -13 q 92 31 111 10 q 61 82 72 52 q 50 147 50 111 q 57 196 50 174 q 78 238 64 218 q 114 277 92 258 q 166 313 136 295 q 395 412 236 354 l 395 436 q 388 514 395 483 q 365 564 380 545 q 329 590 351 583 q 280 598 307 598 q 241 592 258 598 q 212 575 224 585 q 193 550 199 564 q 186 522 186 536 l 188 483 q 172 435 188 452 q 130 418 156 418 q 89 435 105 418 q 73 484 73 453 q 89 540 73 512 q 133 590 104 568 q 204 626 161 612 q 300 640 246 640 q 422 618 372 640 q 495 546 473 597 q 507 427 507 516 l 507 216 q 508 144 507 171 q 511 106 509 117 q 522 80 514 87 q 540 73 530 73 q 553 75 547 73 q 567 83 559 77 q 586 100 575 90 q 614 127 597 111 l 614 90 q 469 -12 537 -12 q 416 11 436 -12 q 395 90 395 34 m 395 134 l 395 370 q 311 336 344 350 q 263 313 278 321 q 186 250 210 282 q 163 179 163 218 q 171 134 163 155 q 192 98 179 113 q 223 74 205 83 q 260 66 241 66 q 395 134 311 66 m 311 967 q 361 957 337 967 q 402 929 385 947 q 431 888 420 911 q 441 838 441 864 q 431 787 441 810 q 403 745 420 763 q 361 718 385 728 q 311 707 338 707 q 260 718 284 707 q 219 746 237 728 q 191 787 201 764 q 181 838 181 811 q 191 888 181 865 q 219 929 201 911 q 260 957 237 947 q 311 967 283 967 m 311 920 q 278 914 294 920 q 252 896 263 907 q 234 870 241 885 q 228 838 228 854 q 234 805 228 821 q 252 779 241 790 q 278 761 263 768 q 311 755 294 755 q 343 762 328 755 q 369 780 358 768 q 387 806 380 791 q 393 838 393 821 q 387 870 393 854 q 369 896 380 885 q 343 914 358 907 q 311 920 328 920 z "},"":{"ha":926,"x_min":50,"x_max":884,"o":"m 498 385 q 497 354 497 367 q 497 334 497 342 q 510 217 497 265 q 547 140 524 170 q 602 96 570 110 q 671 83 633 83 q 790 124 736 83 q 863 232 824 151 l 884 217 q 853 130 874 172 q 801 54 832 87 q 727 1 769 21 q 633 -19 685 -19 q 508 13 560 -19 q 433 90 484 28 q 416 76 429 87 q 387 54 402 66 q 358 32 372 42 q 342 21 345 22 q 275 -8 310 3 q 201 -19 239 -19 q 141 -7 168 -19 q 93 26 113 5 q 61 76 73 47 q 50 136 50 104 q 56 191 50 166 q 78 237 62 215 q 122 279 94 258 q 195 322 151 300 q 294 370 248 349 q 382 405 341 391 l 382 467 q 375 529 382 504 q 355 571 368 555 q 323 594 342 587 q 282 601 304 601 q 242 595 260 601 q 212 578 224 589 q 193 555 199 568 q 186 530 186 543 q 184 475 186 496 q 175 442 181 454 q 158 426 168 430 q 132 421 147 421 q 105 427 117 421 q 86 443 94 433 q 75 463 79 452 q 71 486 71 475 q 86 541 71 513 q 131 590 102 568 q 202 626 160 612 q 298 640 244 640 q 372 634 340 640 q 425 616 403 627 q 461 589 448 604 q 481 557 475 574 q 520 596 500 580 q 562 622 540 612 q 610 636 585 631 q 664 640 635 640 q 753 624 713 640 q 823 574 793 607 q 868 494 852 542 q 884 385 884 446 l 498 385 m 498 429 l 754 429 q 744 502 753 471 q 718 553 734 533 q 679 583 701 573 q 629 592 656 592 q 578 582 602 592 q 537 550 555 571 q 509 498 519 529 q 498 429 498 468 m 414 125 q 401 160 407 140 q 391 205 395 181 q 384 253 387 229 q 382 300 382 278 l 382 361 q 214 274 290 332 q 163 175 163 235 q 172 125 163 148 q 196 87 181 103 q 231 62 211 71 q 273 54 250 54 q 299 56 286 54 q 329 67 313 59 q 365 89 345 75 q 414 125 385 102 z "},"":{"ha":616,"x_min":47,"x_max":571,"o":"m 571 236 q 532 127 558 174 q 472 47 507 79 q 396 -2 437 14 q 311 -19 355 -19 q 211 4 258 -19 q 127 70 163 27 q 69 173 91 113 q 47 310 47 234 q 71 444 47 383 q 135 548 95 505 q 230 615 176 591 q 344 640 283 640 q 428 626 389 640 q 494 591 466 612 q 537 543 522 569 q 553 490 553 516 q 537 449 553 465 q 490 433 521 433 q 461 436 475 433 q 438 448 448 439 q 422 473 429 457 q 414 513 416 488 q 388 573 411 553 q 321 594 364 594 q 251 576 281 594 q 199 527 220 558 q 168 455 178 496 q 157 368 157 414 q 171 263 157 314 q 211 174 185 213 q 275 111 237 134 q 359 87 312 87 q 414 94 388 87 q 463 119 439 101 q 509 167 487 136 q 551 245 531 198 l 571 236 m 321 11 l 362 11 l 328 -43 q 392 -79 371 -54 q 413 -142 413 -105 q 402 -189 413 -166 q 372 -228 391 -211 q 325 -254 352 -244 q 267 -264 298 -264 q 239 -263 254 -264 q 203 -260 223 -262 l 203 -231 q 221 -233 213 -232 q 236 -233 229 -233 q 268 -227 253 -233 q 294 -211 283 -221 q 312 -187 305 -201 q 318 -159 318 -174 q 302 -123 318 -138 q 264 -109 287 -109 q 256 -109 260 -109 q 246 -110 252 -109 l 321 11 z "},"":{"ha":616,"x_min":52,"x_max":577,"o":"m 148 387 q 166 263 148 318 q 216 170 184 208 q 288 112 247 132 q 374 92 329 92 q 480 125 435 92 q 556 240 526 159 l 577 227 q 549 137 570 181 q 495 58 528 93 q 418 2 462 24 q 323 -19 374 -19 q 218 4 267 -19 q 132 68 169 26 q 73 169 95 110 q 52 302 52 229 q 74 446 52 383 q 134 552 96 509 q 225 618 173 595 q 338 640 278 640 q 434 622 390 640 q 509 571 477 604 q 559 491 541 538 q 577 387 577 445 l 148 387 m 148 427 l 435 427 q 421 511 433 486 q 371 570 404 549 q 300 592 337 592 q 247 581 273 592 q 200 548 221 570 q 165 496 179 527 q 148 427 151 466 m 197 943 l 348 943 l 420 709 l 396 709 l 197 943 z "},"":{"ha":616,"x_min":52,"x_max":577,"o":"m 148 387 q 166 263 148 318 q 216 170 184 208 q 288 112 247 132 q 374 92 329 92 q 480 125 435 92 q 556 240 526 159 l 577 227 q 549 137 570 181 q 495 58 528 93 q 418 2 462 24 q 323 -19 374 -19 q 218 4 267 -19 q 132 68 169 26 q 73 169 95 110 q 52 302 52 229 q 74 446 52 383 q 134 552 96 509 q 225 618 173 595 q 338 640 278 640 q 434 622 390 640 q 509 571 477 604 q 559 491 541 538 q 577 387 577 445 l 148 387 m 148 427 l 435 427 q 421 511 433 486 q 371 570 404 549 q 300 592 337 592 q 247 581 273 592 q 200 548 221 570 q 165 496 179 527 q 148 427 151 466 m 420 943 l 220 709 l 197 709 l 268 943 l 420 943 z "},"":{"ha":616,"x_min":52,"x_max":577,"o":"m 148 387 q 166 263 148 318 q 216 170 184 208 q 288 112 247 132 q 374 92 329 92 q 480 125 435 92 q 556 240 526 159 l 577 227 q 549 137 570 181 q 495 58 528 93 q 418 2 462 24 q 323 -19 374 -19 q 218 4 267 -19 q 132 68 169 26 q 73 169 95 110 q 52 302 52 229 q 74 446 52 383 q 134 552 96 509 q 225 618 173 595 q 338 640 278 640 q 434 622 390 640 q 509 571 477 604 q 559 491 541 538 q 577 387 577 445 l 148 387 m 148 427 l 435 427 q 421 511 433 486 q 371 570 404 549 q 300 592 337 592 q 247 581 273 592 q 200 548 221 570 q 165 496 179 527 q 148 427 151 466 m 245 939 l 370 939 l 499 715 l 478 715 l 293 859 l 138 715 l 117 715 l 245 939 z "},"":{"ha":616,"x_min":52,"x_max":577,"o":"m 148 387 q 166 263 148 318 q 216 170 184 208 q 288 112 247 132 q 374 92 329 92 q 480 125 435 92 q 556 240 526 159 l 577 227 q 549 137 570 181 q 495 58 528 93 q 418 2 462 24 q 323 -19 374 -19 q 218 4 267 -19 q 132 68 169 26 q 73 169 95 110 q 52 302 52 229 q 74 446 52 383 q 134 552 96 509 q 225 618 173 595 q 338 640 278 640 q 434 622 390 640 q 509 571 477 604 q 559 491 541 538 q 577 387 577 445 l 148 387 m 148 427 l 435 427 q 421 511 433 486 q 371 570 404 549 q 300 592 337 592 q 247 581 273 592 q 200 548 221 570 q 165 496 179 527 q 148 427 151 466 m 428 907 q 456 901 443 907 q 480 885 470 895 q 495 861 490 875 q 501 833 501 848 q 495 804 501 817 q 480 781 490 791 q 456 765 470 771 q 428 760 443 760 q 399 765 412 760 q 376 781 386 771 q 360 804 366 791 q 354 833 354 817 q 360 861 354 848 q 376 885 366 875 q 399 901 386 895 q 428 907 412 907 m 189 907 q 218 901 204 907 q 241 885 231 895 q 257 861 251 875 q 262 833 262 848 q 257 804 262 817 q 241 781 251 791 q 217 765 231 771 q 189 760 204 760 q 160 765 174 760 q 137 781 147 771 q 121 804 127 791 q 115 833 115 817 q 121 861 115 848 q 137 885 127 875 q 160 901 146 895 q 189 907 173 907 z "},"":{"ha":386,"x_min":41,"x_max":352,"o":"m 257 640 l 257 140 q 259 92 257 111 q 266 62 261 73 q 276 45 270 51 q 291 34 283 39 q 352 24 309 24 l 352 0 l 50 0 l 50 24 q 88 26 73 24 q 112 33 102 28 q 126 45 121 38 q 136 62 131 52 q 145 140 145 83 l 145 380 q 143 473 145 439 q 136 524 141 507 q 121 545 131 541 q 96 549 111 549 q 50 539 77 549 l 41 564 l 228 640 l 257 640 m 52 943 l 203 943 l 275 709 l 252 709 l 52 943 z "},"":{"ha":386,"x_min":41,"x_max":352,"o":"m 257 640 l 257 140 q 259 92 257 111 q 266 62 261 73 q 276 45 270 51 q 291 34 283 39 q 352 24 309 24 l 352 0 l 50 0 l 50 24 q 88 26 73 24 q 112 33 102 28 q 126 45 121 38 q 136 62 131 52 q 145 140 145 83 l 145 380 q 143 473 145 439 q 136 524 141 507 q 121 545 131 541 q 96 549 111 549 q 50 539 77 549 l 41 564 l 228 640 l 257 640 m 338 943 l 138 709 l 115 709 l 186 943 l 338 943 z "},"":{"ha":386,"x_min":9,"x_max":391,"o":"m 257 640 l 257 140 q 259 92 257 111 q 266 62 261 73 q 276 45 270 51 q 291 34 283 39 q 352 24 309 24 l 352 0 l 50 0 l 50 24 q 88 26 73 24 q 112 33 102 28 q 126 45 121 38 q 136 62 131 52 q 145 140 145 83 l 145 380 q 143 473 145 439 q 136 524 141 507 q 121 545 131 541 q 96 549 111 549 q 50 539 77 549 l 41 564 l 228 640 l 257 640 m 137 939 l 262 939 l 391 715 l 370 715 l 184 859 l 29 715 l 9 715 l 137 939 z "},"":{"ha":386,"x_min":1,"x_max":387,"o":"m 257 640 l 257 140 q 259 92 257 111 q 266 62 261 73 q 276 45 270 51 q 291 34 283 39 q 352 24 309 24 l 352 0 l 50 0 l 50 24 q 88 26 73 24 q 112 33 102 28 q 126 45 121 38 q 136 62 131 52 q 145 140 145 83 l 145 380 q 143 473 145 439 q 136 524 141 507 q 121 545 131 541 q 96 549 111 549 q 50 539 77 549 l 41 564 l 228 640 l 257 640 m 314 906 q 342 900 329 906 q 366 884 356 895 q 381 861 376 874 q 387 832 387 847 q 381 803 387 817 q 366 780 376 790 q 342 765 356 770 q 314 759 329 759 q 285 765 298 759 q 262 780 272 770 q 246 803 252 790 q 240 832 240 817 q 246 861 240 847 q 262 884 252 874 q 285 900 272 895 q 314 906 298 906 m 75 906 q 104 900 90 906 q 127 884 117 895 q 143 861 137 874 q 149 832 149 847 q 143 803 149 817 q 127 780 137 790 q 103 765 117 770 q 75 759 90 759 q 46 765 60 759 q 23 780 33 770 q 7 803 13 790 q 1 832 1 817 q 7 861 1 847 q 23 884 13 874 q 46 900 33 895 q 75 906 59 906 z "},"":{"ha":694,"x_min":46,"x_max":644,"o":"m 318 793 l 151 701 l 130 739 l 288 828 q 250 867 264 852 q 221 892 235 882 q 195 912 208 903 q 161 935 181 922 l 179 964 q 261 918 220 944 q 347 859 303 892 l 515 954 l 538 916 l 383 828 q 578 581 511 717 q 644 321 644 448 q 604 148 644 227 q 557 78 585 109 q 495 25 530 47 q 421 -7 461 4 q 338 -19 382 -19 q 225 5 278 -19 q 132 72 172 29 q 69 172 92 114 q 46 299 46 231 q 67 422 46 362 q 126 530 89 483 q 216 606 164 577 q 331 634 269 634 q 359 633 347 634 q 385 627 372 631 q 413 615 398 623 q 446 594 427 608 q 318 793 392 706 m 325 593 q 265 580 293 593 q 216 538 237 567 q 183 464 195 510 q 172 351 172 418 q 189 213 172 273 q 234 112 206 153 q 298 50 262 71 q 371 28 334 28 q 428 41 401 28 q 475 82 455 54 q 507 152 495 109 q 518 256 518 195 q 504 393 518 331 q 465 499 490 455 q 404 568 439 544 q 325 593 368 593 z "},"":{"ha":694,"x_min":8,"x_max":688,"o":"m 224 508 q 433 640 334 640 q 496 628 467 640 q 547 589 526 616 q 581 517 569 562 q 593 406 593 473 l 593 140 q 598 77 593 100 q 613 42 602 54 q 642 27 624 31 q 688 24 661 24 l 688 0 l 381 0 l 381 24 l 394 24 q 442 30 425 24 q 468 48 459 35 q 479 84 477 62 q 481 140 481 106 l 481 395 q 459 518 481 479 q 385 556 437 556 q 224 468 304 556 l 224 140 q 232 62 224 79 q 242 45 237 52 q 258 33 248 37 q 284 26 268 28 q 326 24 300 24 l 326 0 l 18 0 l 18 24 l 32 24 q 72 30 56 24 q 97 49 87 35 q 109 84 106 62 q 113 140 113 106 l 113 371 q 107 507 113 481 q 92 541 102 532 q 64 549 81 549 q 18 539 45 549 l 8 564 l 195 640 l 224 640 l 224 508 m 152 744 l 130 744 q 142 824 132 791 q 170 879 153 857 q 209 910 186 900 q 258 920 231 920 q 288 917 274 920 q 316 908 301 915 q 350 890 332 901 q 395 862 369 879 q 444 834 422 843 q 478 825 465 825 q 498 829 488 825 q 516 843 508 833 q 531 872 524 854 q 543 920 538 890 l 564 920 q 553 842 564 876 q 526 786 543 808 q 485 752 508 764 q 435 741 461 741 q 302 795 382 741 q 266 819 279 810 q 244 831 253 827 q 229 836 235 836 q 215 837 222 837 q 171 812 187 837 q 162 790 168 807 q 152 744 157 772 z "},"":{"ha":694,"x_min":47,"x_max":646,"o":"m 347 640 q 468 614 413 640 q 563 545 523 588 q 624 444 602 501 q 646 322 646 386 q 624 194 646 255 q 560 85 601 132 q 463 9 519 37 q 340 -19 407 -19 q 220 8 274 -19 q 127 80 166 35 q 68 184 89 125 q 47 304 47 242 q 68 428 47 368 q 130 535 90 488 q 225 611 170 583 q 347 640 280 640 m 326 595 q 269 583 296 595 q 220 542 241 570 q 186 470 199 514 q 173 361 173 425 q 187 235 173 296 q 226 129 201 175 q 288 56 252 83 q 369 29 324 29 q 429 42 401 29 q 477 82 456 54 q 509 157 497 111 q 520 270 520 203 q 507 396 520 337 q 470 499 494 455 q 409 570 445 544 q 326 595 372 595 m 235 943 l 387 943 l 458 709 l 435 709 l 235 943 z "},"":{"ha":694,"x_min":47,"x_max":646,"o":"m 347 640 q 468 614 413 640 q 563 545 523 588 q 624 444 602 501 q 646 322 646 386 q 624 194 646 255 q 560 85 601 132 q 463 9 519 37 q 340 -19 407 -19 q 220 8 274 -19 q 127 80 166 35 q 68 184 89 125 q 47 304 47 242 q 68 428 47 368 q 130 535 90 488 q 225 611 170 583 q 347 640 280 640 m 326 595 q 269 583 296 595 q 220 542 241 570 q 186 470 199 514 q 173 361 173 425 q 187 235 173 296 q 226 129 201 175 q 288 56 252 83 q 369 29 324 29 q 429 42 401 29 q 477 82 456 54 q 509 157 497 111 q 520 270 520 203 q 507 396 520 337 q 470 499 494 455 q 409 570 445 544 q 326 595 372 595 m 458 943 l 258 709 l 235 709 l 307 943 l 458 943 z "},"":{"ha":694,"x_min":47,"x_max":646,"o":"m 347 640 q 468 614 413 640 q 563 545 523 588 q 624 444 602 501 q 646 322 646 386 q 624 194 646 255 q 560 85 601 132 q 463 9 519 37 q 340 -19 407 -19 q 220 8 274 -19 q 127 80 166 35 q 68 184 89 125 q 47 304 47 242 q 68 428 47 368 q 130 535 90 488 q 225 611 170 583 q 347 640 280 640 m 326 595 q 269 583 296 595 q 220 542 241 570 q 186 470 199 514 q 173 361 173 425 q 187 235 173 296 q 226 129 201 175 q 288 56 252 83 q 369 29 324 29 q 429 42 401 29 q 477 82 456 54 q 509 157 497 111 q 520 270 520 203 q 507 396 520 337 q 470 499 494 455 q 409 570 445 544 q 326 595 372 595 m 284 939 l 409 939 l 538 715 l 517 715 l 332 859 l 176 715 l 156 715 l 284 939 z "},"":{"ha":694,"x_min":47,"x_max":646,"o":"m 347 640 q 468 614 413 640 q 563 545 523 588 q 624 444 602 501 q 646 322 646 386 q 624 194 646 255 q 560 85 601 132 q 463 9 519 37 q 340 -19 407 -19 q 220 8 274 -19 q 127 80 166 35 q 68 184 89 125 q 47 304 47 242 q 68 428 47 368 q 130 535 90 488 q 225 611 170 583 q 347 640 280 640 m 326 595 q 269 583 296 595 q 220 542 241 570 q 186 470 199 514 q 173 361 173 425 q 187 235 173 296 q 226 129 201 175 q 288 56 252 83 q 369 29 324 29 q 429 42 401 29 q 477 82 456 54 q 509 157 497 111 q 520 270 520 203 q 507 396 520 337 q 470 499 494 455 q 409 570 445 544 q 326 595 372 595 m 152 744 l 130 744 q 142 824 132 791 q 170 879 153 857 q 209 910 186 900 q 258 920 231 920 q 288 917 274 920 q 316 908 301 915 q 350 890 332 901 q 395 862 369 879 q 444 834 422 843 q 478 825 465 825 q 498 829 488 825 q 516 843 508 833 q 531 872 524 854 q 543 920 538 890 l 564 920 q 553 842 564 876 q 526 786 543 808 q 485 752 508 764 q 435 741 461 741 q 302 795 382 741 q 266 819 279 810 q 244 831 253 827 q 229 836 235 836 q 215 837 222 837 q 171 812 187 837 q 162 790 168 807 q 152 744 157 772 z "},"":{"ha":694,"x_min":47,"x_max":646,"o":"m 347 640 q 468 614 413 640 q 563 545 523 588 q 624 444 602 501 q 646 322 646 386 q 624 194 646 255 q 560 85 601 132 q 463 9 519 37 q 340 -19 407 -19 q 220 8 274 -19 q 127 80 166 35 q 68 184 89 125 q 47 304 47 242 q 68 428 47 368 q 130 535 90 488 q 225 611 170 583 q 347 640 280 640 m 326 595 q 269 583 296 595 q 220 542 241 570 q 186 470 199 514 q 173 361 173 425 q 187 235 173 296 q 226 129 201 175 q 288 56 252 83 q 369 29 324 29 q 429 42 401 29 q 477 82 456 54 q 509 157 497 111 q 520 270 520 203 q 507 396 520 337 q 470 499 494 455 q 409 570 445 544 q 326 595 372 595 m 467 907 q 495 901 481 907 q 518 885 509 895 q 534 861 528 875 q 540 833 540 848 q 534 804 540 817 q 518 781 528 791 q 495 765 509 771 q 467 760 481 760 q 438 765 451 760 q 414 781 425 771 q 398 804 404 791 q 393 833 393 817 q 398 861 393 848 q 414 885 404 875 q 438 901 425 895 q 467 907 451 907 m 227 907 q 256 901 243 907 q 280 885 270 895 q 295 861 290 875 q 301 833 301 848 q 295 804 301 817 q 279 781 290 791 q 256 765 269 771 q 228 760 243 760 q 199 765 212 760 q 176 781 186 771 q 160 804 165 791 q 154 833 154 817 q 160 861 154 848 q 175 885 165 875 q 198 901 185 895 q 227 907 212 907 z "},"":{"ha":762,"x_min":16,"x_max":747,"o":"m 381 729 q 423 712 406 729 q 440 670 440 694 q 423 628 440 646 q 380 611 406 611 q 339 628 356 611 q 321 670 321 646 q 339 712 321 694 q 381 729 356 729 m 747 434 l 16 434 l 16 490 l 747 490 l 747 434 m 381 309 q 424 291 406 309 q 441 249 441 273 q 436 226 441 237 q 423 207 431 215 q 404 194 415 199 q 381 189 393 189 q 358 194 369 189 q 339 207 347 199 q 326 226 331 215 q 321 249 321 237 q 339 291 321 273 q 381 309 356 309 z "},"":{"ha":694,"x_min":26,"x_max":668,"o":"m 547 564 l 637 664 l 668 635 l 576 532 q 648 320 648 441 q 626 192 648 254 q 563 84 604 131 q 467 9 523 37 q 344 -19 411 -19 q 291 -15 315 -19 q 244 -2 267 -11 q 198 22 221 7 q 150 58 176 37 l 58 -45 l 26 -16 l 122 92 q 92 139 106 112 q 70 195 79 165 q 55 253 60 224 q 50 309 50 283 q 74 433 50 373 q 138 539 97 493 q 234 612 179 585 q 353 640 290 640 q 454 622 409 640 q 547 564 499 604 m 477 488 q 443 538 460 517 q 409 571 427 559 q 373 589 392 584 q 331 595 353 595 q 270 582 298 595 q 221 541 242 569 q 188 469 200 513 q 176 361 176 424 q 203 183 176 277 l 477 488 m 496 444 l 223 138 q 257 86 241 106 q 291 52 273 65 q 328 34 308 39 q 371 29 347 29 q 431 42 404 29 q 479 83 459 54 q 511 158 500 111 q 523 273 523 204 q 496 444 523 355 z "},"":{"ha":694,"x_min":1,"x_max":692,"o":"m 588 621 l 588 245 q 593 113 588 136 q 609 79 598 89 q 635 70 621 70 q 683 81 656 70 l 692 58 l 507 -19 l 476 -19 l 476 113 q 354 3 395 26 q 265 -19 312 -19 q 175 11 213 -19 q 121 89 137 40 q 106 223 106 136 l 106 500 q 101 550 106 531 q 85 579 96 569 q 55 593 73 589 q 9 596 36 596 l 1 596 l 1 621 l 219 621 l 219 205 q 228 133 219 161 q 250 90 236 105 q 283 70 264 75 q 322 64 302 64 q 353 68 336 64 q 388 83 370 73 q 429 110 407 93 q 476 153 450 127 l 476 505 q 472 548 476 531 q 457 576 468 566 q 426 591 446 587 q 376 596 407 595 l 376 621 l 588 621 m 235 943 l 387 943 l 458 709 l 435 709 l 235 943 z "},"":{"ha":694,"x_min":1,"x_max":692,"o":"m 588 621 l 588 245 q 593 113 588 136 q 609 79 598 89 q 635 70 621 70 q 683 81 656 70 l 692 58 l 507 -19 l 476 -19 l 476 113 q 354 3 395 26 q 265 -19 312 -19 q 175 11 213 -19 q 121 89 137 40 q 106 223 106 136 l 106 500 q 101 550 106 531 q 85 579 96 569 q 55 593 73 589 q 9 596 36 596 l 1 596 l 1 621 l 219 621 l 219 205 q 228 133 219 161 q 250 90 236 105 q 283 70 264 75 q 322 64 302 64 q 353 68 336 64 q 388 83 370 73 q 429 110 407 93 q 476 153 450 127 l 476 505 q 472 548 476 531 q 457 576 468 566 q 426 591 446 587 q 376 596 407 595 l 376 621 l 588 621 m 458 943 l 258 709 l 235 709 l 307 943 l 458 943 z "},"":{"ha":694,"x_min":1,"x_max":692,"o":"m 588 621 l 588 245 q 593 113 588 136 q 609 79 598 89 q 635 70 621 70 q 683 81 656 70 l 692 58 l 507 -19 l 476 -19 l 476 113 q 354 3 395 26 q 265 -19 312 -19 q 175 11 213 -19 q 121 89 137 40 q 106 223 106 136 l 106 500 q 101 550 106 531 q 85 579 96 569 q 55 593 73 589 q 9 596 36 596 l 1 596 l 1 621 l 219 621 l 219 205 q 228 133 219 161 q 250 90 236 105 q 283 70 264 75 q 322 64 302 64 q 353 68 336 64 q 388 83 370 73 q 429 110 407 93 q 476 153 450 127 l 476 505 q 472 548 476 531 q 457 576 468 566 q 426 591 446 587 q 376 596 407 595 l 376 621 l 588 621 m 284 939 l 409 939 l 538 715 l 517 715 l 332 859 l 176 715 l 156 715 l 284 939 z "},"":{"ha":694,"x_min":1,"x_max":692,"o":"m 588 621 l 588 245 q 593 113 588 136 q 609 79 598 89 q 635 70 621 70 q 683 81 656 70 l 692 58 l 507 -19 l 476 -19 l 476 113 q 354 3 395 26 q 265 -19 312 -19 q 175 11 213 -19 q 121 89 137 40 q 106 223 106 136 l 106 500 q 101 550 106 531 q 85 579 96 569 q 55 593 73 589 q 9 596 36 596 l 1 596 l 1 621 l 219 621 l 219 205 q 228 133 219 161 q 250 90 236 105 q 283 70 264 75 q 322 64 302 64 q 353 68 336 64 q 388 83 370 73 q 429 110 407 93 q 476 153 450 127 l 476 505 q 472 548 476 531 q 457 576 468 566 q 426 591 446 587 q 376 596 407 595 l 376 621 l 588 621 m 467 907 q 495 901 481 907 q 518 885 509 895 q 534 861 528 875 q 540 833 540 848 q 534 804 540 817 q 518 781 528 791 q 495 765 509 771 q 467 760 481 760 q 438 765 451 760 q 414 781 425 771 q 398 804 404 791 q 393 833 393 817 q 398 861 393 848 q 414 885 404 875 q 438 901 425 895 q 467 907 451 907 m 227 907 q 256 901 243 907 q 280 885 270 895 q 295 861 290 875 q 301 833 301 848 q 295 804 301 817 q 279 781 290 791 q 256 765 269 771 q 228 760 243 760 q 199 765 212 760 q 176 781 186 771 q 160 804 165 791 q 154 833 154 817 q 160 861 154 848 q 175 885 165 875 q 198 901 185 895 q 227 907 212 907 z "},"":{"ha":694,"x_min":8,"x_max":686,"o":"m 8 621 l 298 621 l 298 596 l 283 596 q 238 583 253 596 q 222 550 222 570 q 245 477 222 524 l 396 163 l 535 507 q 547 562 547 535 q 545 576 547 570 q 536 587 543 582 q 517 594 530 591 q 484 596 505 596 l 484 621 l 686 621 l 686 596 q 657 591 669 594 q 636 579 646 588 q 617 552 626 570 q 595 503 608 534 l 342 -117 q 298 -196 323 -162 q 245 -253 273 -231 q 188 -288 218 -276 q 132 -300 159 -300 q 95 -293 111 -300 q 66 -276 78 -287 q 47 -252 54 -266 q 40 -224 40 -239 q 59 -178 40 -195 q 110 -161 77 -161 q 132 -165 117 -161 q 162 -173 146 -169 q 189 -182 177 -178 q 205 -186 201 -186 q 226 -181 215 -186 q 249 -165 237 -176 q 273 -133 261 -153 q 298 -83 286 -113 l 342 24 l 119 493 q 107 513 115 500 q 91 538 100 526 q 73 562 82 551 q 58 577 64 573 q 8 596 44 588 l 8 621 m 458 943 l 258 709 l 235 709 l 307 943 l 458 943 z "},"":{"ha":694,"x_min":-5,"x_max":647,"o":"m -1 887 l 190 964 l 216 964 l 216 492 q 264 561 240 532 q 313 607 288 589 q 362 632 337 624 q 414 640 388 640 q 510 615 467 640 q 584 549 553 591 q 630 452 614 507 q 647 333 647 396 q 627 198 647 262 q 570 86 607 134 q 481 9 533 38 q 363 -19 429 -19 q 322 -17 341 -19 q 286 -9 303 -15 q 252 8 269 -3 q 216 36 235 18 l 216 -153 q 217 -205 216 -186 q 223 -234 219 -224 q 234 -250 227 -245 q 250 -260 240 -256 q 321 -271 269 -271 l 321 -296 l -5 -296 l -5 -271 l 12 -271 q 62 -264 39 -273 q 96 -233 85 -256 q 103 -149 103 -216 l 103 766 q 101 823 103 802 q 92 857 98 845 q 75 872 85 868 q 48 876 64 876 q 7 865 32 876 l -1 887 m 216 452 l 216 220 q 222 121 216 144 q 238 83 227 101 q 269 52 250 65 q 310 30 287 38 q 361 22 334 22 q 432 40 401 22 q 484 92 463 59 q 515 170 505 125 q 526 269 526 216 q 514 377 526 328 q 481 464 503 427 q 429 520 459 500 q 361 541 398 541 q 296 525 328 541 q 216 452 271 513 z "},"":{"ha":694,"x_min":8,"x_max":686,"o":"m 8 621 l 298 621 l 298 596 l 283 596 q 238 583 253 596 q 222 550 222 570 q 245 477 222 524 l 396 163 l 535 507 q 547 562 547 535 q 545 576 547 570 q 536 587 543 582 q 517 594 530 591 q 484 596 505 596 l 484 621 l 686 621 l 686 596 q 657 591 669 594 q 636 579 646 588 q 617 552 626 570 q 595 503 608 534 l 342 -117 q 298 -196 323 -162 q 245 -253 273 -231 q 188 -288 218 -276 q 132 -300 159 -300 q 95 -293 111 -300 q 66 -276 78 -287 q 47 -252 54 -266 q 40 -224 40 -239 q 59 -178 40 -195 q 110 -161 77 -161 q 132 -165 117 -161 q 162 -173 146 -169 q 189 -182 177 -178 q 205 -186 201 -186 q 226 -181 215 -186 q 249 -165 237 -176 q 273 -133 261 -153 q 298 -83 286 -113 l 342 24 l 119 493 q 107 513 115 500 q 91 538 100 526 q 73 562 82 551 q 58 577 64 573 q 8 596 44 588 l 8 621 m 467 907 q 495 901 481 907 q 518 885 509 895 q 534 861 528 875 q 540 833 540 848 q 534 804 540 817 q 518 781 528 791 q 495 765 509 771 q 467 760 481 760 q 438 765 451 760 q 414 781 425 771 q 398 804 404 791 q 393 833 393 817 q 398 861 393 848 q 414 885 404 875 q 438 901 425 895 q 467 907 451 907 m 227 907 q 256 901 243 907 q 280 885 270 895 q 295 861 290 875 q 301 833 301 848 q 295 804 301 817 q 279 781 290 791 q 256 765 269 771 q 228 760 243 760 q 199 765 212 760 q 176 781 186 771 q 160 804 165 791 q 154 833 154 817 q 160 861 154 848 q 175 885 165 875 q 198 901 185 895 q 227 907 212 907 z "},"":{"ha":33,"x_min":0,"x_max":33,"o":"m 0 -302 l 0 1167 l 33 1167 l 33 -302 l 0 -302 z "},"":{"ha":31,"x_min":-85,"x_max":118,"o":"m 94 968 l 31 1031 l 31 -300 l 0 -300 l 0 1030 l -64 968 l -85 991 l -6 1069 l -85 1147 l -64 1170 l 16 1091 l 94 1170 l 118 1147 l 37 1069 l 118 991 l 94 968 z "},"":{"ha":825,"x_min":69,"x_max":756,"o":"m 665 623 q 632 589 665 589 q 597 623 597 589 q 632 656 597 656 q 665 623 665 656 m 564 689 q 532 656 564 656 q 496 689 496 656 q 532 724 496 724 q 564 689 564 724 m 732 522 q 697 488 732 488 q 664 522 664 488 q 699 555 664 555 q 732 522 732 555 m 756 404 q 724 370 756 370 q 688 404 688 370 q 724 438 688 438 q 756 404 756 438 m 446 714 q 412 680 446 680 q 378 714 378 680 q 412 747 378 747 q 446 714 446 747 m 329 689 q 294 656 329 656 q 261 689 261 656 q 294 724 261 724 q 329 689 329 724 m 732 286 q 697 253 732 253 q 664 286 664 253 q 697 321 664 321 q 732 286 732 321 m 229 623 q 195 589 229 589 q 161 621 161 589 q 195 656 161 656 q 229 623 229 656 m 665 184 q 632 151 665 151 q 597 184 597 151 q 632 219 597 219 q 665 184 665 219 m 564 118 q 532 85 564 85 q 496 118 496 85 q 532 153 496 153 q 564 118 564 153 m 161 522 q 129 488 161 488 q 94 522 94 488 q 127 555 94 555 q 161 522 161 555 m 137 404 q 104 370 138 370 q 69 404 69 370 q 104 438 69 438 q 137 404 138 438 m 446 96 q 412 61 446 61 q 378 96 378 61 q 412 129 378 129 q 446 96 446 129 m 161 286 q 127 253 161 253 q 94 286 94 253 q 127 321 94 321 q 161 286 161 321 m 329 121 q 294 85 329 85 q 261 118 261 85 q 294 153 261 153 q 329 121 329 153 m 229 184 q 195 151 229 151 q 161 184 161 151 q 195 219 161 219 q 229 184 229 219 z "},"":{"ha":513,"x_min":0,"x_max":486,"o":"m 486 616 l 486 493 l 259 493 q 250 389 257 442 q 234 283 243 336 l 210 276 q 186 340 196 305 q 170 410 177 376 q 160 472 163 444 q 157 515 157 500 l 157 616 q 151 660 157 644 q 129 677 144 677 q 110 675 118 677 q 93 670 101 673 q 77 662 85 667 q 59 650 69 657 q 33 630 42 639 q 19 622 24 622 q 6 637 12 629 q 0 652 0 646 q 17 671 7 659 q 36 693 26 682 q 111 766 79 743 q 165 791 142 789 l 179 886 l 153 885 q 71 916 97 885 q 45 996 45 946 q 49 1032 45 1014 q 66 1068 53 1050 q 76 1027 70 1044 q 94 1000 83 1010 q 121 986 104 990 q 161 982 138 982 q 201 977 183 982 q 225 966 218 972 l 196 783 q 224 745 214 772 q 234 682 234 719 l 234 616 l 486 616 m 466 783 q 440 710 466 736 q 367 684 414 684 q 295 710 321 684 q 269 783 269 736 q 294 848 269 823 q 367 873 320 873 q 440 848 415 873 q 466 783 466 823 m 431 781 q 414 823 431 806 q 367 840 397 840 q 320 823 337 840 q 303 781 303 806 q 320 734 303 751 q 367 717 338 717 q 414 734 397 717 q 431 781 431 751 z "},"":{"ha":465,"x_min":27,"x_max":437,"o":"m 437 689 q 424 607 437 649 q 388 523 411 566 q 333 438 364 481 q 266 353 302 395 q 200 264 227 307 q 155 184 173 220 q 129 121 138 148 q 121 81 121 94 q 113 51 120 62 q 98 40 105 40 q 75 50 82 40 q 68 81 68 59 q 79 134 68 104 q 107 200 89 165 q 151 276 125 236 q 208 356 176 315 q 266 436 240 399 q 310 513 292 474 q 337 595 328 552 q 346 693 346 639 q 316 783 346 750 q 229 817 286 817 q 177 809 201 817 q 134 787 152 802 q 104 752 115 773 q 94 704 94 731 q 100 672 94 689 q 116 641 106 656 q 140 615 127 627 q 170 597 154 603 q 185 585 177 594 q 193 567 193 576 q 189 553 193 558 q 178 544 184 547 q 163 540 172 541 q 148 538 155 538 q 98 555 121 538 q 60 595 76 571 q 36 649 45 620 q 27 705 27 678 q 43 784 27 748 q 85 847 58 821 q 150 888 113 873 q 230 903 187 903 q 316 889 277 903 q 381 848 354 875 q 423 781 408 821 q 437 689 437 741 z "},"":{"ha":1389,"x_min":26,"x_max":1340,"o":"m 1340 532 q 1317 471 1340 496 q 1251 446 1293 446 q 1184 471 1209 446 q 1158 532 1160 495 q 1180 593 1157 569 q 1245 616 1202 617 q 1315 592 1290 616 q 1340 532 1340 569 m 962 532 q 939 471 962 496 q 873 446 916 446 q 807 471 831 446 q 781 532 782 495 q 802 593 779 569 q 867 616 825 617 q 937 592 912 616 q 962 532 962 569 m 587 532 q 563 471 587 496 q 498 446 540 446 q 431 471 456 446 q 405 532 406 495 q 426 593 404 569 q 492 616 449 617 q 562 592 536 616 q 587 532 587 569 m 209 532 q 185 471 209 496 q 120 446 162 446 q 53 471 78 446 q 27 532 28 495 q 48 593 26 569 q 114 616 71 617 q 184 592 159 616 q 209 532 209 569 z "},"":{"ha":532,"x_min":378,"x_max":531,"o":"m 531 557 l 531 538 l 454 381 l 378 538 l 378 557 l 454 726 l 531 557 z "},"":{"ha":874,"x_min":378,"x_max":874,"o":"m 874 557 l 874 538 l 798 381 l 721 538 l 721 557 l 798 726 l 874 557 m 531 557 l 531 538 l 454 381 l 378 538 l 378 557 l 454 726 l 531 557 z "},"":{"ha":532,"x_min":375,"x_max":532,"o":"m 532 726 q 513 672 532 692 q 458 652 494 652 q 397 671 420 651 q 375 726 375 692 q 397 783 375 762 q 458 804 419 804 q 513 783 494 804 q 532 726 532 762 m 532 380 q 513 327 532 347 q 458 306 494 307 q 397 326 420 305 q 375 380 375 346 q 397 437 375 416 q 458 458 419 458 q 513 437 494 458 q 532 380 532 416 z "},"":{"ha":505,"x_min":7,"x_max":500,"o":"m 500 557 l 500 538 l 424 381 l 347 538 l 347 557 l 424 726 l 500 557 m 161 557 l 161 538 l 84 381 l 7 538 l 7 557 l 84 726 l 161 557 m 329 798 l 329 779 l 252 621 l 176 779 l 176 798 l 252 966 l 329 798 m 329 306 l 329 287 l 252 130 l 176 287 l 176 306 l 252 475 l 329 306 z "},"":{"ha":375,"x_min":0,"x_max":422,"o":"m 422 616 l 422 493 l 0 493 l 0 616 l 422 616 z "},"":{"ha":387,"x_min":0,"x_max":434,"o":"m 434 616 l 434 493 l 290 493 q 286 448 288 477 q 279 387 283 418 q 271 327 276 355 q 262 282 267 298 l 238 275 q 205 381 218 326 q 187 493 193 437 l 0 493 l 0 616 l 434 616 z "},"":{"ha":593,"x_min":380,"x_max":593,"o":"m 593 557 q 577 503 593 530 q 536 451 561 475 q 484 405 512 426 q 432 371 456 385 q 400 361 414 361 q 386 369 391 361 q 380 389 380 377 q 387 410 380 399 q 424 455 408 435 q 450 492 439 475 q 465 525 460 509 q 470 557 470 541 q 452 614 470 579 q 400 692 435 650 q 386 718 386 705 q 406 738 386 738 q 434 726 417 738 q 593 557 593 636 z "},"":{"ha":904,"x_min":380,"x_max":903,"o":"m 593 557 q 577 503 593 530 q 536 451 561 475 q 484 405 512 426 q 432 371 456 385 q 400 361 414 361 q 386 369 391 361 q 380 389 380 377 q 387 410 380 399 q 424 455 408 435 q 450 492 439 475 q 465 525 460 509 q 470 557 470 541 q 452 614 470 579 q 400 692 435 650 q 386 718 386 705 q 406 738 386 738 q 434 726 417 738 q 593 557 593 636 m 903 557 q 886 503 903 530 q 846 451 870 475 q 793 405 821 426 q 741 371 765 385 q 709 361 724 361 q 695 369 700 361 q 690 389 690 377 q 696 410 690 399 q 733 455 718 435 q 759 492 749 475 q 774 525 769 509 q 779 557 779 541 q 762 614 779 579 q 709 692 744 650 q 695 718 695 705 q 715 738 695 738 q 743 726 726 738 q 903 557 903 636 z "},"":{"ha":182,"x_min":0,"x_max":229,"o":"m 229 616 l 229 493 l 0 493 l 0 616 l 229 616 z "},"":{"ha":1501,"x_min":199,"x_max":1296,"o":"m 240 387 l 199 387 l 199 522 l 240 522 l 240 387 m 240 587 l 199 587 l 199 726 l 240 726 l 240 587 m 240 785 l 199 785 l 199 926 l 240 926 l 240 785 m 240 182 l 199 182 l 199 323 l 240 323 l 240 182 m 364 0 l 364 35 l 505 35 l 505 0 l 364 0 m 968 1062 l 968 1097 l 1114 1097 l 1114 1062 l 968 1062 m 968 0 l 968 35 l 1114 35 l 1114 0 l 968 0 m 364 1062 l 364 1097 l 510 1097 l 510 1062 l 364 1062 m 557 0 l 557 35 l 705 35 l 705 0 l 557 0 m 557 1062 l 557 1097 l 705 1097 l 705 1062 l 557 1062 m 756 0 l 756 35 l 904 35 l 904 0 l 756 0 m 756 1062 l 756 1097 l 904 1097 l 904 1062 l 756 1062 m 1255 387 l 1255 522 l 1296 522 l 1296 387 l 1255 387 m 1255 785 l 1255 926 l 1296 926 l 1296 785 l 1255 785 m 1255 587 l 1255 726 l 1296 726 l 1296 587 l 1255 587 m 1255 182 l 1255 323 l 1296 323 l 1296 182 l 1255 182 m 199 979 l 199 1097 l 311 1097 l 311 1062 l 240 1062 l 240 979 l 199 979 m 199 0 l 199 129 l 240 129 l 240 35 l 311 35 l 311 0 l 199 0 m 1173 1097 l 1296 1097 l 1296 979 l 1255 979 l 1255 1062 l 1173 1062 l 1173 1097 m 1255 129 l 1296 129 l 1296 0 l 1173 0 l 1173 35 l 1255 35 l 1255 129 m 810 410 l 810 446 q 928 500 928 446 q 926 515 928 509 l 975 515 l 975 70 l 920 70 l 920 410 l 810 410 m 652 821 l 652 774 l 434 774 l 434 557 l 387 557 l 387 991 l 681 991 l 681 945 l 434 945 l 434 821 l 652 821 m 1098 991 l 968 557 l 898 557 l 762 991 l 815 991 l 932 610 l 1039 991 l 1098 991 m 628 393 q 523 475 606 467 q 411 393 418 468 q 429 360 414 374 q 470 334 443 345 q 490 327 476 330 q 518 319 503 323 q 547 312 533 315 q 568 305 561 308 q 648 256 623 283 q 674 194 674 229 q 517 70 674 70 q 375 146 424 70 q 364 216 364 185 l 411 216 q 523 112 418 116 q 628 194 622 112 q 535 262 622 248 q 509 272 526 266 q 476 283 493 278 q 446 295 460 290 q 428 305 433 301 q 364 393 364 328 q 517 515 374 511 q 670 393 658 505 l 628 393 z "},"":{"ha":1501,"x_min":199,"x_max":1296,"o":"m 240 387 l 199 387 l 199 522 l 240 522 l 240 387 m 240 785 l 199 785 l 199 926 l 240 926 l 240 785 m 240 182 l 199 182 l 199 323 l 240 323 l 240 182 m 240 587 l 199 587 l 199 726 l 240 726 l 240 587 m 364 0 l 364 35 l 505 35 l 505 0 l 364 0 m 968 1062 l 968 1097 l 1114 1097 l 1114 1062 l 968 1062 m 968 0 l 968 35 l 1114 35 l 1114 0 l 968 0 m 557 0 l 557 35 l 705 35 l 705 0 l 557 0 m 756 0 l 756 35 l 904 35 l 904 0 l 756 0 m 557 1062 l 557 1097 l 705 1097 l 705 1062 l 557 1062 m 756 1062 l 756 1097 l 904 1097 l 904 1062 l 756 1062 m 364 1062 l 364 1097 l 510 1097 l 510 1062 l 364 1062 m 1255 387 l 1255 522 l 1296 522 l 1296 387 l 1255 387 m 1255 587 l 1255 726 l 1296 726 l 1296 587 l 1255 587 m 1255 785 l 1255 926 l 1296 926 l 1296 785 l 1255 785 m 1255 182 l 1255 323 l 1296 323 l 1296 182 l 1255 182 m 199 979 l 199 1097 l 311 1097 l 311 1062 l 240 1062 l 240 979 l 199 979 m 199 0 l 199 129 l 240 129 l 240 35 l 311 35 l 311 0 l 199 0 m 1173 1097 l 1296 1097 l 1296 979 l 1255 979 l 1255 1062 l 1173 1062 l 1173 1097 m 1255 129 l 1296 129 l 1296 0 l 1173 0 l 1173 35 l 1255 35 l 1255 129 m 652 821 l 652 774 l 434 774 l 434 557 l 387 557 l 387 991 l 681 991 l 681 945 l 434 945 l 434 821 l 652 821 m 991 262 q 932 222 957 239 q 892 194 907 206 q 840 118 846 136 l 1067 118 l 1067 70 l 792 70 q 804 151 792 115 l 834 182 q 847 203 842 195 q 857 216 853 212 q 902 249 879 231 q 950 288 926 266 q 1034 384 1034 334 l 1034 393 q 939 469 1025 462 q 827 364 827 469 l 787 364 q 786 372 786 368 q 785 384 785 377 q 834 480 785 439 q 932 510 878 510 q 1080 393 1074 504 q 991 262 1080 325 m 1098 991 l 968 557 l 898 557 l 762 991 l 815 991 l 932 610 l 1039 991 l 1098 991 m 622 393 q 523 475 606 467 q 411 393 418 468 q 429 360 414 374 q 470 334 443 345 q 540 311 487 321 q 556 305 549 308 q 568 300 563 302 q 674 187 670 262 q 517 64 674 64 q 375 139 424 64 q 364 216 364 180 l 411 216 q 523 105 418 111 q 628 187 622 105 q 535 262 622 234 q 482 281 524 270 q 451 291 464 286 q 428 300 437 295 q 364 393 364 332 q 517 515 370 511 q 670 393 660 515 l 622 393 z "},"":{"ha":1501,"x_min":199,"x_max":1296,"o":"m 240 387 l 199 387 l 199 522 l 240 522 l 240 387 m 240 785 l 199 785 l 199 926 l 240 926 l 240 785 m 240 182 l 199 182 l 199 323 l 240 323 l 240 182 m 240 587 l 199 587 l 199 726 l 240 726 l 240 587 m 364 0 l 364 35 l 505 35 l 505 0 l 364 0 m 968 1062 l 968 1097 l 1114 1097 l 1114 1062 l 968 1062 m 968 0 l 968 35 l 1114 35 l 1114 0 l 968 0 m 557 0 l 557 35 l 705 35 l 705 0 l 557 0 m 756 0 l 756 35 l 904 35 l 904 0 l 756 0 m 557 1062 l 557 1097 l 705 1097 l 705 1062 l 557 1062 m 756 1062 l 756 1097 l 904 1097 l 904 1062 l 756 1062 m 364 1062 l 364 1097 l 510 1097 l 510 1062 l 364 1062 m 1255 387 l 1255 522 l 1296 522 l 1296 387 l 1255 387 m 1255 587 l 1255 726 l 1296 726 l 1296 587 l 1255 587 m 1255 785 l 1255 926 l 1296 926 l 1296 785 l 1255 785 m 1255 182 l 1255 323 l 1296 323 l 1296 182 l 1255 182 m 199 979 l 199 1097 l 311 1097 l 311 1062 l 240 1062 l 240 979 l 199 979 m 199 0 l 199 129 l 240 129 l 240 35 l 311 35 l 311 0 l 199 0 m 1173 1097 l 1296 1097 l 1296 979 l 1255 979 l 1255 1062 l 1173 1062 l 1173 1097 m 1255 129 l 1296 129 l 1296 0 l 1173 0 l 1173 35 l 1255 35 l 1255 129 m 652 821 l 652 774 l 434 774 l 434 557 l 387 557 l 387 991 l 681 991 l 681 945 l 434 945 l 434 821 l 652 821 m 1098 991 l 968 557 l 898 557 l 762 991 l 815 991 l 932 610 l 1039 991 l 1098 991 m 880 334 q 1022 410 1014 351 q 939 463 1022 451 q 924 465 931 464 q 909 465 916 465 q 834 428 851 465 l 781 450 q 832 495 797 480 q 921 510 867 510 l 939 510 q 1074 410 1067 504 q 957 317 1067 334 q 1091 190 1091 289 l 1091 182 q 939 70 1086 75 q 775 163 815 70 l 834 176 q 924 123 861 123 l 939 123 q 1039 176 1034 129 q 880 300 1039 262 l 880 334 m 622 393 q 523 475 606 467 q 411 393 418 468 q 429 360 414 374 q 470 334 443 345 q 491 327 477 330 q 523 317 505 323 q 568 305 551 311 q 648 256 623 283 q 674 194 674 229 q 517 70 674 70 q 375 146 424 70 q 364 216 364 185 l 411 216 q 523 112 418 116 q 628 194 622 112 q 535 262 622 248 q 520 269 529 266 q 499 275 511 272 q 456 292 473 285 q 428 305 439 300 q 364 393 364 328 q 517 515 370 511 q 670 393 660 515 l 622 393 z "},"":{"ha":1501,"x_min":199,"x_max":1306,"o":"m 854 996 l 947 996 l 947 551 l 899 551 l 899 958 l 771 551 l 697 551 l 575 975 l 575 551 l 526 551 l 526 996 l 621 996 l 736 587 l 854 996 m 1074 382 l 1028 382 q 928 460 1010 456 q 827 375 829 456 q 878 323 827 344 q 935 302 918 307 q 975 290 951 296 q 1080 182 1079 253 q 918 58 1076 60 q 807 105 835 58 q 780 206 779 153 l 826 206 q 928 100 826 100 q 1031 178 1031 103 q 941 253 1031 227 q 902 267 920 260 q 842 290 884 273 q 780 382 780 320 q 924 499 786 495 q 1074 382 1074 493 m 538 115 l 647 496 l 701 496 l 572 64 l 505 64 l 370 496 l 425 496 l 538 115 m 1182 35 l 1268 35 l 1268 125 l 1306 125 l 1306 0 l 1182 0 l 1182 35 m 322 35 l 322 0 l 199 0 l 199 125 l 237 125 l 237 35 l 322 35 m 1268 1058 l 1182 1058 l 1182 1094 l 1306 1094 l 1306 981 l 1268 981 l 1268 1058 m 237 1058 l 237 981 l 199 981 l 199 1094 l 322 1094 l 322 1058 l 237 1058 m 717 1095 l 717 1058 l 570 1058 l 570 1095 l 717 1095 m 918 1095 l 918 1058 l 769 1058 l 769 1095 l 918 1095 m 521 1095 l 521 1058 l 374 1058 l 374 1095 l 521 1095 m 1124 1095 l 1124 1058 l 979 1058 l 979 1095 l 1124 1095 m 1124 35 l 1124 0 l 977 0 l 977 35 l 1124 35 m 914 35 l 914 0 l 767 0 l 767 35 l 914 35 m 714 35 l 714 0 l 569 0 l 569 35 l 714 35 m 1306 524 l 1306 385 l 1268 385 l 1268 524 l 1306 524 m 1306 924 l 1306 785 l 1268 785 l 1268 924 l 1306 924 m 199 924 l 237 924 l 237 785 l 199 785 l 199 924 m 199 524 l 237 524 l 237 385 l 199 385 l 199 524 m 199 321 l 237 321 l 237 182 l 199 182 l 199 321 m 199 725 l 237 725 l 237 587 l 199 587 l 199 725 m 1306 725 l 1306 587 l 1268 587 l 1268 725 l 1306 725 m 1306 321 l 1306 182 l 1268 182 l 1268 321 l 1306 321 m 517 35 l 517 0 l 374 0 l 374 35 l 517 35 z "},"":{"ha":458,"x_min":27,"x_max":431,"o":"m 374 717 q 355 863 374 805 q 339 903 348 884 q 318 938 330 923 q 292 962 307 954 q 259 971 277 971 q 216 960 235 971 q 181 930 197 948 q 153 888 165 911 q 132 842 141 865 q 111 778 120 812 q 96 707 102 743 q 87 635 90 671 q 84 567 84 600 q 94 451 83 501 q 125 368 105 400 q 164 323 142 338 q 205 308 186 308 q 250 320 231 308 q 284 352 269 333 q 310 396 299 372 q 330 443 321 420 q 349 507 340 473 q 363 577 357 541 q 371 648 368 612 q 374 717 374 684 m 431 711 q 428 636 431 675 q 418 559 425 597 q 400 484 411 521 q 376 414 390 447 q 346 360 363 385 q 306 316 328 334 q 256 286 283 297 q 196 275 229 275 q 75 363 116 275 q 40 468 54 408 q 27 606 27 528 q 43 750 27 685 q 83 864 60 814 q 163 967 116 930 q 267 1004 210 1004 q 349 972 315 1004 q 403 891 383 941 q 431 711 431 821 z "},"":{"ha":395,"x_min":2,"x_max":368,"o":"m 368 702 q 362 603 366 650 q 352 513 358 557 q 336 426 346 469 q 313 338 327 382 q 278 242 299 290 q 233 158 257 195 q 181 98 208 121 q 127 75 154 75 q 82 87 104 75 q 42 119 60 100 q 13 160 24 138 q 2 201 2 182 q 7 218 2 210 q 19 231 12 226 q 32 239 25 237 q 41 242 38 242 q 53 235 51 242 q 58 216 54 229 q 89 149 71 170 q 133 128 107 128 q 176 146 156 128 q 213 196 196 165 q 245 271 231 228 q 273 362 260 313 q 289 439 281 395 q 303 532 297 483 q 313 633 309 581 q 317 733 317 684 q 315 773 316 749 q 311 824 314 798 q 303 877 309 850 q 290 924 298 903 q 267 958 281 945 q 233 971 253 971 q 199 960 215 971 q 169 932 182 949 q 142 892 155 914 q 120 846 130 869 q 86 724 98 795 q 74 567 74 653 q 80 484 74 517 q 93 427 85 451 q 106 385 100 404 q 112 347 112 367 q 102 326 112 333 q 77 319 92 319 q 54 330 63 319 q 39 363 45 340 q 30 424 33 386 q 27 516 27 461 q 44 723 27 633 q 87 871 62 814 q 155 969 115 934 q 239 1004 195 1004 q 289 988 269 1004 q 324 947 310 972 q 347 890 338 922 q 361 824 356 858 q 367 759 366 791 q 368 702 368 727 z "},"":{"ha":532,"x_min":27,"x_max":528,"o":"m 505 850 q 498 794 505 820 q 480 743 492 768 q 454 693 469 718 q 422 639 439 667 q 393 590 408 616 q 364 538 377 564 q 343 490 351 513 q 334 453 334 467 q 340 425 334 431 q 355 419 347 419 q 381 414 372 419 q 403 410 391 410 q 442 434 418 410 q 492 514 466 458 q 502 532 498 526 q 515 538 506 538 q 525 533 522 538 q 528 522 528 528 q 516 484 528 509 q 486 427 504 459 q 465 388 474 405 q 445 358 455 370 q 422 340 435 347 q 393 334 410 334 q 358 338 376 334 q 328 343 341 343 q 304 340 315 343 q 286 332 294 336 q 272 324 278 328 q 262 321 266 321 q 246 325 255 321 q 237 338 237 330 q 238 343 237 340 q 240 351 239 346 q 293 461 269 412 q 336 550 317 510 q 370 621 355 589 q 395 676 385 652 q 437 789 427 746 q 448 847 448 832 q 427 937 448 903 q 370 971 406 971 q 316 952 347 971 q 253 900 286 933 q 190 821 221 866 q 135 722 159 775 q 95 609 110 668 q 80 491 80 551 q 85 427 80 451 q 97 388 90 403 q 108 365 103 373 q 113 348 113 356 q 80 315 113 315 q 54 325 64 315 q 38 352 44 335 q 30 391 32 369 q 27 437 27 413 q 45 587 27 515 q 91 723 62 660 q 157 838 120 786 q 234 926 195 890 q 311 983 273 963 q 379 1004 349 1004 q 435 991 412 1004 q 474 956 459 978 q 497 907 490 935 q 505 850 505 879 z "},"":{"ha":496,"x_min":27,"x_max":469,"o":"m 469 904 q 458 839 469 872 q 432 773 448 805 q 401 713 417 741 q 373 667 385 686 q 349 626 362 648 q 326 585 336 604 q 308 551 315 565 q 301 532 301 536 q 312 513 301 519 q 334 506 322 506 q 356 509 347 506 q 374 519 366 513 q 390 535 382 526 q 408 557 397 545 q 415 566 410 561 q 422 570 419 570 q 432 568 429 570 q 435 557 435 565 q 426 526 435 544 q 402 490 416 507 q 370 461 388 473 q 336 449 353 449 q 308 451 324 449 q 279 452 292 452 q 263 451 270 452 q 251 448 256 450 q 242 444 246 446 q 233 443 237 443 q 219 446 219 443 q 219 454 219 448 q 228 473 219 458 q 249 511 236 488 q 279 561 262 534 q 312 616 296 588 q 342 671 328 644 q 366 718 357 697 q 384 762 375 739 q 400 808 393 785 q 411 853 407 831 q 415 894 415 876 q 414 917 415 904 q 409 942 413 930 q 397 963 405 954 q 377 971 390 971 q 314 911 345 971 q 243 739 283 852 q 235 712 241 733 q 220 668 229 691 q 199 628 211 646 q 174 610 187 610 q 169 614 172 610 q 166 623 166 618 q 173 645 166 629 q 190 680 180 661 q 209 718 199 699 q 222 749 218 736 q 251 842 241 798 q 260 910 260 885 q 204 968 260 968 q 152 942 174 962 q 115 891 130 921 q 91 825 100 861 q 77 752 82 789 q 71 680 73 715 q 70 616 70 644 q 75 555 70 577 q 86 519 80 532 q 97 498 92 506 q 102 482 102 491 q 92 460 102 471 q 68 450 83 450 q 45 461 54 450 q 33 490 37 473 q 28 527 28 507 q 27 563 27 547 q 30 639 27 594 q 39 733 32 684 q 59 830 46 782 q 92 918 72 879 q 141 980 112 956 q 209 1004 170 1004 q 241 996 228 1004 q 264 980 254 989 q 280 964 273 972 q 292 957 287 957 q 311 964 300 957 q 335 980 321 972 q 364 996 348 989 q 397 1004 380 1004 q 428 994 414 1004 q 451 968 441 983 q 465 936 460 954 q 469 904 469 919 z "},"":{"ha":383,"x_min":27,"x_max":356,"o":"m 356 785 q 345 592 356 683 q 310 410 334 501 q 284 328 300 369 q 248 254 269 287 q 201 202 227 222 q 142 182 174 182 q 95 203 117 182 q 59 261 74 224 q 35 346 43 298 q 27 447 27 394 q 62 651 27 560 q 106 739 79 696 q 172 821 133 781 q 181 829 176 827 q 191 831 186 831 q 200 827 197 831 q 203 816 203 822 q 193 796 203 810 q 166 761 182 783 q 131 710 150 740 q 97 643 113 681 q 70 546 79 600 q 60 439 60 493 q 65 358 60 398 q 81 288 71 319 q 109 238 92 257 q 146 219 125 219 q 181 233 163 219 q 216 274 199 248 q 247 339 232 301 q 273 425 261 377 q 299 709 299 539 q 290 836 299 781 q 260 932 281 892 q 248 970 248 956 q 252 983 248 977 q 262 994 256 989 q 276 1001 269 999 q 289 1004 283 1004 q 315 987 302 1004 q 336 940 327 970 q 351 871 345 911 q 356 785 356 831 z "},"":{"ha":420,"x_min":27,"x_max":393,"o":"m 393 494 q 384 475 393 481 q 362 469 375 469 q 347 487 354 469 q 334 535 340 505 q 322 602 328 564 q 311 677 316 639 q 301 744 306 711 q 292 801 297 776 q 282 841 288 825 q 271 856 277 856 q 263 847 266 856 q 257 819 260 838 q 252 767 254 799 q 245 690 249 736 q 235 584 239 629 q 220 507 231 538 q 191 461 210 477 q 138 446 172 446 q 90 463 110 446 q 57 511 71 479 q 37 592 44 543 q 27 705 30 640 q 35 733 29 724 q 56 742 41 742 q 73 736 64 742 q 81 722 81 731 q 79 697 81 709 q 75 675 77 686 q 71 651 73 664 q 69 621 69 638 q 89 514 69 549 q 138 479 108 479 q 176 493 162 479 q 199 536 191 508 q 212 603 208 564 q 220 692 216 642 q 223 742 221 717 q 228 790 225 767 q 234 831 231 812 q 243 863 238 850 q 253 895 250 877 q 257 937 257 913 q 256 962 257 955 q 255 974 256 969 q 273 1004 255 1004 q 288 992 282 1004 q 297 966 294 981 q 302 937 300 951 q 303 916 303 923 q 307 868 303 895 q 316 812 311 842 q 329 750 321 783 q 345 686 337 718 q 368 606 355 648 q 391 517 382 564 q 393 504 393 509 q 393 494 393 498 z "},"":{"ha":478,"x_min":27,"x_max":451,"o":"m 451 494 q 436 372 451 427 q 394 278 420 317 q 332 216 368 238 q 255 194 296 194 q 159 222 201 194 q 88 301 117 250 q 43 424 58 352 q 27 582 27 495 q 54 758 27 680 q 121 890 80 836 q 210 975 161 945 q 303 1004 259 1004 q 331 1001 320 1004 q 348 993 342 998 q 357 983 355 989 q 360 973 360 978 q 358 956 360 962 q 351 944 356 949 q 335 937 345 939 q 307 932 324 935 q 208 899 254 927 q 130 825 163 871 q 78 717 97 779 q 60 582 60 655 q 73 444 60 509 q 111 331 86 379 q 172 255 136 283 q 253 227 208 227 q 358 287 323 227 q 394 465 394 347 q 371 579 394 541 q 309 616 349 616 q 277 603 290 616 q 256 571 264 589 q 242 538 247 554 q 235 519 237 523 q 228 508 232 512 q 220 504 223 504 q 208 524 208 504 q 219 600 215 560 q 222 677 222 639 q 218 739 222 711 q 214 799 214 766 q 219 821 214 814 q 239 828 224 828 q 261 804 261 828 q 255 750 261 780 q 250 678 250 720 q 254 649 250 663 q 270 635 259 635 q 286 641 275 635 q 316 646 298 646 q 370 635 345 646 q 413 606 395 625 q 441 558 431 587 q 451 494 451 530 z "},"":{"ha":437,"x_min":27,"x_max":410,"o":"m 410 595 q 403 430 410 498 q 381 318 395 361 q 346 254 367 275 q 297 234 324 234 q 228 280 248 234 q 208 417 208 326 q 210 469 208 440 q 214 527 212 497 q 218 585 216 556 q 220 637 220 613 q 201 756 220 718 q 142 795 182 795 q 80 739 101 795 q 60 575 60 682 q 77 451 60 517 q 126 305 94 384 q 132 291 130 298 q 134 279 134 284 q 132 269 134 275 q 125 257 130 262 q 114 247 121 251 q 97 243 107 243 q 74 261 84 243 q 56 310 64 280 q 43 377 48 340 q 34 451 37 414 q 29 521 31 488 q 27 575 27 554 q 55 764 27 701 q 146 827 83 827 q 195 815 174 827 q 228 781 215 803 q 247 726 241 758 q 253 654 253 694 q 251 607 253 633 q 247 554 249 581 q 242 501 244 528 q 240 452 240 475 q 253 334 240 376 q 292 291 265 291 q 327 314 312 291 q 352 377 342 336 q 367 474 362 418 q 372 596 372 530 q 361 731 372 668 q 326 842 349 795 q 268 917 302 890 q 186 945 233 945 q 156 940 169 945 q 131 929 142 935 q 108 919 119 924 q 85 914 97 914 q 62 921 70 914 q 54 948 54 928 q 64 971 54 961 q 92 988 75 981 q 133 1000 110 996 q 180 1004 155 1004 q 253 987 220 1004 q 312 941 286 970 q 356 872 338 911 q 387 787 375 832 q 405 692 399 741 q 410 595 410 643 z "},"":{"ha":441,"x_min":27,"x_max":417,"o":"m 417 614 q 410 595 417 608 q 392 564 402 583 q 369 524 381 546 q 346 477 356 502 q 327 431 334 451 q 315 392 320 410 q 307 356 311 374 q 300 317 304 338 q 288 287 296 298 q 273 275 280 275 q 245 278 260 275 q 216 284 231 281 q 186 289 201 287 q 156 292 171 292 q 126 289 140 292 q 99 283 112 286 q 73 278 85 280 q 48 275 60 275 q 33 282 39 275 q 27 300 27 288 q 33 331 27 309 q 48 381 39 352 q 69 445 57 410 q 94 516 81 480 q 120 588 107 552 q 142 654 132 624 q 163 718 153 685 q 184 783 174 751 q 204 846 194 816 q 222 903 214 877 q 236 949 230 929 q 247 979 243 968 q 265 998 252 993 q 289 1004 277 1004 q 300 1003 294 1004 q 311 1000 306 1002 q 321 992 317 998 q 325 977 325 987 q 311 949 325 973 q 276 883 298 926 q 228 781 255 841 q 173 646 200 721 q 159 609 168 632 q 141 557 151 585 q 120 500 131 530 q 102 446 110 471 q 88 403 94 421 q 83 380 83 385 q 86 356 83 366 q 101 345 89 346 q 112 346 105 345 q 126 347 119 346 q 141 348 134 347 q 153 349 148 349 q 188 344 171 349 q 222 340 205 340 q 248 354 235 340 q 271 390 260 368 q 294 439 283 412 q 317 493 305 467 q 339 546 329 521 q 359 591 350 572 q 375 622 368 610 q 390 633 383 633 q 407 627 397 633 q 417 614 417 621 z "},"":{"ha":356,"x_min":27,"x_max":329,"o":"m 329 810 q 324 753 329 782 q 311 696 319 724 q 293 642 302 668 q 275 592 283 615 q 248 524 258 549 q 237 487 237 499 q 237 471 237 477 q 246 462 237 465 q 267 455 256 458 q 288 448 278 452 q 298 441 293 446 q 304 428 304 437 q 295 413 304 420 q 273 406 286 406 q 262 408 267 406 q 251 413 258 410 q 232 417 243 415 q 200 420 220 420 q 184 435 184 420 q 189 456 184 443 q 201 491 193 470 q 220 541 210 511 q 243 608 231 570 q 267 697 256 650 q 277 810 277 745 q 262 929 277 886 q 215 971 248 971 q 158 951 182 971 q 117 899 134 932 q 89 825 100 867 q 71 740 77 783 q 61 653 64 696 q 57 575 58 610 q 66 427 57 494 q 93 309 76 359 q 135 231 111 259 q 191 203 160 203 q 212 210 203 203 q 229 225 222 216 q 241 245 236 234 q 252 265 247 256 q 259 282 255 272 q 267 301 262 292 q 278 317 272 311 q 294 323 285 323 q 304 320 299 323 q 312 311 309 316 q 317 299 315 305 q 319 287 319 292 q 307 248 319 269 q 276 211 295 228 q 235 182 258 193 q 191 171 212 171 q 122 198 152 171 q 71 277 92 225 q 38 404 50 329 q 27 575 27 479 q 78 895 30 785 q 220 1004 126 1004 q 268 989 248 1004 q 302 948 289 974 q 322 887 315 922 q 329 810 329 852 z "},"":{"ha":798,"x_min":0,"x_max":794,"o":"m 794 921 q 704 778 747 849 q 630 631 661 706 q 565 430 590 534 q 530 212 539 326 q 459 266 492 231 q 402 339 427 300 q 361 420 377 379 q 343 493 346 460 l 259 493 q 250 389 257 442 q 234 283 243 336 l 210 276 q 186 340 196 305 q 170 410 177 376 q 160 472 163 444 q 157 515 157 500 l 157 616 q 151 660 157 644 q 129 677 144 677 q 110 675 118 677 q 93 670 101 673 q 77 662 85 667 q 59 650 69 657 q 33 630 42 639 q 19 622 24 622 q 6 637 12 629 q 0 652 0 646 q 17 671 7 659 q 36 693 26 682 q 113 768 81 745 q 170 791 145 791 q 217 761 200 791 q 234 682 234 731 l 234 616 l 389 616 l 389 542 q 398 484 389 516 q 421 421 408 452 q 450 366 435 391 q 476 330 465 340 q 475 381 472 345 q 487 465 478 418 q 510 566 496 513 q 543 666 524 618 q 585 776 565 724 q 621 872 606 828 q 646 952 637 916 q 656 1013 656 987 q 653 1042 656 1023 q 646 1078 650 1060 q 640 1112 643 1097 q 637 1133 637 1127 q 641 1158 637 1150 q 659 1166 646 1166 q 671 1158 663 1166 q 685 1137 678 1149 q 714 1080 701 1105 q 739 1029 726 1054 q 764 979 751 1005 q 794 921 777 953 z "},"":{"ha":627,"x_min":0,"x_max":600,"o":"m 600 369 l 600 145 q 592 64 600 98 q 567 4 583 30 q 526 -39 551 -21 q 470 -72 502 -58 q 441 -86 452 -80 q 422 -100 430 -93 q 410 -117 415 -107 q 396 -142 404 -127 l 384 -142 l 420 12 q 434 16 427 14 q 450 21 441 18 q 468 29 458 24 q 492 42 478 34 q 510 54 500 47 q 529 73 520 62 q 545 102 538 85 q 551 145 551 120 l 551 369 q 528 461 551 429 q 465 493 505 493 l 259 493 q 250 389 257 442 q 234 283 243 336 l 210 276 q 186 340 196 305 q 170 410 177 376 q 160 472 163 444 q 157 515 157 500 l 157 616 q 151 660 157 644 q 129 677 144 677 q 110 675 118 677 q 93 670 101 673 q 77 662 85 667 q 59 650 69 657 q 33 630 42 639 q 19 622 24 622 q 6 637 12 629 q 0 652 0 646 q 17 671 7 659 q 36 693 26 682 q 113 768 81 745 q 170 791 145 791 q 217 761 200 791 q 234 682 234 731 l 234 616 l 465 616 q 566 555 532 616 q 600 369 600 494 z "},"":{"ha":671,"x_min":0,"x_max":644,"o":"m 644 586 q 642 556 644 566 q 631 547 640 547 q 619 556 623 547 q 612 575 615 564 q 599 635 606 603 q 581 695 592 667 q 553 741 570 723 q 511 760 536 760 q 458 744 481 760 q 421 700 436 728 q 398 636 406 673 q 390 557 390 599 q 398 514 390 537 q 420 469 407 492 q 450 424 433 446 q 482 384 466 402 q 512 350 498 365 q 533 328 526 336 l 501 220 l 489 220 q 443 282 466 247 q 401 356 420 318 q 372 429 383 393 q 360 493 360 465 l 259 493 q 250 389 257 442 q 234 283 243 336 l 210 276 q 186 340 196 305 q 170 410 177 376 q 160 472 163 444 q 157 515 157 500 l 157 616 q 151 660 157 644 q 129 677 144 677 q 110 675 118 677 q 93 670 101 673 q 77 662 85 667 q 59 650 69 657 q 33 630 42 639 q 19 622 24 622 q 6 637 12 629 q 0 652 0 646 q 17 671 7 659 q 36 693 26 682 q 113 768 81 745 q 170 791 145 791 q 217 761 200 791 q 234 682 234 731 l 234 616 l 360 616 q 408 802 370 736 q 511 868 446 868 q 576 843 551 868 q 617 778 602 818 q 638 687 632 737 q 644 586 644 637 z "},"":{"ha":608,"x_min":0,"x_max":581,"o":"m 581 616 l 581 400 q 553 273 581 318 q 463 228 524 228 q 370 273 401 228 q 338 400 338 318 l 338 493 l 259 493 q 250 389 257 442 q 234 283 243 336 l 210 276 q 186 340 196 305 q 170 410 177 376 q 160 472 163 444 q 157 515 157 500 l 157 616 q 151 660 157 644 q 129 677 144 677 q 110 675 118 677 q 93 670 101 673 q 77 662 85 667 q 59 650 69 657 q 33 630 42 639 q 19 622 24 622 q 6 637 12 629 q 0 652 0 646 q 17 671 7 659 q 36 693 26 682 q 113 768 81 745 q 170 791 145 791 q 217 761 200 791 q 234 682 234 731 l 234 616 l 581 616 m 545 493 l 375 493 l 375 400 q 399 342 375 361 q 464 323 422 323 q 523 342 501 323 q 545 400 545 361 l 545 493 z "},"":{"ha":651,"x_min":0,"x_max":617,"o":"m 617 616 l 617 493 l 581 493 l 581 400 q 553 273 581 318 q 463 228 524 228 q 370 273 401 228 q 338 400 338 318 l 338 493 l 259 493 q 250 389 257 442 q 234 283 243 336 l 210 276 q 186 340 196 305 q 170 410 177 376 q 160 472 163 444 q 157 515 157 500 l 157 616 q 151 660 157 644 q 129 677 144 677 q 110 675 118 677 q 93 670 101 673 q 77 662 85 667 q 59 650 69 657 q 33 630 42 639 q 19 622 24 622 q 6 637 12 629 q 0 652 0 646 q 17 671 7 659 q 36 693 26 682 q 113 768 81 745 q 170 791 145 791 q 217 761 200 791 q 234 682 234 731 l 234 616 l 617 616 m 545 493 l 375 493 l 375 400 q 399 342 375 361 q 464 323 422 323 q 523 342 501 323 q 545 400 545 361 l 545 493 z "},"":{"ha":854,"x_min":0,"x_max":827,"o":"m 827 473 l 827 409 q 814 347 827 370 q 781 323 801 323 l 781 336 q 754 450 781 409 q 674 493 728 491 l 580 493 l 580 400 q 551 273 580 318 q 461 228 523 228 q 368 273 399 228 q 337 400 337 318 l 337 493 l 259 493 q 250 389 257 442 q 234 283 243 336 l 210 276 q 186 340 196 305 q 170 410 177 376 q 160 472 163 444 q 157 515 157 500 l 157 616 q 151 660 157 644 q 129 677 144 677 q 110 675 118 677 q 93 670 101 673 q 77 662 85 667 q 59 650 69 657 q 33 630 42 639 q 19 622 24 622 q 6 637 12 629 q 0 652 0 646 q 17 671 7 659 q 36 693 26 682 q 113 768 81 745 q 170 791 145 791 q 217 761 200 791 q 234 682 234 731 l 234 616 l 721 616 q 800 574 772 612 q 827 473 827 537 m 543 493 l 374 493 l 374 400 q 397 342 374 361 q 463 323 421 323 q 522 342 500 323 q 543 400 543 361 l 543 493 z "},"":{"ha":963,"x_min":0,"x_max":936,"o":"m 936 616 l 936 493 l 715 493 l 856 292 l 856 276 l 826 135 l 810 135 l 669 493 l 580 493 l 580 400 q 551 273 580 318 q 461 228 523 228 q 368 273 399 228 q 337 400 337 318 l 337 493 l 259 493 q 250 389 257 442 q 234 283 243 336 l 210 276 q 186 340 196 305 q 170 410 177 376 q 160 472 163 444 q 157 515 157 500 l 157 616 q 151 660 157 644 q 129 677 144 677 q 110 675 118 677 q 93 670 101 673 q 77 662 85 667 q 59 650 69 657 q 33 630 42 639 q 19 622 24 622 q 6 637 12 629 q 0 652 0 646 q 17 671 7 659 q 36 693 26 682 q 113 768 81 745 q 170 791 145 791 q 217 761 200 791 q 234 682 234 731 l 234 616 l 936 616 m 543 493 l 374 493 l 374 400 q 397 342 374 361 q 463 323 421 323 q 522 342 500 323 q 543 400 543 361 l 543 493 z "},"":{"ha":963,"x_min":0,"x_max":936,"o":"m 936 473 l 936 409 q 923 347 936 370 q 890 323 909 323 l 890 336 q 863 450 890 409 q 783 493 836 491 l 400 493 l 437 331 q 457 271 446 296 q 480 228 467 245 q 511 202 494 211 q 551 194 528 194 q 583 201 570 194 q 603 218 595 209 q 615 235 610 227 q 627 243 621 243 q 643 232 638 243 q 648 200 648 220 q 640 161 648 179 q 620 129 633 142 q 589 107 606 115 q 551 99 571 99 q 493 114 517 99 q 449 156 468 128 q 414 223 429 183 q 387 315 399 264 l 346 493 l 259 493 q 250 389 257 442 q 234 283 243 336 l 210 276 q 186 340 196 305 q 170 410 177 376 q 160 472 163 444 q 157 515 157 500 l 157 616 q 151 660 157 644 q 129 677 144 677 q 110 675 118 677 q 93 670 101 673 q 77 662 85 667 q 59 650 69 657 q 33 630 42 639 q 19 622 24 622 q 6 637 12 629 q 0 652 0 646 q 17 671 7 659 q 36 693 26 682 q 113 768 81 745 q 170 791 145 791 q 217 761 200 791 q 234 682 234 731 l 234 616 l 829 616 q 908 574 880 612 q 936 473 936 537 z "},"":{"ha":370,"x_min":0,"x_max":342,"o":"m 251 121 q 247 109 251 114 q 236 97 243 103 q 222 85 230 92 q 205 70 214 79 q 193 54 198 62 q 183 41 187 47 q 174 32 178 35 q 165 28 170 28 q 146 34 154 28 q 138 52 138 40 q 141 80 138 68 q 149 109 143 93 q 157 129 152 118 q 170 149 163 140 q 185 164 177 158 q 204 170 194 170 q 229 157 215 170 q 251 121 251 137 m 342 616 l 342 493 l 259 493 q 250 389 257 442 q 234 283 243 336 l 210 276 q 186 340 196 305 q 170 410 177 376 q 160 472 163 444 q 157 515 157 500 l 157 616 q 151 660 157 644 q 129 677 144 677 q 110 675 118 677 q 93 670 101 673 q 77 662 85 667 q 59 650 69 657 q 33 630 42 639 q 19 622 24 622 q 6 637 12 629 q 0 652 0 646 q 17 671 7 659 q 36 693 26 682 q 113 768 81 745 q 170 791 145 791 q 217 761 200 791 q 234 682 234 731 l 234 616 l 342 616 z "},"":{"ha":535,"x_min":27,"x_max":513,"o":"m 513 532 q 511 502 513 511 q 500 493 509 493 q 488 502 492 493 q 481 521 484 510 q 469 579 475 549 q 451 634 463 609 q 419 676 439 660 q 363 693 398 693 q 330 688 347 693 q 297 667 312 682 q 273 625 282 652 q 263 557 263 599 q 273 511 263 533 q 297 470 283 490 q 328 433 311 450 q 357 400 344 415 l 338 288 l 330 288 q 318 306 326 296 q 303 329 311 317 q 287 353 295 340 q 272 375 278 365 q 258 400 265 386 q 246 429 252 414 q 237 460 240 444 q 233 493 233 477 l 130 493 q 125 448 128 477 q 119 387 123 418 q 111 327 116 355 q 102 282 106 298 l 78 275 q 45 381 58 326 q 27 493 33 437 l 27 616 l 233 616 q 254 712 238 676 q 289 769 269 749 q 329 795 309 789 q 364 802 350 802 q 432 779 404 802 q 478 718 460 755 q 505 631 496 680 q 513 532 513 583 z "},"":{"ha":415,"x_min":27,"x_max":388,"o":"m 248 493 l 71 493 q 72 425 71 456 q 81 371 73 394 q 107 336 90 349 q 159 323 125 323 q 210 335 192 323 q 236 370 228 348 q 246 424 245 393 q 248 493 248 455 m 388 597 q 382 560 388 573 q 373 547 377 547 q 359 558 363 547 q 349 600 355 568 q 328 683 342 648 q 297 741 315 718 q 258 775 279 764 q 214 787 237 787 q 73 616 104 787 l 233 616 q 291 557 291 616 l 291 431 q 284 356 291 393 q 263 291 278 319 q 222 245 248 262 q 159 228 197 228 q 109 241 130 228 q 74 275 88 254 q 50 325 59 297 q 36 382 41 353 q 29 440 31 411 q 27 493 27 469 l 27 616 q 83 824 37 752 q 214 895 130 895 q 289 873 256 895 q 343 811 321 850 q 377 716 366 771 q 388 597 388 662 z "},"":{"ha":417,"x_min":27,"x_max":390,"o":"m 390 616 q 390 590 390 602 q 387 568 389 577 q 381 553 385 558 q 372 547 378 547 q 364 552 368 547 q 358 564 361 557 q 353 581 355 572 q 349 600 351 590 q 329 684 342 648 q 298 742 316 719 q 259 776 281 765 q 214 787 237 787 q 73 616 104 787 l 233 616 q 291 557 291 616 l 291 446 q 283 368 291 401 q 259 314 275 336 q 219 280 243 292 q 162 264 195 268 q 86 247 113 258 q 46 229 60 235 q 44 249 45 237 q 43 266 43 260 q 48 307 43 290 q 67 338 53 325 q 106 359 81 351 q 171 372 131 367 q 201 378 188 374 q 224 392 215 382 q 237 418 233 401 q 242 461 242 435 l 242 493 l 27 493 l 27 616 q 47 736 32 684 q 88 823 63 788 q 145 877 113 859 q 214 895 177 895 q 288 872 255 895 q 343 810 320 849 q 378 721 366 772 q 390 616 390 671 z "},"":{"ha":543,"x_min":27,"x_max":515,"o":"m 515 616 l 515 493 l 438 493 q 418 383 429 437 q 391 276 407 330 l 373 276 q 356 333 365 302 q 341 392 348 363 q 331 447 335 421 q 326 493 326 473 q 329 519 326 505 q 335 549 332 532 q 340 586 338 566 q 343 633 343 607 q 323 727 343 695 q 272 760 303 760 q 231 745 249 760 q 199 704 212 730 q 180 643 186 678 q 173 565 173 607 q 184 491 173 522 q 210 434 196 460 q 236 386 224 409 q 248 336 248 363 q 171 276 248 276 q 137 279 153 276 q 111 286 122 281 q 95 295 100 290 q 90 305 89 300 q 104 328 92 320 q 130 345 116 335 q 154 371 143 354 q 165 420 165 387 q 161 450 165 434 q 148 478 156 465 q 126 500 139 492 q 97 509 113 509 q 83 506 90 509 q 70 501 77 504 q 55 495 62 498 q 42 493 48 493 q 30 521 33 505 q 27 557 27 537 q 33 589 27 577 q 48 609 39 602 q 69 622 58 616 q 91 632 80 627 q 112 645 102 637 q 125 667 121 653 q 200 816 161 764 q 287 868 240 868 q 332 856 310 868 q 370 819 353 844 q 397 754 387 793 q 408 662 408 715 l 408 616 l 515 616 z "},"":{"ha":543,"x_min":27,"x_max":515,"o":"m 515 616 l 515 493 l 438 493 q 418 383 429 437 q 391 276 407 330 l 373 276 q 356 333 365 302 q 341 392 348 363 q 331 447 335 421 q 326 493 326 473 q 329 519 326 505 q 335 549 332 532 q 340 586 338 566 q 343 633 343 607 q 323 727 343 695 q 272 760 303 760 q 231 745 249 760 q 199 704 212 730 q 180 643 186 678 q 173 565 173 607 q 184 491 173 522 q 210 434 196 460 q 236 386 224 409 q 248 336 248 363 q 171 276 248 276 q 137 279 153 276 q 111 286 122 281 q 95 295 100 290 q 90 305 89 300 q 104 328 92 320 q 130 345 116 335 q 154 371 143 354 q 165 420 165 387 q 161 450 165 434 q 148 478 156 465 q 126 500 139 492 q 97 509 113 509 q 83 506 90 509 q 70 501 77 504 q 55 495 62 498 q 42 493 48 493 q 30 521 33 505 q 27 557 27 537 q 33 589 27 577 q 48 609 39 602 q 69 622 58 616 q 91 632 80 627 q 112 645 102 637 q 125 667 121 653 q 200 816 161 764 q 287 868 240 868 q 332 856 310 868 q 370 819 353 844 q 397 754 387 793 q 408 662 408 715 l 408 616 l 515 616 m 352 -49 q 348 -61 352 -56 q 337 -72 344 -66 q 323 -84 331 -78 q 307 -100 315 -91 q 294 -115 299 -108 q 284 -129 288 -123 q 275 -138 279 -134 q 267 -141 271 -141 q 247 -135 255 -141 q 239 -117 239 -130 q 242 -89 239 -102 q 250 -61 244 -77 q 258 -41 253 -52 q 271 -21 264 -30 q 287 -6 278 -12 q 305 0 295 0 q 330 -12 316 0 q 352 -49 352 -33 m 285 121 q 281 109 285 114 q 270 97 277 103 q 256 85 264 92 q 239 70 248 79 q 227 54 232 62 q 217 41 221 47 q 208 32 212 35 q 199 28 204 28 q 180 34 188 28 q 172 52 172 40 q 175 80 172 68 q 182 109 177 93 q 191 129 186 118 q 204 149 197 140 q 219 164 211 158 q 238 170 228 170 q 262 157 249 170 q 285 121 285 137 z "},"":{"ha":370,"x_min":0,"x_max":342,"o":"m 342 616 l 342 493 l 259 493 q 250 389 257 442 q 234 283 243 336 l 210 276 q 186 340 196 305 q 170 410 177 376 q 160 472 163 444 q 157 515 157 500 l 157 616 q 151 660 157 644 q 129 677 144 677 q 110 675 118 677 q 93 670 101 673 q 77 662 85 667 q 59 650 69 657 q 33 630 42 639 q 19 622 24 622 q 6 637 12 629 q 0 652 0 646 q 17 671 7 659 q 36 693 26 682 q 101 759 73 736 q 151 789 130 782 l 123 966 q 148 977 130 972 q 187 982 165 982 q 228 986 211 982 q 255 1000 244 990 q 272 1027 266 1010 q 282 1068 279 1044 q 300 1032 296 1050 q 304 996 304 1014 q 278 916 304 946 q 196 885 252 885 l 170 885 l 183 789 q 221 754 208 783 q 234 682 234 725 l 234 616 l 342 616 z "},"":{"ha":370,"x_min":0,"x_max":342,"o":"m 342 616 l 342 493 l 259 493 q 250 389 257 442 q 234 283 243 336 l 210 276 q 186 340 196 305 q 170 410 177 376 q 160 472 163 444 q 157 515 157 500 l 157 616 q 151 660 157 644 q 129 677 144 677 q 110 675 118 677 q 93 670 101 673 q 77 662 85 667 q 59 650 69 657 q 33 630 42 639 q 19 622 24 622 q 6 637 12 629 q 0 652 0 646 q 17 671 7 659 q 36 693 26 682 q 111 766 79 743 q 165 791 142 789 l 179 886 l 153 885 q 71 916 97 885 q 45 996 45 946 q 49 1032 45 1014 q 66 1068 53 1050 q 76 1027 70 1044 q 94 1000 83 1010 q 121 986 104 990 q 161 982 138 982 q 201 977 183 982 q 225 966 218 972 l 196 783 q 224 745 214 772 q 234 682 234 719 l 234 616 l 342 616 z "},"":{"ha":458,"x_min":27,"x_max":431,"o":"m 431 616 l 431 493 l 363 493 l 349 284 l 330 277 q 303 360 313 321 q 287 428 292 399 q 280 474 281 456 q 278 493 278 491 l 278 589 q 280 619 278 601 q 283 657 281 637 q 288 697 286 677 q 290 733 290 718 q 289 741 290 736 q 288 749 288 746 q 274 730 281 743 q 262 703 268 718 q 252 674 257 688 q 245 651 248 660 q 191 545 221 584 q 125 506 161 506 q 84 515 102 506 q 53 542 66 525 q 34 582 41 559 q 27 633 27 606 q 30 654 27 645 q 44 663 33 663 q 57 655 50 663 q 73 637 64 647 q 95 620 82 628 q 125 612 107 612 q 184 641 161 612 q 221 722 207 669 q 259 830 240 792 q 290 868 279 868 q 313 860 304 868 q 327 839 322 851 q 334 814 332 827 q 336 790 336 800 q 335 754 336 777 q 333 707 334 732 q 330 657 332 682 q 327 616 328 633 l 431 616 z "},"":{"ha":458,"x_min":27,"x_max":438,"o":"m 431 616 l 431 493 l 363 493 l 349 284 l 330 277 q 303 360 313 321 q 287 428 292 399 q 280 474 281 456 q 278 493 278 491 l 278 589 q 280 619 278 601 q 283 657 281 637 q 288 697 286 677 q 290 733 290 718 q 289 741 290 736 q 288 749 288 746 q 274 730 281 743 q 262 703 268 718 q 252 674 257 688 q 245 651 248 660 q 191 545 221 584 q 125 506 161 506 q 84 515 102 506 q 53 542 66 525 q 34 582 41 559 q 27 633 27 606 q 30 654 27 645 q 44 663 33 663 q 57 655 50 663 q 73 637 64 647 q 95 620 82 628 q 125 612 107 612 q 184 641 161 612 q 221 722 207 669 q 259 830 240 792 q 290 868 279 868 q 313 860 304 868 q 327 839 322 851 q 334 814 332 827 q 336 790 336 800 q 335 754 336 777 q 333 707 334 732 q 330 657 332 682 q 327 616 328 633 l 431 616 m 438 989 q 434 977 438 982 q 424 965 430 971 q 409 953 417 960 q 393 938 401 947 q 380 922 385 930 q 370 909 374 915 q 361 900 366 903 q 353 897 357 897 q 333 902 341 897 q 326 920 326 908 q 328 948 326 936 q 336 977 330 961 q 345 997 339 986 q 357 1017 350 1008 q 373 1032 364 1026 q 391 1038 381 1038 q 416 1025 402 1038 q 438 989 438 1005 m 262 989 q 258 977 262 982 q 247 965 254 971 q 233 953 241 960 q 216 938 224 947 q 203 922 209 930 q 194 909 198 915 q 185 900 189 903 q 176 897 181 897 q 157 902 165 897 q 149 920 149 908 q 152 948 149 936 q 159 977 154 961 q 168 997 163 986 q 181 1017 174 1008 q 196 1032 188 1026 q 215 1038 205 1038 q 239 1025 226 1038 q 262 989 262 1005 z "},"":{"ha":515,"x_min":0,"x_max":488,"o":"m 488 616 l 488 493 l 423 493 q 403 383 414 437 q 376 276 392 330 l 358 276 q 330 382 342 329 q 311 490 317 435 q 284 462 299 473 q 256 444 270 451 q 229 434 241 437 q 206 431 216 431 q 178 433 192 431 q 151 442 164 435 q 124 461 137 449 q 99 493 111 473 q 71 535 83 517 q 48 566 59 553 q 25 587 37 578 q 0 604 14 596 l 0 620 q 19 636 10 628 q 36 655 28 645 q 54 678 45 665 q 72 706 62 690 q 107 755 90 736 q 140 785 124 774 q 173 800 157 796 q 206 804 189 804 q 259 792 233 804 q 304 757 284 781 q 336 698 323 733 q 349 616 348 663 l 488 616 m 297 614 q 273 695 297 663 q 206 726 250 726 q 161 713 180 726 q 124 683 141 701 q 92 645 108 665 q 58 612 76 625 q 92 586 75 604 q 126 552 109 569 q 163 522 144 534 q 206 509 183 509 q 271 535 245 509 q 297 614 297 561 z "},"":{"ha":444,"x_min":27,"x_max":417,"o":"m 142 265 q 158 234 149 249 q 180 208 168 219 q 204 191 191 197 q 231 184 218 184 q 257 189 245 184 q 278 201 269 193 q 293 224 288 210 q 298 257 298 238 q 293 292 298 275 q 280 322 288 309 q 259 343 271 335 q 233 351 248 351 q 200 342 216 351 q 173 320 185 334 q 153 292 161 307 q 142 265 145 277 m 417 616 l 417 493 l 77 493 q 84 455 79 478 q 96 407 90 432 q 108 359 102 382 q 120 323 115 336 q 137 351 126 337 q 163 377 148 366 q 196 396 178 389 q 233 403 214 403 q 312 364 286 403 q 338 257 338 325 q 330 186 338 216 q 307 137 322 157 q 272 109 292 118 q 229 100 252 100 q 169 117 195 100 q 125 165 144 135 q 92 234 106 195 q 67 318 78 274 q 47 407 56 361 q 27 493 37 452 l 27 616 l 417 616 z "},"":{"ha":424,"x_min":27,"x_max":397,"o":"m 397 616 l 397 493 l 302 493 q 295 457 298 475 q 292 416 292 439 q 297 351 292 382 q 307 291 301 319 q 319 243 313 264 q 328 212 325 222 l 152 212 q 97 195 117 212 q 68 149 76 178 q 54 155 60 150 q 43 167 47 160 q 36 183 39 174 q 33 199 33 191 q 40 252 33 227 q 62 295 47 277 q 100 324 77 313 q 152 335 122 335 l 245 335 q 244 357 245 346 q 243 378 243 368 q 257 493 243 433 l 27 493 l 27 616 l 397 616 z "},"":{"ha":335,"x_min":27,"x_max":308,"o":"m 308 616 l 308 493 l 73 493 l 214 292 l 214 276 l 184 135 l 169 135 l 27 493 l 27 616 l 308 616 z "},"":{"ha":315,"x_min":27,"x_max":288,"o":"m 288 616 l 288 493 l 76 493 q 91 441 77 467 q 125 384 104 415 q 150 346 137 366 q 173 307 163 327 q 190 268 183 288 q 197 229 197 248 q 190 186 197 202 q 171 162 182 171 q 143 152 159 154 q 112 149 128 149 q 71 158 92 149 q 39 180 50 167 q 51 200 39 192 q 77 217 62 208 q 103 239 91 227 q 115 273 115 252 q 112 293 115 283 q 104 312 109 302 q 91 336 99 323 q 73 367 83 349 q 55 402 63 384 q 42 436 47 420 q 33 468 37 453 q 27 493 29 483 l 27 616 l 288 616 z "},"":{"ha":383,"x_min":27,"x_max":356,"o":"m 356 616 l 356 493 l 73 493 l 261 258 l 261 242 l 231 101 l 216 101 l 133 273 l 41 194 l 27 207 l 87 368 l 27 493 l 27 616 l 356 616 z "},"":{"ha":427,"x_min":27,"x_max":400,"o":"m 400 616 l 400 493 l 81 493 l 118 331 q 138 271 127 296 q 162 228 149 245 q 192 202 175 211 q 232 194 210 194 q 264 201 252 194 q 284 218 276 209 q 297 235 292 227 q 308 243 302 243 q 324 232 319 243 q 329 200 329 220 q 321 161 329 179 q 301 129 314 142 q 270 107 288 115 q 232 99 252 99 q 174 114 199 99 q 130 156 149 128 q 96 223 111 183 q 68 315 81 264 l 27 493 l 27 616 l 400 616 z "}}}
